<svg width="24" height="24" viewBox="0 0 24 24" fill="none" xmlns="http://www.w3.org/2000/svg">
<g clip-path="url(#clip0_141_4131)">
<path d="M11.9132 -0.0286335C11.8742 -0.0215842 11.8357 -0.0120259 11.7978 -1.81124e-05C11.5894 0.0466912 11.4037 0.164219 11.2722 0.332538C11.1408 0.500857 11.0718 0.709551 11.0769 0.923059V1.84614H2.76923C2.03479 1.84614 1.33042 2.13789 0.811089 2.65722C0.291757 3.17656 0 3.88092 0 4.61537L0 16.6154C0 18.144 1.24062 19.3846 2.76923 19.3846H11.0769V19.7308L6.05723 22.2406C5.83543 22.3477 5.66526 22.5385 5.58416 22.7711C5.50305 23.0037 5.51766 23.2589 5.62477 23.4808C5.73188 23.7026 5.92271 23.8727 6.15528 23.9538C6.38785 24.0349 6.64312 24.0203 6.86492 23.9132L11.0769 21.8077V22.1538C11.0769 22.3986 11.1742 22.6334 11.3473 22.8065C11.5204 22.9797 11.7552 23.0769 12 23.0769C12.2448 23.0769 12.4796 22.9797 12.6527 22.8065C12.8258 22.6334 12.9231 22.3986 12.9231 22.1538V21.8077L17.1351 23.9132C17.3569 24.0203 17.6121 24.0349 17.8447 23.9538C18.0773 23.8727 18.2681 23.7026 18.3752 23.4808C18.4823 23.2589 18.4969 23.0037 18.4158 22.7711C18.3347 22.5385 18.1646 22.3477 17.9428 22.2406L12.9231 19.7308V19.3846H21.2308C22.7594 19.3846 24 18.144 24 16.6154V4.61537C24 3.88092 23.7082 3.17656 23.1889 2.65722C22.6696 2.13789 21.9652 1.84614 21.2308 1.84614H12.9231V0.923059C12.9277 0.791795 12.9043 0.661048 12.8544 0.539554C12.8045 0.418059 12.7293 0.308614 12.6337 0.218531C12.5381 0.128449 12.4244 0.0598024 12.3001 0.0171792C12.1759 -0.025444 12.044 -0.0410628 11.9132 -0.0286335ZM1.84615 4.61537H22.1538V16.6154H1.84615V4.61537ZM19.2692 5.53844C19.0625 5.56067 18.8693 5.65207 18.7209 5.79783L15.6923 8.82737L13.5868 6.71998C13.4859 6.61652 13.3622 6.53816 13.2256 6.49123C13.0889 6.44429 12.9432 6.43009 12.8001 6.44975C12.6569 6.46942 12.5204 6.5224 12.4015 6.60445C12.2826 6.68649 12.1846 6.79531 12.1154 6.92214L9.37477 11.7111L8.24954 8.88367C8.1949 8.73769 8.10418 8.60792 7.98584 8.50646C7.8675 8.40501 7.72539 8.33517 7.57278 8.30347C7.42016 8.27176 7.262 8.27923 7.11304 8.32516C6.96408 8.37109 6.82919 8.45399 6.72092 8.56614L3.95169 11.3354C3.86441 11.4226 3.79517 11.5261 3.74791 11.6401C3.70065 11.7541 3.67631 11.8763 3.67626 11.9997C3.67622 12.123 3.70048 12.2452 3.74766 12.3592C3.79484 12.4733 3.86401 12.5769 3.95123 12.6641C4.03845 12.7514 4.142 12.8207 4.25598 12.8679C4.36996 12.9152 4.49213 12.9395 4.61552 12.9396C4.73891 12.9396 4.8611 12.9153 4.97511 12.8682C5.08912 12.821 5.19272 12.7518 5.28 12.6646L7.03938 10.9052L8.36677 14.1932C8.42942 14.3581 8.538 14.5016 8.67967 14.6067C8.82134 14.7118 8.99016 14.7741 9.16614 14.7863C9.34213 14.7984 9.5179 14.7599 9.67266 14.6752C9.82742 14.5906 9.95469 14.4633 10.0394 14.3086L13.1262 8.91413L15.0295 10.8184C15.1156 10.9075 15.2187 10.9783 15.3328 11.0267C15.4468 11.075 15.5694 11.1 15.6932 11.1C15.8171 11.1 15.9397 11.075 16.0537 11.0267C16.1677 10.9783 16.2708 10.9075 16.3569 10.8184L20.0492 7.12614C20.195 6.99114 20.2934 6.8127 20.3297 6.61733C20.366 6.42196 20.3383 6.2201 20.2506 6.04175C20.163 5.8634 20.0202 5.71808 19.8434 5.6274C19.6666 5.53673 19.4652 5.50553 19.2692 5.53844Z" fill="#0A0A0A"/>
</g>
<defs>
<clipPath id="clip0_141_4131">
<rect width="24" height="24" fill="white"/>
</clipPath>
</defs>
</svg>
