<svg width="18" height="18" viewBox="0 0 18 18" fill="none" xmlns="http://www.w3.org/2000/svg">
<path d="M9 3.5C9.20277 3.5 9.40482 3.53013 9.59863 3.58691L9.33691 4.03906C9.22915 4.01532 9.11754 4 9 4C8.09386 4 7.375 4.71886 7.375 5.625C7.375 6.47309 8.00832 7.13965 8.80664 7.24609L8.90625 7.25879L9.00391 7.23242L11.8574 6.45605L11.9863 6.93652L8.56348 7.85645C7.89873 8.03387 7.31105 8.42654 6.89258 8.97266C6.47438 9.51845 6.24867 10.1874 6.25 10.875C6.25 12.6146 7.64479 14 9.375 14C10.3469 14 11.3056 13.7792 12.1816 13.3613L12.4336 13.7979C11.4928 14.2584 10.4404 14.5 9.375 14.5C7.37864 14.5 5.75 12.8714 5.75 10.875C5.75 9.63944 6.38743 8.51137 7.39844 7.85059L7.90918 7.5166L7.48145 7.08203C7.10247 6.69694 6.875 6.18294 6.875 5.625C6.875 4.46114 7.83614 3.5 9 3.5Z" fill="#0A0A0A" stroke="#0A0A0A"/>
</svg>
