<svg width="18" height="18" viewBox="0 0 18 18" fill="none" xmlns="http://www.w3.org/2000/svg">
<path d="M12.1649 2.64453C12.6163 2.64453 13.1366 2.7644 13.7313 3.04102L13.7362 3.04297C14.3305 3.3125 14.7771 3.61899 15.0956 3.95215C15.7724 4.8011 16.0573 5.78225 15.9569 6.92773C15.8448 8.1187 15.4597 8.99297 14.8397 9.59375L14.8339 9.59863L9.14148 15.291C9.10338 15.3291 9.05573 15.3544 8.96277 15.3545C8.87507 15.3545 8.83258 15.3327 8.79089 15.291L8.78796 15.2891L8.7616 15.2559C8.75385 15.2442 8.7473 15.2318 8.74207 15.2188C8.73156 15.1925 8.72651 15.164 8.72742 15.1357V15.1201C8.72742 15.0272 8.75291 14.9795 8.79089 14.9414L12.2333 11.498L12.2323 11.4971C12.3774 11.362 12.5204 11.1609 12.5204 10.8906C12.5203 10.6152 12.3721 10.4054 12.2333 10.2666C12.0944 10.1278 11.8847 9.97957 11.6093 9.97949C11.3955 9.97949 11.2238 10.0679 11.0946 10.1768L11.0018 10.2666L7.55847 13.709L7.5575 13.71C7.53691 13.7307 7.51238 13.747 7.48523 13.7578C7.45803 13.7685 7.4285 13.7735 7.39929 13.7725H7.37976C7.29236 13.7724 7.25044 13.7505 7.20886 13.709L7.20593 13.7061L7.17859 13.6738C7.17079 13.6621 7.16432 13.6489 7.15906 13.6357C7.14871 13.6097 7.14354 13.5817 7.14441 13.5537L7.14539 13.5459V13.5371C7.14544 13.4442 7.17076 13.3965 7.20886 13.3584L10.6503 9.91504C10.8004 9.77169 10.9491 9.56024 10.9491 9.28125C10.9491 9.18448 10.9298 9.09628 10.9003 9.01562C11.1227 9.1019 11.3637 9.14745 11.6249 9.14746C12.309 9.14746 12.8715 8.86133 13.2733 8.3125L13.2782 8.30664L13.2831 8.2998C13.5663 7.8851 13.6686 7.41724 13.5887 6.91797C13.5128 6.44403 13.3096 6.0342 12.9813 5.69629L12.9774 5.69336L10.3622 3.05176C10.8989 2.78145 11.4983 2.64454 12.1649 2.64453ZM10.0067 8.36133C9.74596 8.37302 9.54881 8.5165 9.41882 8.64648L9.41687 8.64844L5.97546 12.126C5.95384 12.1462 5.92884 12.1629 5.90125 12.1738C5.87209 12.1853 5.84076 12.1912 5.80945 12.1904V12.1895H5.79773C5.71189 12.1895 5.65345 12.1674 5.59167 12.1133C5.54335 12.0663 5.52529 12.0258 5.52527 11.9551C5.52527 11.893 5.54333 11.8287 5.62585 11.7461L9.07605 8.2959C9.20651 8.16543 9.34293 7.97207 9.35925 7.7207L10.0067 8.36133ZM8.42273 6.79492C8.17685 6.80258 7.97956 6.9212 7.83777 7.0625L4.36902 10.5078C4.26782 10.5987 4.21173 10.6073 4.18542 10.6074C4.10678 10.6074 4.07062 10.5855 4.03992 10.5498L4.02234 10.5303C3.96529 10.4701 3.94227 10.4124 3.94226 10.335C3.94226 10.2607 3.96257 10.2141 4.01355 10.1631L4.01453 10.1621C5.91858 8.24562 7.21763 6.96282 7.91003 6.28809L8.42273 6.79492ZM5.79773 2.60742C6.8378 2.60748 7.71842 2.95514 8.45789 3.64844L8.60437 3.79102L11.8114 6.99805C11.8531 7.03973 11.8749 7.08222 11.8749 7.16992C11.8749 7.26099 11.8501 7.30798 11.8134 7.3457C11.7654 7.389 11.7164 7.41211 11.6249 7.41211C11.5606 7.41209 11.5098 7.39351 11.455 7.34277L8.26648 4.14648L7.91296 3.79199L7.55847 4.14648L2.64246 9.06152C2.36165 8.62658 2.16264 8.04655 2.07019 7.29199L2.02917 6.83887C1.95474 5.64791 2.27326 4.63466 2.9696 3.7832C3.76842 2.99764 4.70329 2.60742 5.79773 2.60742Z" fill="#0A0A0A" stroke="#0A0A0A"/>
</svg>
