<svg width="24" height="24" viewBox="0 0 24 24" fill="none" xmlns="http://www.w3.org/2000/svg">
<path d="M14.6321 6.898C14.5635 6.986 14.4558 7.07933 14.3091 7.178L12.3771 6.259C12.6071 6.189 12.9401 6.144 13.2771 6.133C13.6541 6.108 14.0321 6.157 14.3901 6.279C14.6601 6.392 14.8341 6.628 14.6321 6.898ZM9.68014 5.414L11.3751 6.217C11.0238 6.32833 10.6645 6.39633 10.2971 6.421C9.99314 6.421 9.50414 6.331 9.35214 6.027C9.23614 5.787 9.45714 5.569 9.68014 5.414Z" fill="white"/>
<path fill-rule="evenodd" clip-rule="evenodd" d="M9.94788 3.452L5.12388 5.656C4.99752 5.71246 4.88996 5.80391 4.8139 5.91955C4.73785 6.03518 4.69649 6.17017 4.6947 6.30856C4.69291 6.44696 4.73078 6.58297 4.80382 6.70053C4.87686 6.81809 4.98202 6.91229 5.10688 6.972L9.85188 9.254C10.5363 9.58275 11.2862 9.75261 12.0455 9.75088C12.8048 9.74915 13.5539 9.57587 14.2369 9.244L18.8979 6.966C19.0224 6.90676 19.1273 6.81306 19.2002 6.696C19.2731 6.57894 19.3109 6.44344 19.3091 6.30555C19.3073 6.16767 19.266 6.03319 19.1901 5.91806C19.1142 5.80293 19.0069 5.71198 18.8809 5.656L14.1479 3.464C13.4898 3.16011 12.774 3.00173 12.0492 2.99965C11.3244 2.99758 10.6076 3.15187 9.94788 3.452ZM14.9459 7.911L14.4019 7.653C13.6869 7.966 12.7679 8.051 12.1679 8.063L11.9439 7.686L12.0889 7.681C12.6859 7.664 13.3399 7.644 13.8919 7.411L11.8459 6.441C11.2549 6.637 10.6529 6.799 10.0259 6.764C9.59388 6.73 8.96888 6.573 8.73288 6.162C8.59288 5.909 8.71088 5.673 8.90188 5.476C9.00655 5.372 9.11755 5.281 9.23488 5.203L8.62588 4.914L9.07588 4.689L9.67188 4.972C10.2849 4.721 10.9939 4.689 11.6449 4.689L11.6849 4.987H11.6239C11.2639 4.987 10.5759 4.985 10.0999 5.177L11.9069 6.037C12.3189 5.91784 12.7416 5.83914 13.1689 5.802C13.7589 5.757 14.3609 5.802 14.8159 6.005C15.1989 6.173 15.5189 6.555 15.2659 6.977C15.1486 7.15369 14.9973 7.30529 14.8209 7.423L15.3729 7.686L14.9459 7.911ZM3.00488 15.556V8.94C3.00488 8.136 3.84788 7.602 4.58988 7.939L9.47588 10.177C10.0598 10.4428 10.5551 10.8707 10.9029 11.4098C11.2507 11.9488 11.4364 12.5765 11.4379 13.218V19.875C11.4379 20.685 10.5879 21.219 9.84688 20.875L4.95588 18.593C4.37482 18.3259 3.88234 17.8981 3.53662 17.3602C3.1909 16.8222 3.00639 16.1965 3.00488 15.557M8.86288 17.991C8.63788 18.132 8.41288 18.183 8.08688 18.183C7.11388 18.183 6.07388 17.306 5.56788 16.08C5.37204 15.5859 5.25462 15.0643 5.21988 14.534L4.69088 14.309L4.96088 13.775L5.19688 13.876C5.20288 13.606 5.22488 13.331 5.25288 13.061L4.69088 12.819L4.96088 12.29L5.34888 12.46L5.35988 12.38C5.54588 11.447 5.94988 10.874 6.82188 10.874C7.51388 10.874 8.26188 11.38 8.83988 12.144C8.76971 12.4003 8.6658 12.6461 8.53088 12.875C8.18288 12.145 7.65388 11.638 7.04688 11.638C6.39488 11.638 6.07388 12.038 5.91688 12.701L8.23888 13.696L7.96888 14.23L5.80988 13.302C5.77588 13.567 5.75388 13.842 5.75388 14.118L7.74988 14.978L7.47988 15.506L5.79888 14.781C5.84388 15.118 5.92188 15.456 6.05188 15.759C6.44488 16.732 7.23188 17.44 8.00188 17.44C8.23288 17.44 8.41288 17.395 8.54788 17.317C8.63188 17.457 8.74488 17.687 8.86288 17.991ZM19.4099 7.956C20.1519 7.618 20.9949 8.152 20.9949 8.962V15.579C20.9935 16.2184 20.8091 16.844 20.4636 17.382C20.118 17.9199 19.6258 18.3478 19.0449 18.615L14.1529 20.892C13.9836 20.9722 13.7968 21.0084 13.6098 20.9973C13.4228 20.9862 13.2416 20.9282 13.083 20.8285C12.9244 20.7288 12.7935 20.5907 12.7025 20.427C12.6114 20.2633 12.563 20.0793 12.5619 19.892V13.235C12.5644 12.5943 12.7505 11.9678 13.0983 11.4297C13.446 10.8916 13.9408 10.4645 14.5239 10.199L19.4099 7.956ZM17.8699 10.9L18.5099 10.681L17.0599 14.718V15.072L18.1839 14.51V15.072L17.0599 15.634V16.348L18.1839 15.792V16.354L17.0599 16.916V17.878L16.4969 18.181V17.191L15.3729 17.754V17.192L16.4969 16.63V15.91L15.3729 16.472V15.91L16.4969 15.353V15.072L14.8609 12.368L15.4799 12.008L16.7279 14.145L17.8699 10.9Z" fill="white"/>
</svg>
