<svg width="18" height="18" viewBox="0 0 18 18" fill="none" xmlns="http://www.w3.org/2000/svg">
<path d="M7.5 12C7.875 12.225 8.4 12.375 9 12.375C9.6 12.375 10.125 12.225 10.5 12M11.25 9H11.2575Z" fill="#0A0A0A"/>
<path d="M7.5 12C7.875 12.225 8.4 12.375 9 12.375C9.6 12.375 10.125 12.225 10.5 12M11.25 9H11.2575" stroke="#0A0A0A" stroke-width="1.5" stroke-linecap="round" stroke-linejoin="round"/>
<path d="M14.535 5.10975C15.0608 5.8743 15.4234 6.73905 15.6 7.65C15.8536 7.77283 16.0675 7.96461 16.2171 8.20337C16.3668 8.44213 16.4462 8.71821 16.4462 9C16.4462 9.28179 16.3668 9.55787 16.2171 9.79663C16.0675 10.0354 15.8536 10.2272 15.6 10.35C15.2762 11.8601 14.4444 13.2135 13.2433 14.1844C12.0422 15.1553 10.5444 15.6849 9 15.6849C7.45557 15.6849 5.95784 15.1553 4.75673 14.1844C3.55562 13.2135 2.72378 11.8601 2.4 10.35C2.14639 10.2272 1.93251 10.0354 1.78286 9.79663C1.63321 9.55787 1.55383 9.28179 1.55383 9C1.55383 8.71821 1.63321 8.44213 1.78286 8.20337C1.93251 7.96461 2.14639 7.77283 2.4 7.65C2.7107 6.12788 3.53692 4.75951 4.73927 3.77577C5.94162 2.79203 7.44649 2.25314 9 2.25C10.5 2.25 11.625 3.075 11.625 4.125C11.625 5.175 10.95 6 10.125 6C9.525 6 9 5.7 9 5.25M6.75 9H6.7575" stroke="#0A0A0A" stroke-width="1.5" stroke-linecap="round" stroke-linejoin="round"/>
</svg>
