<svg width="24" height="24" viewBox="0 0 24 24" fill="none" xmlns="http://www.w3.org/2000/svg">
<g clip-path="url(#clip0_86_1087)">
<path d="M3.42836 9.42858V18.8572M9.14208 9.42858V18.8572M14.8575 9.42858V18.8572M20.5712 9.42858V18.8572M22.1312 9.42858H1.86836C0.908362 9.42858 0.496934 8.38286 1.25122 7.88572L11.3826 1.25144C11.5697 1.1414 11.7828 1.08337 11.9998 1.08337C12.2168 1.08337 12.4299 1.1414 12.6169 1.25144L22.7484 7.88572C23.5026 8.38286 23.0912 9.42858 22.1312 9.42858ZM22.2855 18.8572H1.71408C1.48675 18.8572 1.26873 18.9475 1.10798 19.1082C0.947239 19.2689 0.856934 19.487 0.856934 19.7143V22.2857C0.856934 22.5131 0.947239 22.7311 1.10798 22.8918C1.26873 23.0526 1.48675 23.1429 1.71408 23.1429H22.2855C22.5128 23.1429 22.7309 23.0526 22.8916 22.8918C23.0523 22.7311 23.1426 22.5131 23.1426 22.2857V19.7143C23.1426 19.487 23.0523 19.2689 22.8916 19.1082C22.7309 18.9475 22.5128 18.8572 22.2855 18.8572Z" stroke="white" stroke-width="1.5" stroke-linecap="round" stroke-linejoin="round"/>
</g>
<defs>
<clipPath id="clip0_86_1087">
<rect width="24" height="24" fill="white"/>
</clipPath>
</defs>
</svg>
