<svg width="24" height="24" viewBox="0 0 24 24" fill="none" xmlns="http://www.w3.org/2000/svg">
<path d="M6 22H4.4C3.76348 22 3.15303 21.7471 2.70294 21.2971C2.25286 20.847 2 20.2365 2 19.6V18M18 22H19.6C20.2365 22 20.847 21.7471 21.2971 21.2971C21.7471 20.847 22 20.2365 22 19.6V18M22 6V4.4C22 3.76348 21.7471 3.15303 21.2971 2.70294C20.847 2.25286 20.2365 2 19.6 2H18M6 2H4.4C3.76348 2 3.15303 2.25286 2.70294 2.70294C2.25286 3.15303 2 3.76348 2 4.4V6M18 9V15M14 9V15M10 9V15M6 9V15" stroke="#0A0A0A" stroke-width="1.5" stroke-miterlimit="10" stroke-linecap="round" stroke-linejoin="round"/>
</svg>
