<svg width="24" height="24" viewBox="0 0 24 24" fill="none" xmlns="http://www.w3.org/2000/svg">
<path fill-rule="evenodd" clip-rule="evenodd" d="M14.5202 9.066C12.4364 9.66208 10.2273 9.66243 8.14324 9.067C7.23379 10.0618 6.46956 11.1802 5.87324 12.389C5.24324 13.688 4.95324 14.884 5.00624 15.829C5.05624 16.688 5.37724 17.356 6.13624 17.881C6.98424 18.468 8.56624 18.999 11.3562 18.999C12.5612 18.999 13.5382 18.898 14.3272 18.735L16.0932 20.318C14.8842 20.751 13.3272 20.998 11.3562 20.998C-0.624763 20.998 2.57624 12.019 6.87024 7.5L5.03624 4.8C5.40071 4.56861 5.78136 4.36375 6.17524 4.187C6.3819 4.09167 6.6049 3.99667 6.84424 3.902C8.04624 3.429 9.64424 3 11.3562 3C12.9832 3 14.4972 3.387 15.6662 3.832C15.7229 3.852 15.7782 3.873 15.8322 3.895C16.6422 4.215 17.2722 4.557 17.6362 4.8L15.7902 7.5C17.4622 9.209 18.9842 11.657 19.4922 14H17.4322C17.2663 13.4233 17.0487 12.8627 16.7822 12.325C16.192 11.1337 15.4302 10.0353 14.5212 9.065M13.5312 7.258C12.0819 7.59564 10.5744 7.5953 9.12524 7.257L8.86324 6.871C9.78124 6.957 10.7372 6.919 11.6342 6.66C12.5367 6.39723 13.4527 6.18358 14.3782 6.02L13.5312 7.258ZM15.5012 4.946C14.4532 4.91 12.9302 5.009 11.5132 5.169C11.2302 5.201 10.9352 5.256 10.6332 5.312C9.55124 5.512 8.39524 5.727 7.50124 4.946C8.07324 4.799 9.65024 4.507 11.4382 4.499H11.5132C13.3322 4.499 14.9302 4.797 15.5012 4.946Z" fill="white"/>
<path d="M15.7104 18.632L16.7104 17.515L17.6034 18.315V15H19.1034V18.314L19.9955 17.514L20.9955 18.631L18.3544 21L15.7104 18.632Z" fill="white"/>
<path fill-rule="evenodd" clip-rule="evenodd" d="M10.7502 18V17.477C10.3816 17.4196 10.0353 17.2637 9.74807 17.0257C9.46079 16.7877 9.24317 16.4765 9.11821 16.125C9.0835 16.0317 9.0677 15.9325 9.07173 15.833C9.07576 15.7336 9.09955 15.6359 9.1417 15.5458C9.18385 15.4556 9.24352 15.3748 9.31724 15.3079C9.39096 15.241 9.47725 15.1895 9.57108 15.1563C9.66491 15.1231 9.76441 15.109 9.86378 15.1146C9.96314 15.1203 10.0604 15.1457 10.1498 15.1893C10.2393 15.2329 10.3192 15.2939 10.3848 15.3687C10.4505 15.4435 10.5006 15.5306 10.5322 15.625C10.5722 15.741 10.6502 15.839 10.7502 15.905V14.852C10.2632 14.7771 9.81906 14.5303 9.49821 14.1563C9.17736 13.7823 9.00098 13.3058 9.00098 12.813C9.00098 12.3202 9.17736 11.8437 9.49821 11.4697C9.81906 11.0957 10.2632 10.8489 10.7502 10.774V10.25H12.2502V10.774C13.0102 10.889 13.6332 11.42 13.8822 12.125C13.9169 12.2183 13.9327 12.3175 13.9287 12.417C13.9247 12.5164 13.9009 12.6141 13.8587 12.7042C13.8166 12.7944 13.7569 12.8752 13.6832 12.9421C13.6095 13.009 13.5232 13.0605 13.4293 13.0937C13.3355 13.1269 13.236 13.141 13.1366 13.1354C13.0373 13.1297 12.94 13.1043 12.8506 13.0607C12.7611 13.0171 12.6812 12.9561 12.6156 12.8813C12.55 12.8065 12.4999 12.7194 12.4682 12.625C12.4278 12.5105 12.3513 12.4122 12.2502 12.345V13.398C12.7379 13.4723 13.1829 13.7188 13.5044 14.093C13.8259 14.4672 14.0027 14.9442 14.0027 15.4375C14.0027 15.9308 13.8259 16.4078 13.5044 16.782C13.1829 17.1562 12.7379 17.4027 12.2502 17.477V18H10.7502ZM12.5002 15.438C12.5002 15.632 12.4002 15.804 12.2502 15.905V14.97C12.4002 15.07 12.5002 15.243 12.5002 15.438ZM10.5002 12.811C10.5002 12.617 10.6002 12.445 10.7502 12.344V13.279C10.6732 13.2278 10.6101 13.1584 10.5665 13.0769C10.5229 12.9954 10.5001 12.9044 10.5002 12.812" fill="white"/>
</svg>
