<svg width="18" height="18" viewBox="0 0 18 18" fill="none" xmlns="http://www.w3.org/2000/svg">
<g clip-path="url(#clip0_664_887)">
<path d="M9 3.375C9.77665 3.375 10.4062 2.7454 10.4062 1.96875C10.4062 1.1921 9.77665 0.5625 9 0.5625C8.22335 0.5625 7.59375 1.1921 7.59375 1.96875C7.59375 2.7454 8.22335 3.375 9 3.375Z" stroke="#0A0A0A" stroke-width="1.5" stroke-miterlimit="10"/>
<path d="M7.00664 10.3929L5.93789 16.4468C5.91868 16.556 5.92117 16.6679 5.94523 16.7762C5.96929 16.8844 6.01445 16.9868 6.07811 17.0776C6.14178 17.1683 6.22271 17.2457 6.31628 17.3051C6.40985 17.3646 6.51423 17.4051 6.62344 17.4242C6.73223 17.4435 6.84378 17.4411 6.95163 17.417C7.05948 17.393 7.16148 17.3477 7.25173 17.284C7.34197 17.2202 7.41867 17.1392 7.47738 17.0456C7.53609 16.952 7.57565 16.8476 7.59375 16.7386L8.33203 12.5234V12.5304C8.33203 12.5304 8.51484 11.3878 8.94727 11.3878H9.05625C9.4957 11.3878 9.67148 12.5304 9.67148 12.5304V12.5269L10.4098 16.7421C10.4489 16.9617 10.5737 17.1567 10.7567 17.2843C10.9396 17.4119 11.1658 17.4616 11.3854 17.4224C11.6049 17.3833 11.8 17.2585 11.9275 17.0755C12.0551 16.8925 12.1048 16.6664 12.0656 16.4468L10.9969 10.3929L10.8246 9.34878C10.7227 8.71245 10.677 7.67534 10.8422 7.24995C10.9828 6.88433 11.3389 6.75073 11.6578 6.75073H14.9062C15.13 6.75073 15.3446 6.66184 15.5029 6.5036C15.6611 6.34537 15.75 6.13076 15.75 5.90698C15.75 5.68321 15.6611 5.46859 15.5029 5.31036C15.3446 5.15213 15.13 5.06323 14.9062 5.06323H3.09375C2.86997 5.06323 2.65536 5.15213 2.49713 5.31036C2.33889 5.46859 2.25 5.68321 2.25 5.90698C2.25 6.13076 2.33889 6.34537 2.49713 6.5036C2.65536 6.66184 2.86997 6.75073 3.09375 6.75073H6.3457C6.6702 6.75073 7.0207 6.88433 7.16133 7.24995C7.32656 7.67534 7.28086 8.71245 7.17891 9.34878L7.00664 10.3929Z" stroke="#0A0A0A" stroke-width="1.5" stroke-miterlimit="10"/>
</g>
<defs>
<clipPath id="clip0_664_887">
<rect width="18" height="18" fill="white"/>
</clipPath>
</defs>
</svg>
