<svg width="24" height="24" viewBox="0 0 24 24" fill="none" xmlns="http://www.w3.org/2000/svg">
<path d="M12 4.5C13.0355 4.5 13.875 3.66053 13.875 2.625C13.875 1.58947 13.0355 0.75 12 0.75C10.9645 0.75 10.125 1.58947 10.125 2.625C10.125 3.66053 10.9645 4.5 12 4.5Z" stroke="#0A0A0A" stroke-width="1.5" stroke-miterlimit="10"/>
<path d="M9.34219 13.8572L7.91719 21.9291C7.89157 22.0747 7.89489 22.2239 7.92698 22.3682C7.95906 22.5125 8.01926 22.6491 8.10415 22.7701C8.18904 22.8911 8.29695 22.9942 8.42171 23.0735C8.54647 23.1528 8.68564 23.2067 8.83125 23.2322C8.97631 23.258 9.12504 23.2548 9.26884 23.2227C9.41264 23.1906 9.54864 23.1303 9.66897 23.0453C9.7893 22.9603 9.89157 22.8522 9.96985 22.7274C10.0481 22.6026 10.1009 22.4635 10.125 22.3182L11.1094 16.6979V16.7072C11.1094 16.7072 11.3531 15.1838 11.9297 15.1838H12.075C12.6609 15.1838 12.8953 16.7072 12.8953 16.7072V16.7025L13.8797 22.3229C13.9319 22.6156 14.0983 22.8757 14.3422 23.0458C14.5862 23.2159 14.8877 23.2821 15.1805 23.2299C15.4732 23.1777 15.7333 23.0113 15.9034 22.7673C16.0735 22.5234 16.1397 22.2219 16.0875 21.9291L14.6625 13.8572L14.4328 12.465C14.2969 11.6166 14.2359 10.2338 14.4562 9.6666C14.6437 9.1791 15.1186 9.00098 15.5438 9.00098H19.875C20.1734 9.00098 20.4595 8.88245 20.6705 8.67147C20.8815 8.46049 21 8.17435 21 7.87598C21 7.57761 20.8815 7.29146 20.6705 7.08048C20.4595 6.8695 20.1734 6.75098 19.875 6.75098H4.125C3.82663 6.75098 3.54048 6.8695 3.3295 7.08048C3.11853 7.29146 3 7.57761 3 7.87598C3 8.17435 3.11853 8.46049 3.3295 8.67147C3.54048 8.88245 3.82663 9.00098 4.125 9.00098H8.46094C8.89359 9.00098 9.36094 9.1791 9.54844 9.6666C9.76875 10.2338 9.70781 11.6166 9.57187 12.465L9.34219 13.8572Z" stroke="#0A0A0A" stroke-width="1.5" stroke-miterlimit="10"/>
</svg>
