<svg width="24" height="24" viewBox="0 0 24 24" fill="none" xmlns="http://www.w3.org/2000/svg">
<path d="M9.75 18V14.5H8.25V10.9C8.25 10.5167 8.51267 10.1877 9.038 9.913C9.56333 9.63833 10.2173 9.50067 11 9.5C11.7827 9.49933 12.437 9.637 12.963 9.913C13.489 10.189 13.7513 10.518 13.75 10.9V14.5H12.25V18H9.75ZM11 9C10.5667 9 10.2083 8.85833 9.925 8.575C9.64167 8.29167 9.5 7.93333 9.5 7.5C9.5 7.06667 9.64167 6.70833 9.925 6.425C10.2083 6.14167 10.5667 6 11 6C11.4333 6 11.7917 6.14167 12.075 6.425C12.3583 6.70833 12.5 7.06667 12.5 7.5C12.5 7.93333 12.3583 8.29167 12.075 8.575C11.7917 8.85833 11.4333 9 11 9ZM11 21C8.5 21 6.375 20.125 4.625 18.375C2.875 16.625 2 14.5 2 12C2 10.75 2.23767 9.57933 2.713 8.488C3.18833 7.39667 3.82967 6.44667 4.637 5.638C5.44433 4.82933 6.39433 4.18767 7.487 3.713C8.57967 3.23833 9.75067 3.00067 11 3C12.2493 2.99933 13.4203 3.237 14.513 3.713C15.6057 4.189 16.5557 4.83033 17.363 5.637C18.1703 6.44367 18.812 7.39367 19.288 8.487C19.764 9.58034 20.0013 10.7513 20 12V12.2L21.125 11.05C21.225 10.95 21.3333 10.875 21.45 10.825C21.5667 10.775 21.6877 10.75 21.813 10.75C21.9383 10.75 22.0633 10.775 22.188 10.825C22.3127 10.875 22.425 10.95 22.525 11.05C22.725 11.25 22.825 11.4873 22.825 11.762C22.825 12.0367 22.725 12.2743 22.525 12.475L19.7 15.3C19.5 15.5 19.2667 15.6 19 15.6C18.7333 15.6 18.5 15.5 18.3 15.3L15.45 12.45C15.25 12.25 15.1543 12.0167 15.163 11.75C15.1717 11.4833 15.2757 11.25 15.475 11.05C15.675 10.8667 15.9083 10.771 16.175 10.763C16.4417 10.755 16.675 10.8507 16.875 11.05L18 12.175V12C18 10.0667 17.3167 8.41667 15.95 7.05C14.5833 5.68333 12.9333 5 11 5C9.06667 5 7.41667 5.68333 6.05 7.05C4.68333 8.41667 4 10.0667 4 12C4.01667 13.9333 4.704 15.5833 6.062 16.95C7.42 18.3167 9.066 19 11 19C11.7833 19 12.521 18.8833 13.213 18.65C13.905 18.4167 14.5423 18.0833 15.125 17.65C15.3583 17.4833 15.6083 17.4 15.875 17.4C16.1417 17.4 16.3667 17.4917 16.55 17.675C16.75 17.875 16.8543 18.1167 16.863 18.4C16.8717 18.6833 16.759 18.9167 16.525 19.1C15.7583 19.7 14.9083 20.1667 13.975 20.5C13.0417 20.8333 12.05 21 11 21Z" fill="white"/>
</svg>
