<svg width="18" height="18" viewBox="0 0 18 18" fill="none" xmlns="http://www.w3.org/2000/svg">
<path d="M10.875 7.50003C10.875 6.90678 11.6647 6.74928 11.874 7.30503C12.381 8.64753 12.75 9.85053 12.75 10.5C12.75 11.4946 12.3549 12.4484 11.6517 13.1517C10.9484 13.8549 9.99456 14.25 9 14.25C8.00544 14.25 7.05161 13.8549 6.34835 13.1517C5.64509 12.4484 5.25 11.4946 5.25 10.5C5.25 9.80253 5.676 8.46678 6.2415 7.00278C6.97275 5.10678 7.33875 4.15878 7.791 4.10778C7.935 4.09128 8.09325 4.12053 8.22225 4.18803C8.625 4.39803 8.625 5.43228 8.625 7.50003C8.625 7.7984 8.74353 8.08455 8.9545 8.29552C9.16548 8.5065 9.45163 8.62503 9.75 8.62503C10.0484 8.62503 10.3345 8.5065 10.5455 8.29552C10.7565 8.08455 10.875 7.7984 10.875 7.50003Z" stroke="#0A0A0A" stroke-width="1.5"/>
<path d="M8.25 14.2501L8.05275 13.7573C7.88443 13.3378 7.83066 12.881 7.89695 12.4339C7.96324 11.9867 8.14721 11.5652 8.43 11.2126C8.49836 11.127 8.58509 11.058 8.68376 11.0106C8.78243 10.9631 8.89052 10.9385 9 10.9385C9.10948 10.9385 9.21757 10.9631 9.31624 11.0106C9.41491 11.058 9.50164 11.127 9.57 11.2126C10.1445 11.9311 10.2885 12.9031 9.94725 13.7573L9.75 14.2501" stroke="#0A0A0A" stroke-width="1.5"/>
</svg>
