<svg width="24" height="24" viewBox="0 0 24 24" fill="none" xmlns="http://www.w3.org/2000/svg">
<path d="M14.5 9.99999C14.5 9.20899 15.553 8.99899 15.832 9.73999C16.508 11.53 17 13.134 17 14C17 15.3261 16.4732 16.5978 15.5355 17.5355C14.5979 18.4732 13.3261 19 12 19C10.6739 19 9.40215 18.4732 8.46447 17.5355C7.52678 16.5978 7 15.3261 7 14C7 13.07 7.568 11.289 8.322 9.33699C9.297 6.80899 9.785 5.54499 10.388 5.47699C10.58 5.45499 10.791 5.49399 10.963 5.58399C11.5 5.86399 11.5 7.24299 11.5 9.99999C11.5 10.3978 11.658 10.7793 11.9393 11.0606C12.2206 11.342 12.6022 11.5 13 11.5C13.3978 11.5 13.7794 11.342 14.0607 11.0606C14.342 10.7793 14.5 10.3978 14.5 9.99999Z" stroke="white" stroke-width="1.5"/>
<path d="M11.0002 19L10.7372 18.343C10.5127 17.7836 10.441 17.1746 10.5294 16.5784C10.6178 15.9822 10.8631 15.4202 11.2402 14.95C11.3313 14.836 11.447 14.7439 11.5785 14.6806C11.7101 14.6174 11.8542 14.5845 12.0002 14.5845C12.1461 14.5845 12.2902 14.6174 12.4218 14.6806C12.5534 14.7439 12.669 14.836 12.7602 14.95C13.5262 15.908 13.7182 17.204 13.2632 18.343L13.0002 19" stroke="white" stroke-width="1.5"/>
</svg>
