<svg width="24" height="24" viewBox="0 0 24 24" fill="none" xmlns="http://www.w3.org/2000/svg">
<g clip-path="url(#clip0_141_4527)">
<path d="M0.856934 22.7829H13.7141M11.9998 22.7829V18.4971H2.57122V22.7829M13.3489 1.71771L7.20322 7.86342C6.88184 8.1849 6.7013 8.62086 6.7013 9.07542C6.7013 9.52999 6.88184 9.96595 7.20322 10.2874L9.91865 13.0029C10.2401 13.3242 10.6761 13.5048 11.1306 13.5048C11.5852 13.5048 12.0212 13.3242 12.3426 13.0029L18.4884 6.85714C18.8097 6.53566 18.9903 6.0997 18.9903 5.64514C18.9903 5.19057 18.8097 4.75461 18.4884 4.43314L15.7712 1.71771C15.4497 1.39633 15.0138 1.21579 14.5592 1.21579C14.1047 1.21579 13.6687 1.39633 13.3472 1.71771M15.4284 9.92571L23.1426 17.64" stroke="#0A0A0A" stroke-width="1.5" stroke-linecap="round" stroke-linejoin="round"/>
</g>
<defs>
<clipPath id="clip0_141_4527">
<rect width="24" height="24" fill="white"/>
</clipPath>
</defs>
</svg>
