<svg width="24" height="24" viewBox="0 0 24 24" fill="none" xmlns="http://www.w3.org/2000/svg">
<g clip-path="url(#clip0_86_1146)">
<path d="M8.50009 13C6.71259 13.439 4.78909 14.053 3.50709 14.485C2.57509 14.7985 1.87009 15.567 1.71459 16.538C1.66749 16.8322 1.62731 17.1274 1.59409 17.4235C1.49159 18.3435 2.14409 19.1185 3.06559 19.204C4.55309 19.3425 7.28359 19.5 12.0006 19.5C16.7171 19.5 19.4476 19.3425 20.9351 19.204C21.8571 19.1185 22.5091 18.344 22.4066 17.4235C22.3735 17.1274 22.3335 16.8322 22.2866 16.538C22.1306 15.567 21.4256 14.798 20.4936 14.4845C19.2121 14.053 17.2886 13.4395 15.5006 13H8.50009Z" stroke="white" stroke-width="1.5" stroke-linecap="round" stroke-linejoin="round"/>
<path d="M3.08182 19.205C3.06715 19.421 3.05499 19.6358 3.04532 19.8495C3.01576 20.4407 3.21777 21.0201 3.60846 21.4647C3.99916 21.9094 4.54776 22.1843 5.13782 22.231C6.67932 22.362 9.01282 22.5 12.0003 22.5C14.9883 22.5 17.3213 22.362 18.8628 22.231C19.4529 22.1843 20.0015 21.9094 20.3922 21.4647C20.7829 21.0201 20.9849 20.4407 20.9553 19.8495C20.9453 19.6358 20.9333 19.4212 20.9193 19.2055M15.4588 13C15.6728 11.103 15.9823 8.447 16.3073 4.512C16.4258 3.075 15.4873 1.767 14.0533 1.613C13.3715 1.53926 12.6862 1.50154 12.0003 1.5C11.2588 1.5 10.5618 1.547 9.94732 1.613C8.51382 1.767 7.57482 3.075 7.69382 4.512C8.01882 8.447 8.32782 11.1035 8.54182 13" stroke="white" stroke-width="1.5" stroke-linecap="round" stroke-linejoin="round"/>
</g>
<defs>
<clipPath id="clip0_86_1146">
<rect width="24" height="24" fill="white"/>
</clipPath>
</defs>
</svg>
