<svg width="18" height="18" viewBox="0 0 18 18" fill="none" xmlns="http://www.w3.org/2000/svg">
<path d="M8.25 7.5V10.5H11.25" fill="#0A0A0A"/>
<path d="M8.25 7.5V10.5H11.25" stroke="#0A0A0A" stroke-width="1.5" stroke-linecap="round" stroke-linejoin="round"/>
<path d="M8.25 10.5L9.40125 9.29625C9.83178 8.88248 10.3549 8.5775 10.9271 8.40669C11.4993 8.23588 12.1039 8.20417 12.6908 8.31422C13.2778 8.42426 13.8299 8.67287 14.3013 9.03936C14.7728 9.40585 15.1499 9.87962 15.4012 10.4213M12 1.5V4.5M15.75 13.5L14.5988 14.7037C14.1682 15.1175 13.6451 15.4225 13.0729 15.5933C12.5007 15.7641 11.8961 15.7958 11.3092 15.6858C10.7222 15.5757 10.1701 15.3271 9.69868 14.9606C9.22724 14.5942 8.85014 14.1204 8.59875 13.5787" stroke="#0A0A0A" stroke-width="1.5" stroke-linecap="round" stroke-linejoin="round"/>
<path d="M15.75 16.5V13.5H12.75M15.75 6.375V4.5C15.75 4.10218 15.592 3.72064 15.3107 3.43934C15.0294 3.15804 14.6478 3 14.25 3H3.75C3.35218 3 2.97064 3.15804 2.68934 3.43934C2.40804 3.72064 2.25 4.10218 2.25 4.5V15C2.25 15.3978 2.40804 15.7794 2.68934 16.0607C2.97064 16.342 3.35218 16.5 3.75 16.5H6.975M2.25 7.5H5.25M6 1.5V4.5" stroke="#0A0A0A" stroke-width="1.5" stroke-linecap="round" stroke-linejoin="round"/>
</svg>
