<svg width="24" height="24" viewBox="0 0 24 24" fill="none" xmlns="http://www.w3.org/2000/svg">
<path d="M12.7498 3.94C13.7498 3.22 14.9098 2.86 16.2198 2.86C16.9398 2.86 17.7298 3.05 18.5898 3.45C19.4498 3.84 20.1298 4.3 20.6298 4.83C21.6598 6.11 22.0898 7.6 21.9398 9.3C21.7798 11 21.2198 12.33 20.2498 13.27L12.6598 20.86C12.4698 21.05 12.2298 21.14 11.9498 21.14C11.6698 21.14 11.4398 21.05 11.2498 20.86C11.1573 20.769 11.0847 20.6598 11.0366 20.5393C10.9884 20.4188 10.9656 20.2897 10.9698 20.16C10.9698 19.88 11.0598 19.64 11.2498 19.45L15.8398 14.86C16.0898 14.64 16.0898 14.41 15.8398 14.16C15.5898 13.91 15.3598 13.91 15.1398 14.16L10.5498 18.75C10.4572 18.8432 10.3464 18.9162 10.2242 18.9644C10.102 19.0126 9.97108 19.035 9.8398 19.03C9.5598 19.03 9.3298 18.94 9.1398 18.75C9.04735 18.659 8.97474 18.5498 8.92655 18.4293C8.87836 18.3088 8.85564 18.1797 8.8598 18.05C8.8598 17.77 8.9498 17.53 9.1398 17.34L13.7298 12.75C13.9998 12.5 13.9998 12.25 13.7298 12C13.4998 11.75 13.2798 11.75 13.0298 12L8.4398 16.64C8.3462 16.7318 8.23514 16.8039 8.11318 16.852C7.99123 16.9001 7.86086 16.9232 7.7298 16.92C7.4498 16.92 7.2098 16.83 6.9998 16.64C6.7998 16.45 6.6998 16.22 6.6998 15.94C6.6998 15.66 6.8098 15.41 7.0298 15.19L11.6298 10.59C11.8798 10.34 11.8798 10.11 11.6298 9.89C11.3798 9.67 11.1398 9.67 10.9198 9.89L6.2798 14.5C6.0598 14.7 5.8298 14.81 5.5798 14.81C5.2998 14.81 5.0598 14.71 4.8798 14.5C4.6898 14.3 4.5898 14.06 4.5898 13.78C4.5898 13.5 4.6898 13.27 4.8798 13.08C7.9398 10 9.8298 8.14 10.5498 7.45L14.1098 10.97C14.4998 11.34 14.9498 11.53 15.4998 11.53C16.1998 11.53 16.7498 11.25 17.1598 10.69C17.4398 10.28 17.5398 9.83 17.4598 9.33C17.3798 8.83 17.1698 8.41 16.8298 8.06L12.7498 3.94ZM14.8098 10.27L10.5498 6L3.4698 13.08C2.6298 12.23 2.1498 10.93 2.0398 9.16C1.9298 7.4 2.4098 5.87 3.4698 4.59C4.6598 3.41 6.0798 2.81 7.7298 2.81C9.3898 2.81 10.7998 3.41 11.9498 4.59L16.2198 8.86C16.4098 9.05 16.4998 9.28 16.4998 9.56C16.4998 9.84 16.4098 10.08 16.2198 10.27C16.0298 10.45 15.7998 10.55 15.4998 10.55C15.2298 10.55 14.9998 10.45 14.8098 10.27Z" fill="white"/>
</svg>
