<svg width="18" height="18" viewBox="0 0 18 18" fill="none" xmlns="http://www.w3.org/2000/svg">
<g clip-path="url(#clip0_664_1817)">
<path d="M2.57143 7.0714V14.1428M6.85672 7.0714V14.1428M11.1433 7.0714V14.1428M15.4286 7.0714V14.1428M16.5986 7.0714H1.40143C0.681432 7.0714 0.37286 6.28712 0.938575 5.91426L8.53715 0.938546C8.67744 0.856018 8.83724 0.8125 9 0.8125C9.16277 0.8125 9.32257 0.856018 9.46286 0.938546L17.0614 5.91426C17.6271 6.28712 17.3186 7.0714 16.5986 7.0714ZM16.7143 14.1428H1.28572C1.11522 14.1428 0.951708 14.2106 0.831149 14.3311C0.71059 14.4517 0.64286 14.6152 0.64286 14.7857V16.7143C0.64286 16.8848 0.71059 17.0483 0.831149 17.1688C0.951708 17.2894 1.11522 17.3571 1.28572 17.3571H16.7143C16.8848 17.3571 17.0483 17.2894 17.1689 17.1688C17.2894 17.0483 17.3571 16.8848 17.3571 16.7143V14.7857C17.3571 14.6152 17.2894 14.4517 17.1689 14.3311C17.0483 14.2106 16.8848 14.1428 16.7143 14.1428Z" stroke="#0A0A0A" stroke-width="1.5" stroke-linecap="round" stroke-linejoin="round"/>
</g>
<defs>
<clipPath id="clip0_664_1817">
<rect width="18" height="18" fill="white"/>
</clipPath>
</defs>
</svg>
