<svg width="18" height="18" viewBox="0 0 18 18" fill="none" xmlns="http://www.w3.org/2000/svg">
<path d="M13.125 12.5C13.8282 12.5 14.4576 12.9117 14.7402 13.54L14.792 13.6689C14.8676 13.8855 14.8995 14.1147 14.8867 14.3438C14.8738 14.5738 14.816 14.7993 14.7158 15.0068C14.6155 15.2144 14.475 15.4005 14.3027 15.5537C14.1305 15.7069 13.9298 15.825 13.7119 15.9004L13.707 15.9014C12.8151 16.2199 11.8106 15.7448 11.4893 14.834L11.3711 14.5H6.64355L6.52246 14.8242C6.32964 15.3362 5.94448 15.7288 5.45898 15.9004C5.01975 16.0545 4.53743 16.0293 4.11719 15.8291C3.7494 15.6538 3.45512 15.3572 3.28223 14.9922L3.21582 14.8311C3.14026 14.6148 3.10759 14.3859 3.12012 14.1572C3.13275 13.9273 3.19034 13.7017 3.29004 13.4941C3.38974 13.2866 3.52961 13.1008 3.70117 12.9473C3.87267 12.7938 4.07287 12.6758 4.29004 12.5996C4.72713 12.4465 5.20732 12.4728 5.625 12.6729C6.04268 12.8729 6.36398 13.2304 6.51855 13.667L6.63672 14H11.3643L11.4814 13.665C11.7261 12.9659 12.3846 12.5 13.125 12.5ZM13.125 12.625C12.694 12.625 12.2803 12.7958 11.9756 13.1006C11.6708 13.4053 11.5 13.819 11.5 14.25C11.5 14.681 11.6708 15.0947 11.9756 15.3994C12.2803 15.7042 12.694 15.875 13.125 15.875C13.556 15.875 13.9697 15.7042 14.2744 15.3994C14.5792 15.0947 14.75 14.681 14.75 14.25C14.75 13.819 14.5792 13.4053 14.2744 13.1006C13.9697 12.7958 13.556 12.625 13.125 12.625ZM4.875 2C6.47386 2 7.75 3.27614 7.75 4.875C7.75 5.40563 7.57023 6.03904 7.2666 6.7168C6.96594 7.38791 6.55991 8.06691 6.14746 8.67871C5.73606 9.28891 5.32358 9.82372 5.01367 10.2061C4.96531 10.2657 4.91786 10.3203 4.875 10.3721C4.83214 10.3203 4.78469 10.2657 4.73633 10.2061C4.42642 9.82372 4.01394 9.28891 3.60254 8.67871C3.19009 8.06691 2.78406 7.38791 2.4834 6.7168C2.17977 6.03904 2 5.40563 2 4.875C2 3.27614 3.27614 2 4.875 2ZM13.125 2C14.7239 2 16 3.27614 16 4.875C16 5.40563 15.8202 6.03904 15.5166 6.7168C15.2159 7.38791 14.8099 8.06691 14.3975 8.67871C13.9861 9.28891 13.5736 9.82372 13.2637 10.2061C13.2153 10.2657 13.1679 10.3203 13.125 10.3721C13.0821 10.3203 13.0347 10.2657 12.9863 10.2061C12.6764 9.82372 12.2639 9.28891 11.8525 8.67871C11.4401 8.06691 11.0341 7.38791 10.7334 6.7168C10.4298 6.03904 10.25 5.40563 10.25 4.875C10.25 3.27614 11.5261 2 13.125 2ZM4.875 3.16797C4.42214 3.16797 3.98819 3.34775 3.66797 3.66797C3.34775 3.98819 3.16797 4.42214 3.16797 4.875C3.16797 5.81864 3.93136 6.58203 4.875 6.58203C5.32786 6.58203 5.76181 6.40225 6.08203 6.08203C6.40225 5.76181 6.58203 5.32786 6.58203 4.875C6.58203 3.99039 5.91118 3.26421 5.0498 3.17676L4.875 3.16797ZM13.125 3.16797C12.9008 3.16797 12.6788 3.21204 12.4717 3.29785C12.2645 3.38366 12.0765 3.50942 11.918 3.66797C11.7594 3.82651 11.6337 4.01453 11.5479 4.22168C11.462 4.42884 11.418 4.65077 11.418 4.875C11.418 5.32786 11.5978 5.76181 11.918 6.08203C12.2382 6.40225 12.6721 6.58203 13.125 6.58203C13.5779 6.58203 14.0118 6.40225 14.332 6.08203C14.6522 5.76181 14.832 5.32786 14.832 4.875C14.832 4.65077 14.788 4.42884 14.7021 4.22168C14.6163 4.01453 14.4906 3.82651 14.332 3.66797C14.1735 3.50942 13.9855 3.38366 13.7783 3.29785C13.5712 3.21204 13.3492 3.16797 13.125 3.16797Z" fill="#0A0A0A" stroke="#0A0A0A"/>
</svg>
