<svg width="24" height="24" viewBox="0 0 24 24" fill="none" xmlns="http://www.w3.org/2000/svg">
<path d="M2 14C2 14.2652 1.89464 14.5196 1.70711 14.7071C1.51957 14.8946 1.26522 15 1 15C0.734784 15 0.48043 14.8946 0.292893 14.7071C0.105357 14.5196 0 14.2652 0 14C0 13.7348 0.105357 13.4804 0.292893 13.2929C0.48043 13.1054 0.734784 13 1 13C1.26522 13 1.51957 13.1054 1.70711 13.2929C1.89464 13.4804 2 13.7348 2 14ZM6.719 10.262C6.55815 10.0996 6.36672 9.97076 6.15578 9.88281C5.94483 9.79485 5.71855 9.74957 5.49 9.74957C5.26145 9.74957 5.03517 9.79485 4.82422 9.88281C4.61328 9.97076 4.42185 10.0996 4.261 10.262C3.93417 10.5911 3.75076 11.0362 3.75076 11.5C3.75076 11.9638 3.93417 12.4089 4.261 12.738C4.42185 12.9004 4.61328 13.0292 4.82422 13.1172C5.03517 13.2052 5.26145 13.2504 5.49 13.2504C5.71855 13.2504 5.94483 13.2052 6.15578 13.1172C6.36672 13.0292 6.55815 12.9004 6.719 12.738C6.86026 12.6012 7.0496 12.5253 7.24626 12.5267C7.44292 12.5281 7.63115 12.6068 7.77041 12.7456C7.90966 12.8845 7.98881 13.0725 7.99079 13.2691C7.99277 13.4658 7.91743 13.6554 7.781 13.797C7.48079 14.0992 7.12378 14.339 6.7305 14.5027C6.33723 14.6664 5.91547 14.7506 5.4895 14.7506C5.06353 14.7506 4.64177 14.6664 4.2485 14.5027C3.85522 14.339 3.49821 14.0992 3.198 13.797C2.59088 13.1867 2.25008 12.3609 2.25008 11.5C2.25008 10.6392 2.59088 9.81331 3.198 9.203C3.49821 8.9008 3.85522 8.66097 4.2485 8.49731C4.64177 8.33365 5.06353 8.24939 5.4895 8.24939C5.91547 8.24939 6.33723 8.33365 6.7305 8.49731C7.12378 8.66097 7.48079 8.9008 7.781 9.203C7.91743 9.34465 7.99277 9.53421 7.99079 9.73086C7.98881 9.92752 7.90966 10.1155 7.77041 10.2544C7.63115 10.3933 7.44292 10.4719 7.24626 10.4733C7.0496 10.4747 6.86026 10.3988 6.719 10.262ZM8.5 11.5C8.5 10.6381 8.84241 9.8114 9.4519 9.20191C10.0614 8.59241 10.888 8.25 11.75 8.25C12.612 8.25 13.4386 8.59241 14.0481 9.20191C14.6576 9.8114 15 10.6381 15 11.5C15 12.362 14.6576 13.1886 14.0481 13.7981C13.4386 14.4076 12.612 14.75 11.75 14.75C10.888 14.75 10.0614 14.4076 9.4519 13.7981C8.84241 13.1886 8.5 12.362 8.5 11.5ZM11.75 9.75C11.2859 9.75 10.8408 9.93438 10.5126 10.2626C10.1844 10.5908 10 11.0359 10 11.5C10 11.9641 10.1844 12.4093 10.5126 12.7374C10.8408 13.0656 11.2859 13.25 11.75 13.25C12.2141 13.25 12.6592 13.0656 12.9874 12.7374C13.3156 12.4093 13.5 11.9641 13.5 11.5C13.5 11.0359 13.3156 10.5908 12.9874 10.2626C12.6592 9.93438 12.2141 9.75 11.75 9.75ZM18 8.25C16.605 8.25 15.5 9.4 15.5 10.786V14C15.5 14.1989 15.579 14.3897 15.7197 14.5303C15.8603 14.671 16.0511 14.75 16.25 14.75C16.4489 14.75 16.6397 14.671 16.7803 14.5303C16.921 14.3897 17 14.1989 17 14V10.786C17 10.199 17.462 9.75 18 9.75C18.538 9.75 19 10.2 19 10.786V14C19 14.1989 19.079 14.3897 19.2197 14.5303C19.3603 14.671 19.5511 14.75 19.75 14.75C19.9489 14.75 20.1397 14.671 20.2803 14.5303C20.421 14.3897 20.5 14.1989 20.5 14V10.786C20.5 10.199 20.962 9.75 21.5 9.75C22.038 9.75 22.5 10.2 22.5 10.786V14C22.5 14.1989 22.579 14.3897 22.7197 14.5303C22.8603 14.671 23.0511 14.75 23.25 14.75C23.4489 14.75 23.6397 14.671 23.7803 14.5303C23.921 14.3897 24 14.1989 24 14V10.786C24 9.4 22.895 8.25 21.5 8.25C20.814 8.25 20.199 8.52801 19.75 8.97501C19.5204 8.74495 19.2476 8.56249 18.9473 8.43808C18.647 8.31367 18.3251 8.24976 18 8.25Z" fill="#0A0A0A"/>
</svg>
