<svg width="18" height="18" viewBox="0 0 18 18" fill="none" xmlns="http://www.w3.org/2000/svg">
<mask id="path-1-inside-1_664_2022" fill="white">
<path fill-rule="evenodd" clip-rule="evenodd" d="M9.44551 17.4433L9.43651 17.4448L9.38326 17.4711L9.36826 17.4741L9.35776 17.4711L9.30451 17.4441C9.29651 17.4421 9.29051 17.4436 9.28651 17.4486L9.28351 17.4561L9.27076 17.7771L9.27451 17.7921L9.28201 17.8018L9.36001 17.8573L9.37126 17.8603L9.38026 17.8573L9.45826 17.8018L9.46726 17.7898L9.47026 17.7771L9.45751 17.4568C9.45551 17.4488 9.45151 17.4443 9.44551 17.4433ZM9.64351 17.3586L9.63301 17.3601L9.49501 17.4298L9.48751 17.4373L9.48526 17.4456L9.49876 17.7681L9.50251 17.7771L9.50851 17.7831L9.65926 17.8521C9.66876 17.8546 9.67601 17.8526 9.68101 17.8461L9.68401 17.8356L9.65851 17.3751C9.65601 17.3656 9.65101 17.3601 9.64351 17.3586ZM9.10726 17.3601C9.10395 17.3581 9.1 17.3574 9.09623 17.3583C9.09246 17.3591 9.08915 17.3614 9.08701 17.3646L9.08251 17.3751L9.05701 17.8356C9.05751 17.8446 9.06176 17.8506 9.06976 17.8536L9.08101 17.8521L9.23176 17.7823L9.23926 17.7763L9.24151 17.7681L9.25501 17.4456L9.25276 17.4366L9.24526 17.4291L9.10726 17.3601Z"/>
</mask>
<path fill-rule="evenodd" clip-rule="evenodd" d="M9.44551 17.4433L9.43651 17.4448L9.38326 17.4711L9.36826 17.4741L9.35776 17.4711L9.30451 17.4441C9.29651 17.4421 9.29051 17.4436 9.28651 17.4486L9.28351 17.4561L9.27076 17.7771L9.27451 17.7921L9.28201 17.8018L9.36001 17.8573L9.37126 17.8603L9.38026 17.8573L9.45826 17.8018L9.46726 17.7898L9.47026 17.7771L9.45751 17.4568C9.45551 17.4488 9.45151 17.4443 9.44551 17.4433ZM9.64351 17.3586L9.63301 17.3601L9.49501 17.4298L9.48751 17.4373L9.48526 17.4456L9.49876 17.7681L9.50251 17.7771L9.50851 17.7831L9.65926 17.8521C9.66876 17.8546 9.67601 17.8526 9.68101 17.8461L9.68401 17.8356L9.65851 17.3751C9.65601 17.3656 9.65101 17.3601 9.64351 17.3586ZM9.10726 17.3601C9.10395 17.3581 9.1 17.3574 9.09623 17.3583C9.09246 17.3591 9.08915 17.3614 9.08701 17.3646L9.08251 17.3751L9.05701 17.8356C9.05751 17.8446 9.06176 17.8506 9.06976 17.8536L9.08101 17.8521L9.23176 17.7823L9.23926 17.7763L9.24151 17.7681L9.25501 17.4456L9.25276 17.4366L9.24526 17.4291L9.10726 17.3601Z" fill="#0A0A0A"/>
<path d="M9.44551 17.4433L9.60991 16.4569L9.44547 16.4295L9.28104 16.4569L9.44551 17.4433ZM9.43651 17.4448L9.27204 16.4584L9.12661 16.4827L8.99436 16.5479L9.43651 17.4448ZM9.38326 17.4711L9.57936 18.4517L9.70787 18.426L9.82541 18.368L9.38326 17.4711ZM9.36826 17.4741L9.09355 18.4356L9.32665 18.5022L9.56436 18.4547L9.36826 17.4741ZM9.35776 17.4711L8.90553 18.363L8.99096 18.4063L9.08305 18.4326L9.35776 17.4711ZM9.30451 17.4441L9.75673 16.5522L9.65629 16.5013L9.54704 16.4739L9.30451 17.4441ZM9.28651 17.4486L8.50564 16.8239L8.41305 16.9396L8.35802 17.0772L9.28651 17.4486ZM9.28351 17.4561L8.35502 17.0847L8.29112 17.2445L8.28429 17.4164L9.28351 17.4561ZM9.27076 17.7771L8.27154 17.7374L8.26586 17.8806L8.30061 18.0196L9.27076 17.7771ZM9.27451 17.7921L8.30436 18.0346L8.35488 18.2367L8.48188 18.4018L9.27451 17.7921ZM9.28201 17.8018L8.48938 18.4115L8.58049 18.53L8.70225 18.6166L9.28201 17.8018ZM9.36001 17.8573L8.78025 18.6721L8.92761 18.777L9.10237 18.8236L9.36001 17.8573ZM9.37126 17.8603L9.11362 18.8266L9.40317 18.9038L9.68746 18.809L9.37126 17.8603ZM9.38026 17.8573L9.69646 18.806L9.83824 18.7588L9.96001 18.6721L9.38026 17.8573ZM9.45826 17.8018L10.038 18.6166L10.1649 18.5264L10.2583 18.4018L9.45826 17.8018ZM9.46726 17.7898L10.2673 18.3898L10.3928 18.2225L10.4407 18.0189L9.46726 17.7898ZM9.47026 17.7771L10.4437 18.0061L10.4749 17.8735L10.4695 17.7373L9.47026 17.7771ZM9.45751 17.4568L10.4567 17.417L10.4526 17.3142L10.4276 17.2143L9.45751 17.4568ZM9.64351 17.3586L9.83962 16.378L9.67169 16.3444L9.50216 16.3686L9.64351 17.3586ZM9.63301 17.3601L9.49166 16.3701L9.32877 16.3934L9.18192 16.4676L9.63301 17.3601ZM9.49501 17.4298L9.04392 16.5374L8.90107 16.6096L8.7879 16.7227L9.49501 17.4298ZM9.48751 17.4373L8.7804 16.7302L8.5926 16.918L8.52273 17.1743L9.48751 17.4373ZM9.48526 17.4456L8.52048 17.1825L8.47964 17.3323L8.48613 17.4874L9.48526 17.4456ZM9.49876 17.7681L8.49963 17.8099L8.50709 17.9881L8.57569 18.1527L9.49876 17.7681ZM9.50251 17.7771L8.57944 18.1617L8.65552 18.3443L8.79536 18.4841L9.50251 17.7771ZM9.50851 17.7831L8.80136 18.4901L8.92864 18.6174L9.09232 18.6924L9.50851 17.7831ZM9.65926 17.8521L9.24307 18.7614L9.32143 18.7972L9.40476 18.8192L9.65926 17.8521ZM9.68101 17.8461L10.4736 18.4558L10.5901 18.3044L10.6425 18.1208L9.68101 17.8461ZM9.68401 17.8356L10.6455 18.1103L10.6918 17.9484L10.6825 17.7803L9.68401 17.8356ZM9.65851 17.3751L10.657 17.3198L10.6514 17.2186L10.6256 17.1206L9.65851 17.3751ZM9.10726 17.3601L8.58897 18.2153L8.62371 18.2363L8.66004 18.2545L9.10726 17.3601ZM9.08701 17.3646L8.25529 16.8094L8.20416 16.886L8.16787 16.9706L9.08701 17.3646ZM9.08251 17.3751L8.16337 16.9811L8.0938 17.1435L8.08404 17.3198L9.08251 17.3751ZM9.05701 17.8356L8.05854 17.7803L8.05547 17.8357L8.05855 17.8911L9.05701 17.8356ZM9.06976 17.8536L8.71863 18.7899L8.95342 18.878L9.20198 18.8448L9.06976 17.8536ZM9.08101 17.8521L9.21323 18.8433L9.36341 18.8233L9.50092 18.7596L9.08101 17.8521ZM9.23176 17.7823L9.65167 18.6899L9.76172 18.639L9.85642 18.5632L9.23176 17.7823ZM9.23926 17.7763L9.86392 18.5572L10.1183 18.3537L10.204 18.0394L9.23926 17.7763ZM9.24151 17.7681L10.2063 18.0311L10.2359 17.9225L10.2406 17.8099L9.24151 17.7681ZM9.25501 17.4456L10.2541 17.4874L10.2602 17.3431L10.2251 17.203L9.25501 17.4456ZM9.25276 17.4366L10.2229 17.194L10.1557 16.9253L9.95986 16.7295L9.25276 17.4366ZM9.24526 17.4291L9.95236 16.722L9.83762 16.6072L9.69247 16.5347L9.24526 17.4291ZM9.44551 17.4433L9.28104 16.4569L9.27204 16.4584L9.43651 17.4448L9.60097 18.4312L9.60997 18.4297L9.44551 17.4433ZM9.43651 17.4448L8.99436 16.5479L8.94111 16.5741L9.38326 17.4711L9.82541 18.368L9.87866 18.3418L9.43651 17.4448ZM9.38326 17.4711L9.18715 16.4905L9.17215 16.4935L9.36826 17.4741L9.56436 18.4547L9.57936 18.4517L9.38326 17.4711ZM9.36826 17.4741L9.64296 16.5126L9.63246 16.5096L9.35776 17.4711L9.08305 18.4326L9.09355 18.4356L9.36826 17.4741ZM9.35776 17.4711L9.80998 16.5792L9.75673 16.5522L9.30451 17.4441L8.85228 18.336L8.90553 18.363L9.35776 17.4711ZM9.30451 17.4441L9.54704 16.4739C9.43484 16.4459 9.25797 16.422 9.05155 16.4735C8.82819 16.5294 8.63926 16.6569 8.50564 16.8239L9.28651 17.4486L10.0674 18.0733C9.93775 18.2353 9.75382 18.3595 9.53646 18.4139C9.33604 18.464 9.16618 18.4403 9.06197 18.4142L9.30451 17.4441ZM9.28651 17.4486L8.35802 17.0772L8.35502 17.0847L9.28351 17.4561L10.212 17.8274L10.215 17.8199L9.28651 17.4486ZM9.28351 17.4561L8.28429 17.4164L8.27154 17.7374L9.27076 17.7771L10.27 17.8168L10.2827 17.4958L9.28351 17.4561ZM9.27076 17.7771L8.30061 18.0196L8.30436 18.0346L9.27451 17.7921L10.2446 17.5495L10.2409 17.5345L9.27076 17.7771ZM9.27451 17.7921L8.48188 18.4018L8.48938 18.4115L9.28201 17.8018L10.0746 17.1921L10.0671 17.1824L9.27451 17.7921ZM9.28201 17.8018L8.70225 18.6166L8.78025 18.6721L9.36001 17.8573L9.93976 17.0425L9.86176 16.987L9.28201 17.8018ZM9.36001 17.8573L9.10237 18.8236L9.11362 18.8266L9.37126 17.8603L9.6289 16.8941L9.61765 16.8911L9.36001 17.8573ZM9.37126 17.8603L9.68746 18.809L9.69646 18.806L9.38026 17.8573L9.06405 16.9086L9.05505 16.9116L9.37126 17.8603ZM9.38026 17.8573L9.96001 18.6721L10.038 18.6166L9.45826 17.8018L8.87851 16.987L8.80051 17.0425L9.38026 17.8573ZM9.45826 17.8018L10.2583 18.4018L10.2673 18.3898L9.46726 17.7898L8.66725 17.1898L8.65825 17.2018L9.45826 17.8018ZM9.46726 17.7898L10.4407 18.0189L10.4437 18.0061L9.47026 17.7771L8.49684 17.5481L8.49384 17.5608L9.46726 17.7898ZM9.47026 17.7771L10.4695 17.7373L10.4567 17.417L9.45751 17.4568L8.4583 17.4966L8.47105 17.8169L9.47026 17.7771ZM9.45751 17.4568L10.4276 17.2143C10.37 16.9839 10.1519 16.5473 9.60991 16.4569L9.44551 17.4433L9.28111 18.4297C9.06122 18.3931 8.85713 18.2823 8.7056 18.1118C8.56821 17.9573 8.51175 17.7969 8.48736 17.6994L9.45751 17.4568ZM9.64351 17.3586L9.50216 16.3686L9.49166 16.3701L9.63301 17.3601L9.77435 18.35L9.78485 18.3485L9.64351 17.3586ZM9.63301 17.3601L9.18192 16.4676L9.04392 16.5374L9.49501 17.4298L9.9461 18.3223L10.0841 18.2526L9.63301 17.3601ZM9.49501 17.4298L8.7879 16.7227L8.7804 16.7302L9.48751 17.4373L10.1946 18.1444L10.2021 18.1369L9.49501 17.4298ZM9.48751 17.4373L8.52273 17.1743L8.52048 17.1825L9.48526 17.4456L10.45 17.7086L10.4523 17.7004L9.48751 17.4373ZM9.48526 17.4456L8.48613 17.4874L8.49963 17.8099L9.49876 17.7681L10.4979 17.7263L10.4844 17.4038L9.48526 17.4456ZM9.49876 17.7681L8.57569 18.1527L8.57944 18.1617L9.50251 17.7771L10.4256 17.3924L10.4218 17.3834L9.49876 17.7681ZM9.50251 17.7771L8.79536 18.4841L8.80136 18.4901L9.50851 17.7831L10.2157 17.076L10.2097 17.07L9.50251 17.7771ZM9.50851 17.7831L9.09232 18.6924L9.24307 18.7614L9.65926 17.8521L10.0754 16.9428L9.92469 16.8738L9.50851 17.7831ZM9.65926 17.8521L9.40476 18.8192C9.52928 18.8519 9.7195 18.8766 9.93772 18.8165C10.1699 18.7524 10.3514 18.6147 10.4736 18.4558L9.68101 17.8461L8.88838 17.2364C9.00565 17.0839 9.18097 16.9505 9.40592 16.8885C9.61689 16.8303 9.79873 16.8547 9.91375 16.885L9.65926 17.8521ZM9.68101 17.8461L10.6425 18.1208L10.6455 18.1103L9.68401 17.8356L8.72248 17.5609L8.71948 17.5714L9.68101 17.8461ZM9.68401 17.8356L10.6825 17.7803L10.657 17.3198L9.65851 17.3751L8.66004 17.4304L8.68554 17.8909L9.68401 17.8356ZM9.65851 17.3751L10.6256 17.1206C10.5588 16.8667 10.3336 16.4768 9.83962 16.378L9.64351 17.3586L9.44739 18.3392C9.24817 18.2993 9.05861 18.1967 8.91297 18.0365C8.77805 17.8881 8.71848 17.7323 8.69143 17.6296L9.65851 17.3751ZM9.10726 17.3601L9.62554 16.5049C9.40178 16.3693 9.13444 16.3254 8.8793 16.3821L9.09623 17.3583L9.31316 18.3345C9.06556 18.3895 8.80612 18.3469 8.58897 18.2153L9.10726 17.3601ZM9.09623 17.3583L8.8793 16.3821C8.62409 16.4388 8.40053 16.5918 8.25529 16.8094L9.08701 17.3646L9.91872 17.9198C9.77778 18.1309 9.56082 18.2794 9.31316 18.3345L9.09623 17.3583ZM9.08701 17.3646L8.16787 16.9706L8.16337 16.9811L9.08251 17.3751L10.0016 17.769L10.0061 17.7585L9.08701 17.3646ZM9.08251 17.3751L8.08404 17.3198L8.05854 17.7803L9.05701 17.8356L10.0555 17.8909L10.081 17.4304L9.08251 17.3751ZM9.05701 17.8356L8.05855 17.8911C8.06687 18.0409 8.11142 18.2369 8.24455 18.4249C8.38015 18.6163 8.55847 18.7299 8.71863 18.7899L9.06976 17.8536L9.42088 16.9173C9.57304 16.9743 9.74523 17.0834 9.87659 17.2688C10.0055 17.4508 10.0476 17.6393 10.0555 17.7801L9.05701 17.8356ZM9.06976 17.8536L9.20198 18.8448L9.21323 18.8433L9.08101 17.8521L8.94879 16.8609L8.93754 16.8624L9.06976 17.8536ZM9.08101 17.8521L9.50092 18.7596L9.65167 18.6899L9.23176 17.7823L8.81184 16.8748L8.66109 16.9445L9.08101 17.8521ZM9.23176 17.7823L9.85642 18.5632L9.86392 18.5572L9.23926 17.7763L8.6146 16.9954L8.6071 17.0014L9.23176 17.7823ZM9.23926 17.7763L10.204 18.0394L10.2063 18.0311L9.24151 17.7681L8.27673 17.505L8.27448 17.5133L9.23926 17.7763ZM9.24151 17.7681L10.2406 17.8099L10.2541 17.4874L9.25501 17.4456L8.25588 17.4038L8.24238 17.7263L9.24151 17.7681ZM9.25501 17.4456L10.2251 17.203L10.2229 17.194L9.25276 17.4366L8.28262 17.6792L8.28487 17.6882L9.25501 17.4456ZM9.25276 17.4366L9.95986 16.7295L9.95236 16.722L9.24526 17.4291L8.53815 18.1362L8.54565 18.1437L9.25276 17.4366ZM9.24526 17.4291L9.69247 16.5347L9.55447 16.4657L9.10726 17.3601L8.66004 18.2545L8.79804 18.3235L9.24526 17.4291Z" fill="#0A0A0A" mask="url(#path-1-inside-1_664_2022)"/>
<path fill-rule="evenodd" clip-rule="evenodd" d="M8.23125 2.25141C8.27516 2.44534 8.24025 2.64878 8.13421 2.81698C8.02816 2.98519 7.85966 3.1044 7.66575 3.14841C7.51858 3.1819 7.37273 3.22092 7.2285 3.26541C7.13439 3.29446 7.03548 3.3047 6.93742 3.29553C6.83936 3.28636 6.74406 3.25796 6.65697 3.21196C6.56988 3.16596 6.4927 3.10326 6.42985 3.02743C6.36699 2.95161 6.31968 2.86414 6.29063 2.77003C6.26157 2.67593 6.25134 2.57702 6.26051 2.47895C6.26968 2.38089 6.29808 2.28559 6.34408 2.1985C6.39008 2.11141 6.45278 2.03423 6.5286 1.97138C6.60443 1.90852 6.69189 1.86121 6.786 1.83216C6.966 1.77616 7.1485 1.72741 7.3335 1.68591C7.42958 1.66406 7.52903 1.66136 7.62615 1.67795C7.72328 1.69455 7.81618 1.73012 7.89955 1.78264C7.98292 1.83516 8.05513 1.90359 8.11204 1.98402C8.16896 2.06445 8.20947 2.15531 8.23125 2.25141ZM9.76875 2.25141C9.81276 2.0575 9.93197 1.889 10.1002 1.78295C10.2684 1.67691 10.4718 1.642 10.6658 1.68591C14.0063 2.44341 16.5008 5.42991 16.5008 8.99991C16.5008 13.1422 13.1423 16.4999 9.00075 16.4999C5.43 16.4999 2.4435 14.0062 1.686 10.6657C1.64712 10.4736 1.68492 10.274 1.7913 10.1095C1.89769 9.94502 2.06423 9.82867 2.25529 9.78537C2.44635 9.74206 2.64678 9.77523 2.8137 9.87779C2.98062 9.98035 3.10079 10.1441 3.1485 10.3342C3.38716 11.3795 3.90158 12.3417 4.63823 13.1208C5.37488 13.8999 6.30684 14.4674 7.33716 14.7642C8.36748 15.061 9.45851 15.0763 10.4967 14.8084C11.535 14.5406 12.4824 13.9994 13.2406 13.2413C13.9988 12.4831 14.5399 11.5356 14.8078 10.4974C15.0756 9.45917 15.0603 8.36814 14.7635 7.33782C14.4667 6.3075 13.8993 5.37553 13.1202 4.63888C12.3411 3.90224 11.3788 3.38782 10.3335 3.14916C10.1396 3.10499 9.97112 2.9856 9.86521 2.81724C9.7593 2.64888 9.7246 2.44535 9.76875 2.25141ZM4.9605 3.53991C5.02758 3.61213 5.07976 3.69686 5.11406 3.78925C5.14837 3.88165 5.16413 3.97991 5.16044 4.0784C5.15674 4.17689 5.13368 4.27369 5.09255 4.36326C5.05142 4.45283 4.99304 4.53341 4.92075 4.60041C4.80975 4.70291 4.703 4.80941 4.6005 4.91991C4.46426 5.06167 4.27779 5.14427 4.08125 5.1499C3.88471 5.15554 3.69382 5.08377 3.54967 4.95005C3.40552 4.81632 3.31965 4.63134 3.31055 4.43493C3.30145 4.23852 3.36984 4.04639 3.501 3.89991C3.6285 3.76191 3.7615 3.62866 3.9 3.50016C3.97222 3.43308 4.05695 3.3809 4.14935 3.3466C4.24175 3.31229 4.34 3.29653 4.43849 3.30023C4.53698 3.30392 4.63378 3.32699 4.72335 3.36811C4.81292 3.40924 4.89351 3.46762 4.9605 3.53991ZM9 4.49991C9.19892 4.49991 9.38968 4.57893 9.53033 4.71958C9.67099 4.86023 9.75 5.051 9.75 5.24991V8.68941L11.7803 10.7197C11.9169 10.8611 11.9925 11.0506 11.9908 11.2472C11.989 11.4439 11.9102 11.632 11.7711 11.771C11.6321 11.9101 11.444 11.989 11.2473 11.9907C11.0507 11.9924 10.8612 11.9168 10.7198 11.7802L8.46975 9.53016C8.32909 9.38954 8.25005 9.1988 8.25 8.99991V5.24991C8.25 5.051 8.32902 4.86023 8.46967 4.71958C8.61033 4.57893 8.80109 4.49991 9 4.49991ZM2.76975 6.29091C2.9598 6.34951 3.11878 6.4812 3.21175 6.65701C3.30472 6.83281 3.32405 7.03835 3.2655 7.22841C3.22102 7.37263 3.18199 7.51849 3.1485 7.66566C3.10079 7.85567 2.98062 8.01947 2.8137 8.12203C2.64678 8.22459 2.44635 8.25776 2.25529 8.21445C2.06423 8.17114 1.89769 8.05479 1.7913 7.89029C1.68492 7.72578 1.64712 7.52617 1.686 7.33416C1.728 7.14916 1.77675 6.96666 1.83225 6.78666C1.89086 6.59661 2.02254 6.43763 2.19835 6.34466C2.37416 6.25169 2.57969 6.23236 2.76975 6.29091Z" fill="#0A0A0A"/>
</svg>
