<svg width="24" height="24" viewBox="0 0 24 24" fill="none" xmlns="http://www.w3.org/2000/svg">
<path fill-rule="evenodd" clip-rule="evenodd" d="M10.9749 3.00201C11.0335 3.26059 10.9869 3.53183 10.8455 3.75611C10.7041 3.98038 10.4795 4.13933 10.2209 4.19801C10.0247 4.24266 9.83022 4.2947 9.63792 4.35401C9.51244 4.39275 9.38056 4.4064 9.24981 4.39417C9.11906 4.38194 8.992 4.34408 8.87588 4.28275C8.75976 4.22141 8.65686 4.13781 8.57305 4.03671C8.48924 3.93561 8.42616 3.81899 8.38742 3.69351C8.34868 3.56803 8.33504 3.43615 8.34726 3.3054C8.35949 3.17465 8.39735 3.04759 8.45869 2.93147C8.52002 2.81535 8.60362 2.71244 8.70472 2.62864C8.80583 2.54483 8.92244 2.48175 9.04792 2.44301C9.28792 2.36834 9.53126 2.30334 9.77792 2.24801C9.90603 2.21888 10.0386 2.21527 10.1681 2.2374C10.2976 2.25953 10.4215 2.30697 10.5327 2.37699C10.6438 2.44701 10.7401 2.53825 10.816 2.64549C10.8919 2.75274 10.9459 2.87388 10.9749 3.00201ZM13.0249 3.00201C13.0836 2.74346 13.2425 2.51879 13.4668 2.3774C13.6911 2.23601 13.9623 2.18947 14.2209 2.24801C18.6749 3.25801 22.0009 7.24001 22.0009 12C22.0009 17.523 17.5229 22 12.0009 22C7.23992 22 3.25792 18.675 2.24792 14.221C2.19608 13.965 2.24647 13.6989 2.38832 13.4795C2.53017 13.2602 2.75222 13.105 3.00697 13.0473C3.26172 12.9895 3.52896 13.0338 3.75152 13.1705C3.97408 13.3073 4.13431 13.5257 4.19792 13.779C4.51614 15.1728 5.20202 16.4558 6.18422 17.4946C7.16642 18.5334 8.40904 19.29 9.7828 19.6857C11.1566 20.0814 12.6113 20.1018 13.9956 19.7447C15.3799 19.3876 16.6432 18.6661 17.6541 17.6552C18.665 16.6443 19.3865 15.381 19.7436 13.9967C20.1007 12.6124 20.0804 11.1576 19.6846 9.78389C19.2889 8.41013 18.5323 7.16751 17.4935 6.18531C16.4547 5.20311 15.1717 4.51723 13.7779 4.19901C13.5193 4.14012 13.2947 3.98093 13.1535 3.75645C13.0123 3.53197 12.9661 3.2606 13.0249 3.00201ZM6.61392 4.72001C6.70335 4.8163 6.77293 4.92927 6.81867 5.05247C6.86441 5.17567 6.88542 5.30667 6.8805 5.438C6.87558 5.56932 6.84482 5.69838 6.78998 5.81781C6.73515 5.93724 6.65731 6.04469 6.56092 6.13401C6.41292 6.27068 6.27059 6.41268 6.13392 6.56001C5.95226 6.74903 5.70364 6.85915 5.44159 6.86667C5.17953 6.87419 4.92501 6.77849 4.73281 6.6002C4.54062 6.4219 4.42612 6.17526 4.41399 5.91337C4.40185 5.65149 4.49304 5.39532 4.66792 5.20001C4.83792 5.01601 5.01526 4.83834 5.19992 4.66701C5.29621 4.57758 5.40919 4.508 5.53238 4.46226C5.65558 4.41652 5.78659 4.39551 5.91791 4.40043C6.04923 4.40536 6.1783 4.43611 6.29772 4.49095C6.41715 4.54578 6.5246 4.62362 6.61392 4.72001ZM11.9999 6.00001C12.2651 6.00001 12.5195 6.10537 12.707 6.2929C12.8946 6.48044 12.9999 6.73479 12.9999 7.00001V11.586L15.7069 14.293C15.8891 14.4816 15.9899 14.7342 15.9876 14.9964C15.9853 15.2586 15.8801 15.5094 15.6947 15.6948C15.5093 15.8802 15.2585 15.9854 14.9963 15.9877C14.7341 15.99 14.4815 15.8892 14.2929 15.707L11.2929 12.707C11.1054 12.5195 11 12.2652 10.9999 12V7.00001C10.9999 6.73479 11.1053 6.48044 11.2928 6.2929C11.4804 6.10537 11.7347 6.00001 11.9999 6.00001ZM3.69292 8.38801C3.94631 8.46615 4.1583 8.64173 4.28225 8.87614C4.40621 9.11055 4.43199 9.3846 4.35392 9.63801C4.29461 9.83031 4.24257 10.0248 4.19792 10.221C4.13431 10.4744 3.97408 10.6928 3.75152 10.8295C3.52896 10.9662 3.26172 11.0105 3.00697 10.9527C2.75222 10.895 2.53017 10.7399 2.38832 10.5205C2.24647 10.3012 2.19608 10.035 2.24792 9.77901C2.30392 9.53234 2.36892 9.28901 2.44292 9.04901C2.52106 8.79562 2.69664 8.58364 2.93105 8.45968C3.16546 8.33572 3.43951 8.30994 3.69292 8.38801Z" fill="#0A0A0A"/>
</svg>
