<svg width="24" height="24" viewBox="0 0 24 24" fill="none" xmlns="http://www.w3.org/2000/svg">
<path d="M9.21695 2.74998H16.4629C16.5503 2.74968 16.6363 2.77116 16.7132 2.81249C16.7902 2.85381 16.8556 2.91368 16.9035 2.98666C16.9515 3.05964 16.9805 3.14343 16.9879 3.23044C16.9953 3.31746 16.9809 3.40494 16.9459 3.48498L14.1109 10.102H18.8899C18.93 10.1024 18.969 10.1142 19.0025 10.1361C19.0361 10.158 19.0626 10.1889 19.0791 10.2254C19.0956 10.2619 19.1014 10.3023 19.0957 10.3419C19.09 10.3815 19.0731 10.4187 19.0469 10.449L9.30095 21.16C9.27435 21.1997 9.23438 21.2287 9.1883 21.2415C9.14221 21.2543 9.09305 21.2502 9.04975 21.2298C9.00645 21.2095 8.97186 21.1743 8.95226 21.1307C8.93267 21.0871 8.92936 21.0378 8.94295 20.992L9.90995 13.252H5.43595C5.34906 13.2532 5.26323 13.2328 5.18614 13.1927C5.10904 13.1526 5.04308 13.094 4.99415 13.0222C4.94522 12.9504 4.91484 12.8676 4.90573 12.7812C4.89662 12.6947 4.90906 12.6074 4.94195 12.527L8.72195 3.07498C8.76202 2.97711 8.83072 2.89362 8.91904 2.83545C9.00737 2.77728 9.1112 2.74814 9.21695 2.74998Z" stroke="white" stroke-width="1.5" stroke-linecap="round" stroke-linejoin="round"/>
</svg>
