<svg width="18" height="18" viewBox="0 0 18 18" fill="none" xmlns="http://www.w3.org/2000/svg">
<path d="M6.91276 2.06258H12.3473C12.4128 2.06235 12.4773 2.07846 12.535 2.10946C12.5927 2.14045 12.6417 2.18535 12.6777 2.24009C12.7137 2.29482 12.7354 2.35766 12.741 2.42292C12.7465 2.48818 12.7357 2.5538 12.7095 2.61383L10.5833 7.57658H14.1675C14.1975 7.57688 14.2268 7.58576 14.252 7.60216C14.2771 7.61856 14.297 7.6418 14.3094 7.66914C14.3218 7.69649 14.3261 7.7268 14.3218 7.75651C14.3175 7.78621 14.3048 7.81408 14.2853 7.83683L6.97576 15.8701C6.95581 15.8999 6.92583 15.9216 6.89127 15.9312C6.8567 15.9408 6.81984 15.9377 6.78736 15.9225C6.75488 15.9072 6.72894 15.8808 6.71424 15.8481C6.69955 15.8154 6.69707 15.7785 6.70726 15.7441L7.43251 9.93908H4.07701C4.01184 9.93996 3.94747 9.92468 3.88965 9.89461C3.83183 9.86454 3.78235 9.82061 3.74566 9.76675C3.70896 9.71289 3.68617 9.65078 3.67934 9.58597C3.67251 9.52115 3.68184 9.45565 3.70651 9.39533L6.54151 2.30633C6.57156 2.23292 6.62308 2.1703 6.68933 2.12668C6.75557 2.08305 6.83345 2.0612 6.91276 2.06258Z" stroke="#0A0A0A" stroke-width="1.5" stroke-linecap="round" stroke-linejoin="round"/>
</svg>
