<svg width="28" height="28" viewBox="0 0 28 28" fill="none" xmlns="http://www.w3.org/2000/svg">
<rect width="28" height="28" rx="4" fill="#FDE047"/>
<path d="M12.2 9.15623C9.14 9.99998 6.8 12.9062 6.8 16.3749V18.2499M12.2 12.625V7.93749C12.2 7.375 12.56 7 13.1 7H14.9C15.44 7 15.8 7.375 15.8 7.93749V12.625M21.2 18.2499V16.3749C21.2 12.9062 18.86 9.99998 15.8 9.15623" stroke="#1E293B" stroke-width="2" stroke-linecap="round" stroke-linejoin="round"/>
<path d="M22.1 18.25H5.9C5.40294 18.25 5 18.6697 5 19.1875V21.0625C5 21.5802 5.40294 22 5.9 22H22.1C22.5971 22 23 21.5802 23 21.0625V19.1875C23 18.6697 22.5971 18.25 22.1 18.25Z" stroke="#1E293B" stroke-width="2" stroke-linecap="round" stroke-linejoin="round"/>
</svg>
