<svg width="20" height="17" viewBox="0 0 20 17" fill="none" xmlns="http://www.w3.org/2000/svg">
<path d="M8.2 3.15623C5.14 3.99998 2.8 6.9062 2.8 10.3749V12.2499M8.2 6.62496V1.93749C8.2 1.375 8.56 1 9.1 1H10.9C11.44 1 11.8 1.375 11.8 1.93749V6.62496M17.2 12.2499V10.3749C17.2 6.9062 14.86 3.99998 11.8 3.15623" stroke="#1E293B" stroke-width="2" stroke-linecap="round" stroke-linejoin="round"/>
<path d="M18.1 12.25H1.9C1.40294 12.25 1 12.6697 1 13.1875V15.0625C1 15.5802 1.40294 16 1.9 16H18.1C18.5971 16 19 15.5802 19 15.0625V13.1875C19 12.6697 18.5971 12.25 18.1 12.25Z" stroke="#1E293B" stroke-width="2" stroke-linecap="round" stroke-linejoin="round"/>
</svg>
