<svg width="24" height="24" viewBox="0 0 24 24" fill="none" xmlns="http://www.w3.org/2000/svg">
<path fill-rule="evenodd" clip-rule="evenodd" d="M2 12C2 17.5229 6.47713 22.0001 12 22.0001C17.5228 22.0001 22 17.5229 22 12C22 6.47723 17.5228 2.00006 12 2.00006C6.47713 2.00006 2 6.47723 2 12ZM3.99997 12C3.99997 16.4183 7.58169 20.0001 12 20.0001C16.4183 20.0001 20 16.4183 20 12C20 7.5818 16.4183 4.00008 12 4.00008C7.58169 4.00008 3.99997 7.5818 3.99997 12M13.869 5.28333C13.6895 5.19558 13.4918 5.12339 13.275 5.07117C13.0662 5.02092 12.8394 4.98605 12.0262 5.00545L12.0149 5.00573C12.0109 5.0062 12.007 5.00662 11.5376 5.09137C11.3915 5.1276 11.2482 5.17412 11.1087 5.23059C10.9746 5.28489 10.845 5.34952 10.7209 5.4239C10.6004 5.49623 10.4861 5.5786 10.3794 5.67014C10.2744 5.76033 10.1776 5.85975 10.0903 5.96719C10.003 6.07472 9.92585 6.19008 9.85977 6.31181C9.79258 6.43565 9.73683 6.56536 9.69322 6.69933C9.66176 6.79585 9.6368 6.89436 9.6185 6.99422C9.60035 7.09324 9.58873 7.19334 9.58372 7.29389C9.57868 7.3944 9.58 7.49513 9.58766 7.59548C9.59539 7.69651 9.60907 7.797 9.62862 7.89642C9.64854 7.99709 9.67405 8.09657 9.70503 8.1944C9.73664 8.29391 9.77343 8.3917 9.81523 8.48737C9.85796 8.58507 9.90548 8.68059 9.95764 8.77359C9.97789 8.80984 9.99894 8.84587 10.0208 8.88169C9.97101 8.93668 9.92226 8.99258 9.87453 9.04936C9.78938 9.15039 9.70815 9.25465 9.63102 9.36192C9.55812 9.46324 9.48971 9.56772 9.42598 9.67505C9.36547 9.77705 9.31009 9.882 9.26005 9.98953C9.21217 10.0926 9.17008 10.1982 9.134 10.3059C9.09911 10.4102 9.0707 10.5166 9.04892 10.6244C9.0276 10.73 9.01316 10.8368 9.0057 10.9442C8.98602 11.2347 9.01832 11.5263 9.10109 11.8054C9.152 11.9775 9.22114 12.1436 9.30631 12.3045C9.38975 12.4621 9.48866 12.6148 9.60092 12.7634C9.71075 12.9089 9.83347 13.0505 9.96687 13.1891C10.0979 13.3252 10.2393 13.4585 10.3888 13.5898C10.5364 13.7193 10.6919 13.8469 10.8531 13.9735C11.0157 14.1006 11.1802 14.2251 11.3465 14.3472C11.5158 14.4714 11.6857 14.5948 11.8562 14.7173L11.9346 14.774L12.0136 14.8311L12.0532 14.8598L12.093 14.8886L12.1731 14.9468L12.254 15.0056L12.3356 15.0653L12.5018 15.1877C12.59 15.2498 12.6748 15.3167 12.7558 15.3879C12.8261 15.4498 12.8927 15.5158 12.9553 15.5856C13.0101 15.6468 13.061 15.7114 13.1075 15.7791C13.148 15.8379 13.1842 15.8996 13.2159 15.9636C13.2432 16.0185 13.2661 16.0756 13.2844 16.1342C13.2999 16.1839 13.311 16.2348 13.3175 16.2865C13.323 16.3316 13.3241 16.3749 13.3207 16.4158C13.3181 16.4509 13.3113 16.4855 13.3006 16.519C13.2903 16.5509 13.2763 16.5816 13.2589 16.6103C13.2407 16.6402 13.2193 16.6681 13.1949 16.6932C13.1674 16.7217 13.1372 16.7473 13.1046 16.7699C13.0666 16.7961 13.0264 16.8191 12.9846 16.8388C12.9357 16.8617 12.8852 16.8811 12.8335 16.8967C12.7738 16.915 12.713 16.9296 12.6515 16.9405C12.5817 16.9529 12.5113 16.9619 12.4406 16.9672C12.3613 16.9733 12.2817 16.9758 12.2022 16.9749C12.0737 16.9706 11.956 16.953 11.8529 16.9248C11.7568 16.8985 11.674 16.8631 11.603 16.8211C11.5399 16.7839 11.4821 16.7385 11.4312 16.6859C11.3867 16.6397 11.3478 16.5885 11.3152 16.5332C11.2861 16.4837 11.2616 16.4315 11.2422 16.3774C11.2259 16.3325 11.2129 16.2864 11.2033 16.2396C11.1967 16.208 11.1918 16.1761 11.1887 16.144L11.1723 15.8688H9.37025C9.3432 16.0579 9.34775 16.2844 9.39069 16.5262C9.417 16.6734 9.45532 16.8181 9.50525 16.9589C9.55873 17.1102 9.62497 17.2566 9.70325 17.3967C9.78633 17.5454 9.88297 17.6861 9.99195 17.8171C10.1076 17.9559 10.2372 18.0826 10.3785 18.1951C10.53 18.3154 10.6942 18.4189 10.8681 18.5036C11.0475 18.5914 11.2452 18.6635 11.4619 18.7157C11.6754 18.7672 11.9076 18.7993 12.1597 18.8075L12.1915 18.8078L12.2332 18.8082C12.4004 18.8085 12.5675 18.799 12.7336 18.7799C12.8904 18.7618 13.0459 18.7336 13.1991 18.6956C13.3452 18.6594 13.4885 18.6128 13.628 18.5564C13.762 18.502 13.8917 18.4374 14.0157 18.3631C14.1363 18.2908 14.2505 18.2084 14.3572 18.1168C14.4622 18.0266 14.559 17.9273 14.6463 17.8199C14.7336 17.7123 14.8108 17.5969 14.8769 17.4752C14.9441 17.3513 14.9999 17.2216 15.0435 17.0876C15.0751 16.9911 15.1 16.8926 15.1183 16.7927C15.1364 16.6937 15.1479 16.5937 15.153 16.4931C15.158 16.3926 15.1567 16.2918 15.1491 16.1915C15.1413 16.0905 15.1277 15.99 15.1081 15.8905C15.0882 15.7899 15.0626 15.6904 15.0317 15.5926C15.0001 15.4931 14.9633 15.3953 14.9215 15.2996C14.8788 15.2019 14.8312 15.1064 14.7791 15.0134C14.7587 14.9769 14.7376 14.9409 14.7159 14.9053C14.7657 14.8503 14.8145 14.7944 14.8622 14.7376C14.9473 14.6366 15.0285 14.5323 15.1057 14.4251C15.1786 14.3238 15.247 14.2193 15.3107 14.112C15.3712 14.01 15.4266 13.905 15.4767 13.7975C15.5245 13.6944 15.5666 13.5888 15.6027 13.481C15.6376 13.3767 15.666 13.2704 15.6878 13.1626C15.7092 13.057 15.7236 12.9502 15.731 12.8428C15.7384 12.736 15.7386 12.6292 15.7318 12.5227C15.7202 12.3393 15.6879 12.1578 15.6356 11.9816C15.5847 11.8095 15.5156 11.6434 15.4304 11.4825C15.347 11.3249 15.248 11.1722 15.1358 11.0235C15.026 10.8781 14.9032 10.7365 14.7698 10.5979C14.6388 10.4617 14.4974 10.3285 14.3479 10.1972C14.2003 10.0677 14.0449 9.94008 13.8836 9.81351C13.721 9.68643 13.5565 9.56184 13.3902 9.43978C13.223 9.31664 13.0523 9.19359 12.8805 9.06965L12.8021 9.01298L12.7626 8.98448L12.7231 8.95589L12.5233 8.81086L12.3598 8.69133L12.2348 8.59917C12.1467 8.53708 12.0619 8.47028 11.9809 8.39906C11.9106 8.33715 11.844 8.27116 11.7815 8.20144C11.7266 8.14027 11.6758 8.07565 11.6293 8.00798C11.5888 7.94914 11.5525 7.88749 11.5208 7.82348C11.4936 7.76846 11.4707 7.71138 11.4523 7.65276C11.4368 7.60308 11.4257 7.55212 11.4192 7.50047C11.4138 7.45758 11.4127 7.41425 11.416 7.37114C11.4187 7.33607 11.4255 7.30143 11.4361 7.26792C11.4466 7.23567 11.4605 7.2053 11.4777 7.1768C11.4958 7.14716 11.5171 7.11961 11.5412 7.09467C11.5684 7.06648 11.5984 7.04107 11.6307 7.01883C11.6687 6.99268 11.7087 6.96978 11.7505 6.95039C11.7995 6.92757 11.85 6.90824 11.9017 6.89255C11.9616 6.87433 12.0225 6.85967 12.0842 6.84862C12.1544 6.83596 12.2252 6.8268 12.2963 6.82116C12.3761 6.81478 12.4562 6.81176 12.5363 6.81211C12.6631 6.81637 12.7809 6.83395 12.884 6.86212C12.9803 6.88842 13.0631 6.92386 13.1342 6.96591C13.1973 7.00305 13.2551 7.04852 13.3061 7.10109C13.3506 7.14731 13.3895 7.1986 13.4221 7.2539C13.4513 7.3034 13.4757 7.3555 13.4952 7.40953C13.5134 7.45997 13.5257 7.50694 13.5341 7.54734C13.5422 7.58672 13.5465 7.61967 13.5487 7.64301L13.565 7.91822H15.3672C15.3942 7.7287 15.3896 7.50253 15.3467 7.26075C15.3204 7.11364 15.2821 6.96894 15.2321 6.82809C15.1786 6.67682 15.1124 6.53035 15.0341 6.39028C14.951 6.24154 14.8543 6.1008 14.7453 5.96986C14.6296 5.831 14.5 5.70433 14.3586 5.59181C14.2071 5.4715 14.0429 5.36806 13.869 5.28333ZM10.8582 10.9429C10.8711 10.8951 11.033 10.6537 11.344 10.2188L11.402 10.2622L11.4837 10.3217L11.6465 10.4397L11.8081 10.5565C12.0829 10.7547 12.3538 10.9502 12.6064 11.143C12.8538 11.3319 13.0833 11.5181 13.2805 11.7019C13.4671 11.876 13.6243 12.047 13.7364 12.2165C13.831 12.3594 13.8937 12.4994 13.9027 12.639C13.9068 12.7041 13.898 12.7724 13.8785 12.8441C13.8561 12.9272 13.8196 13.014 13.7708 13.1044C13.7177 13.2029 13.6504 13.3052 13.5696 13.4112C13.5407 13.4491 13.5111 13.4864 13.4807 13.5232L13.423 13.5888C13.3925 13.5669 13.367 13.5483 13.3419 13.53L13.335 13.5249L13.253 13.4653L13.0902 13.3472L12.9287 13.2304C12.6538 13.0322 12.3829 12.8368 12.1303 12.644C11.8829 12.4551 11.6534 12.2689 11.4562 12.0851C11.2696 11.911 11.1125 11.74 11.0003 11.5705C10.9057 11.4275 10.843 11.2876 10.834 11.148C10.8299 11.0829 10.8387 11.0145 10.8582 10.9429Z" fill="#0A0A0A"/>
</svg>
