<svg width="18" height="18" viewBox="0 0 18 18" fill="none" xmlns="http://www.w3.org/2000/svg">
<path d="M3.75 4.5C3.75 4.89782 3.90804 5.27936 4.18934 5.56066C4.47064 5.84196 4.85218 6 5.25 6C5.64782 6 6.02936 5.84196 6.31066 5.56066C6.59196 5.27936 6.75 4.89782 6.75 4.5C6.75 4.10218 6.59196 3.72064 6.31066 3.43934C6.02936 3.15804 5.64782 3 5.25 3C4.85218 3 4.47064 3.15804 4.18934 3.43934C3.90804 3.72064 3.75 4.10218 3.75 4.5Z" fill="#0A0A0A" stroke="#0A0A0A" stroke-width="1.5" stroke-linecap="round" stroke-linejoin="round"/>
<path d="M2.25 11.25C2.25 11.25 2.712 7.09199 3.999 5.30249M6.47775 5.33399C8.5155 7.81874 10.8893 15 12.75 15C14.25 15 15.25 12.75 15.75 8.24999" stroke="#0A0A0A" stroke-width="1.5" stroke-linecap="round" stroke-linejoin="round"/>
</svg>
