<svg width="24" height="24" viewBox="0 0 24 24" fill="none" xmlns="http://www.w3.org/2000/svg">
<path d="M5 6C5 6.53043 5.21071 7.03914 5.58579 7.41421C5.96086 7.78929 6.46957 8 7 8C7.53043 8 8.03914 7.78929 8.41421 7.41421C8.78929 7.03914 9 6.53043 9 6C9 5.46957 8.78929 4.96086 8.41421 4.58579C8.03914 4.21071 7.53043 4 7 4C6.46957 4 5.96086 4.21071 5.58579 4.58579C5.21071 4.96086 5 5.46957 5 6Z" stroke="white" stroke-width="1.5" stroke-linecap="round" stroke-linejoin="round"/>
<path d="M3 15C3 15 3.616 9.45601 5.332 7.07001M8.637 7.11201C11.354 10.425 14.519 20 17 20C19 20 20.3333 17 21 11" stroke="white" stroke-width="1.5" stroke-linecap="round" stroke-linejoin="round"/>
</svg>
