<svg width="24" height="24" viewBox="0 0 24 24" fill="none" xmlns="http://www.w3.org/2000/svg">
<g clip-path="url(#clip0_141_4135)">
<path d="M21.4286 0.857117V17.1428M1.71436 23.1428V10.2857M1.71436 10.2857C1.71436 8.46706 2.4368 6.72292 3.72277 5.43696C5.00873 4.15099 6.75287 3.42855 8.5715 3.42855C10.3901 3.42855 12.1343 4.15099 13.4202 5.43696C14.7062 6.72292 15.4286 8.46706 15.4286 10.2857V23.1428M1.71436 10.2857V3.42855M20.5715 22.2857C20.5715 22.513 20.6618 22.731 20.8225 22.8918C20.9833 23.0525 21.2013 23.1428 21.4286 23.1428C21.656 23.1428 21.874 23.0525 22.0347 22.8918C22.1955 22.731 22.2858 22.513 22.2858 22.2857C22.2858 22.0584 22.1955 21.8403 22.0347 21.6796C21.874 21.5189 21.656 21.4285 21.4286 21.4285C21.2013 21.4285 20.9833 21.5189 20.8225 21.6796C20.6618 21.8403 20.5715 22.0584 20.5715 22.2857Z" stroke="#0A0A0A" stroke-width="1.5" stroke-linecap="round" stroke-linejoin="round"/>
</g>
<defs>
<clipPath id="clip0_141_4135">
<rect width="24" height="24" fill="white"/>
</clipPath>
</defs>
</svg>
