<svg width="18" height="18" viewBox="0 0 18 18" fill="none" xmlns="http://www.w3.org/2000/svg">
<path d="M13 15.5H14.5V15.6924L14.7305 15.5H16V16H13V16.5576L12.0303 15.75L13 14.9424V15.5ZM4.5 2H10.293L14.5 6.20703V9.25781C14.4181 9.25278 14.3347 9.25 14.25 9.25C14.1653 9.25 14.0819 9.25278 14 9.25781V6.25H10.25V2.5H4V15.5H9.41406C9.45811 15.6707 9.51032 15.8375 9.57129 16H4.5C3.94364 16 3.5 15.5564 3.5 15V3C3.5 2.73478 3.60543 2.48051 3.79297 2.29297C3.98051 2.10543 4.23478 2 4.5 2ZM16.4688 12.75L15.5 13.5576V13H14V12.8076L13.7695 13H12.5V12.5H15.5V11.9424L16.4688 12.75Z" stroke="#0A0A0A"/>
</svg>
