<svg width="17" height="22" viewBox="0 0 17 22" fill="none" xmlns="http://www.w3.org/2000/svg">
<path d="M5.97556 1H3.5C2.83696 1 2.20107 1.26339 1.73223 1.73223C1.26339 2.20107 1 2.83696 1 3.5V18.5C1 19.163 1.26339 19.7989 1.73223 20.2678C2.20107 20.7366 2.83696 21 3.5 21H13.5C14.163 21 14.7989 20.7366 15.2678 20.2678C15.7366 19.7989 16 19.163 16 18.5V11M5.97556 1C7.35667 1 8.5 2.11889 8.5 3.5V6C8.5 6.66304 8.76339 7.29893 9.23223 7.76777C9.70107 8.23661 10.337 8.5 11 8.5H13.5C14.163 8.5 14.7989 8.76339 15.2678 9.23223C15.7366 9.70107 16 10.337 16 11M5.97556 1C10.0756 1 16 6.95556 16 11" stroke="#1E293B" stroke-width="2" stroke-linecap="round" stroke-linejoin="round"/>
</svg>
