<svg width="28" height="28" viewBox="0 0 28 28" fill="none" xmlns="http://www.w3.org/2000/svg">
<rect width="28" height="28" rx="4" fill="#FDE047"/>
<path d="M11.9756 4H9.5C8.83696 4 8.20107 4.26339 7.73223 4.73223C7.26339 5.20107 7 5.83696 7 6.5V21.5C7 22.163 7.26339 22.7989 7.73223 23.2678C8.20107 23.7366 8.83696 24 9.5 24H19.5C20.163 24 20.7989 23.7366 21.2678 23.2678C21.7366 22.7989 22 22.163 22 21.5V14M11.9756 4C13.3567 4 14.5 5.11889 14.5 6.5V9C14.5 9.66304 14.7634 10.2989 15.2322 10.7678C15.7011 11.2366 16.337 11.5 17 11.5H19.5C20.163 11.5 20.7989 11.7634 21.2678 12.2322C21.7366 12.7011 22 13.337 22 14M11.9756 4C16.0756 4 22 9.95556 22 14" stroke="#1E293B" stroke-width="2" stroke-linecap="round" stroke-linejoin="round"/>
</svg>
