<svg width="28" height="28" viewBox="0 0 28 28" fill="none" xmlns="http://www.w3.org/2000/svg">
<rect width="28" height="28" rx="4" fill="#FDE047"/>
<path d="M7.75371 16.9284L5.87739 15.0489L4 16.9284M20.8944 12.0798L22.7707 13.9604L24.6481 12.0798" stroke="#1E293B" stroke-width="2" stroke-linecap="round" stroke-linejoin="round"/>
<path d="M22.7707 13.9604C22.7707 11.7156 21.8812 9.56503 20.2971 7.97777C19.5133 7.19236 18.5823 6.56924 17.5573 6.14407C16.5324 5.71891 15.4337 5.50004 14.324 5.5C13.2462 5.49915 12.1783 5.70661 11.1792 6.11097C10.0638 6.55817 9.05666 7.23812 8.22494 8.10545C7.39322 8.97277 6.75606 10.0075 6.35598 11.1406M5.87737 15.0479C5.879 17.0116 6.56284 18.9138 7.81194 20.4291C9.05968 21.9426 10.7957 22.9741 12.7215 23.3465C14.6473 23.7189 16.6427 23.4088 18.3647 22.4695C20.0866 21.5284 21.4284 20.0186 22.1608 18.198" stroke="#1E293B" stroke-width="2" stroke-linecap="round" stroke-linejoin="round"/>
<path d="M11.7615 16.5812C11.8166 17.2098 12.1157 17.7918 12.5946 18.2027C13.0736 18.6136 13.6943 18.8206 14.324 18.7794C16.3909 18.7794 16.8865 17.5903 16.8865 16.5812C16.8865 15.5721 16.032 14.5026 14.324 14.5026C12.616 14.5026 11.7615 13.8271 11.7615 12.4505C11.7852 11.9735 11.9537 11.5151 12.2444 11.1362C12.5352 10.7573 12.9344 10.4759 13.389 10.3296C13.6908 10.2322 14.0085 10.1972 14.324 10.2269C14.9545 10.1995 15.5715 10.4147 16.0481 10.8283C16.5248 11.2419 16.8248 11.8225 16.8865 12.4505M14.324 20.0607V18.9478M14.324 8.94141V10.2226" stroke="#1E293B" stroke-width="2" stroke-linecap="round" stroke-linejoin="round"/>
</svg>
