<svg width="23" height="20" viewBox="0 0 23 20" fill="none" xmlns="http://www.w3.org/2000/svg">
<path d="M4.75371 12.4284L2.87739 10.5489L1 12.4284M17.8944 7.57983L19.7707 9.4604L21.6481 7.57983" stroke="#1E293B" stroke-width="2" stroke-linecap="round" stroke-linejoin="round"/>
<path d="M19.7707 9.46042C19.7707 7.2156 18.8812 5.06503 17.2971 3.47777C16.5133 2.69236 15.5823 2.06924 14.5573 1.64407C13.5324 1.21891 12.4337 1.00004 11.324 1C10.2462 0.999147 9.1783 1.20661 8.17916 1.61097C7.06381 2.05817 6.05666 2.73812 5.22494 3.60545C4.39322 4.47277 3.75606 5.50752 3.35598 6.64063M2.87737 10.5479C2.879 12.5116 3.56284 14.4138 4.81194 15.9291C6.05968 17.4426 7.79565 18.4741 9.72148 18.8465C11.6473 19.2189 13.6427 18.9088 15.3647 17.9695C17.0866 17.0284 18.4284 15.5186 19.1608 13.698" stroke="#1E293B" stroke-width="2" stroke-linecap="round" stroke-linejoin="round"/>
<path d="M8.76153 12.0812C8.81664 12.7098 9.11569 13.2918 9.59463 13.7027C10.0736 14.1136 10.6943 14.3206 11.324 14.2794C13.3909 14.2794 13.8865 13.0903 13.8865 12.0812C13.8865 11.0721 13.032 10.0026 11.324 10.0026C9.61604 10.0026 8.76153 9.32706 8.76153 7.95052C8.78524 7.47352 8.95367 7.01506 9.24441 6.63617C9.53516 6.25728 9.93441 5.97594 10.389 5.82959C10.6908 5.73218 11.0085 5.69723 11.324 5.72688C11.9545 5.69948 12.5715 5.91472 13.0481 6.32833C13.5248 6.74194 13.8248 7.32247 13.8865 7.95052M11.324 15.5607V14.4478M11.324 4.44141V5.72265" stroke="#1E293B" stroke-width="2" stroke-linecap="round" stroke-linejoin="round"/>
</svg>
