<svg width="24" height="24" viewBox="0 0 24 24" fill="none" xmlns="http://www.w3.org/2000/svg">
<path d="M5.795 14.306L4.023 12.531L2.25 14.306M18.205 9.72699L19.977 11.503L21.75 9.72699" stroke="white" stroke-width="1.5" stroke-linecap="round" stroke-linejoin="round"/>
<path d="M19.9769 11.503C19.9769 9.383 19.137 7.352 17.641 5.853C16.9007 5.11126 16.0214 4.52279 15.0535 4.12126C14.0855 3.71974 13.0479 3.51304 11.9999 3.513C10.982 3.5122 9.97353 3.70812 9.02995 4.09C7.97661 4.51234 7.02546 5.15448 6.23999 5.97358C5.45451 6.79268 4.85278 7.76989 4.47495 8.84M4.02295 12.53C4.02449 14.3846 4.6703 16.181 5.84995 17.612C7.02831 19.0413 8.66776 20.0155 10.4865 20.3672C12.3053 20.7189 14.1897 20.426 15.8159 19.539C17.4421 18.6502 18.7093 17.2243 19.4009 15.505" stroke="white" stroke-width="1.5" stroke-linecap="round" stroke-linejoin="round"/>
<path d="M9.58008 13.978C9.63213 14.5717 9.91454 15.1213 10.3669 15.5094C10.8192 15.8974 11.4054 16.0929 12.0001 16.054C13.9521 16.054 14.4201 14.931 14.4201 13.978C14.4201 13.025 13.6131 12.015 12.0001 12.015C10.3871 12.015 9.58008 11.377 9.58008 10.077C9.60247 9.62652 9.76154 9.19356 10.0361 8.83573C10.3107 8.47791 10.6877 8.21221 11.1171 8.074C11.4021 7.982 11.7021 7.949 12.0001 7.977C12.5955 7.95112 13.1782 8.1544 13.6283 8.54501C14.0785 8.93562 14.3618 9.48387 14.4201 10.077M12.0001 17.264V16.213M12.0001 6.763V7.973" stroke="white" stroke-width="1.5" stroke-linecap="round" stroke-linejoin="round"/>
</svg>
