<svg width="24" height="24" viewBox="0 0 24 24" fill="none" xmlns="http://www.w3.org/2000/svg">
<path d="M0.856934 6.00002C3.00375 4.97227 5.33618 4.38916 7.71408 4.28573C11.1426 4.28573 12.8569 6.85716 16.2855 6.85716C18.6634 6.75374 20.9958 6.17063 23.1426 5.14287L19.7141 3.42859M0.856934 12.8572C3.00375 11.8294 5.33618 11.2463 7.71408 11.1429C11.1426 11.1429 12.8569 13.7143 16.2855 13.7143C18.6634 13.6109 20.9958 13.0278 23.1426 12L19.7141 10.2857M0.856934 19.7143C3.00375 18.6866 5.33618 18.1034 7.71408 18C11.1426 18 12.8569 20.5714 16.2855 20.5714C18.6634 20.468 20.9958 19.8849 23.1426 18.8572L19.7141 17.1429" stroke="#0A0A0A" stroke-width="1.5" stroke-linecap="round" stroke-linejoin="round"/>
</svg>
