<svg width="18" height="18" viewBox="0 0 18 18" fill="none" xmlns="http://www.w3.org/2000/svg">
<g clip-path="url(#clip0_656_400)">
<path d="M0.642853 4.5001C2.25296 3.72929 4.00229 3.29196 5.78571 3.21439C8.35714 3.21439 9.64285 5.14296 12.2143 5.14296C13.9977 5.06539 15.747 4.62806 17.3571 3.85725L14.7857 2.57153M0.642853 9.64296C2.25296 8.87215 4.00229 8.43482 5.78571 8.35725C8.35714 8.35725 9.64285 10.2858 12.2143 10.2858C13.9977 10.2083 15.747 9.77092 17.3571 9.0001L14.7857 7.71439M0.642853 14.7858C2.25296 14.015 4.00229 13.5777 5.78571 13.5001C8.35714 13.5001 9.64285 15.4287 12.2143 15.4287C13.9977 15.3511 15.747 14.9138 17.3571 14.143L14.7857 12.8572" stroke="#0A0A0A" stroke-width="1.5" stroke-linecap="round" stroke-linejoin="round"/>
</g>
<defs>
<clipPath id="clip0_656_400">
<rect width="18" height="18" fill="white"/>
</clipPath>
</defs>
</svg>
