<svg width="24" height="24" viewBox="0 0 24 24" fill="none" xmlns="http://www.w3.org/2000/svg">
<path d="M7.6559 5.29756C7.69472 5.23975 7.74188 5.19609 7.79374 5.16998C7.8456 5.14386 7.90077 5.13598 7.95498 5.14695C8.00919 5.15792 8.061 5.18743 8.10639 5.23322C8.15179 5.27901 8.18956 5.33984 8.21678 5.41102L10.1049 10.369L6.20876 16.2132C6.14251 16.3127 6.08997 16.4308 6.05416 16.5608C6.01834 16.6908 5.99993 16.8301 6 16.9707C6.00007 17.1113 6.0186 17.2506 6.05454 17.3805C6.09048 17.5104 6.14313 17.6284 6.20948 17.7278C6.27582 17.8271 6.35457 17.9059 6.44122 17.9597C6.52786 18.0134 6.62072 18.041 6.71448 18.0409C6.80824 18.0408 6.90107 18.013 6.98767 17.9591C7.07427 17.9052 7.15294 17.8262 7.21919 17.7267L10.8399 12.2956L12.5354 16.7462C12.6716 17.1033 12.8608 17.4085 13.0884 17.638C13.316 17.8676 13.5758 18.0153 13.8476 18.0698C14.1195 18.1242 14.396 18.0839 14.6558 17.952C14.9155 17.8201 15.1515 17.6002 15.3454 17.3093L15.7822 16.6563C15.916 16.4553 15.991 16.1829 15.9909 15.8988C15.9908 15.6148 15.9154 15.3425 15.7814 15.1418C15.7151 15.0424 15.6363 14.9636 15.5497 14.9098C15.463 14.8561 15.3702 14.8285 15.2764 14.8286C15.0871 14.8288 14.9055 14.9418 14.7717 15.1428L14.3364 15.7958C14.2977 15.8541 14.2506 15.8982 14.1986 15.9247C14.1467 15.9513 14.0913 15.9595 14.0369 15.9487C13.9825 15.9379 13.9305 15.9085 13.8849 15.8627C13.8394 15.8168 13.8014 15.7558 13.7741 15.6844L11.886 10.7265L15.7822 4.88226C15.8503 4.78352 15.9047 4.66541 15.9421 4.53482C15.9795 4.40423 15.9991 4.26378 16 4.12165C16.0008 3.97953 15.9827 3.83859 15.9469 3.70704C15.911 3.5755 15.858 3.45599 15.791 3.35549C15.724 3.25499 15.6443 3.17551 15.5566 3.12169C15.4689 3.06787 15.375 3.04079 15.2802 3.04202C15.1855 3.04326 15.0918 3.07279 15.0048 3.12888C14.9177 3.18498 14.839 3.26652 14.7732 3.36875L11.151 8.79981L9.45555 4.34707C9.31936 3.99001 9.13012 3.68485 8.90253 3.4553C8.67494 3.22576 8.41514 3.07802 8.1433 3.02356C7.87146 2.96909 7.59491 3.00937 7.33514 3.14127C7.07537 3.27317 6.83937 3.49313 6.64547 3.78406L6.20876 4.43912C6.14251 4.53864 6.08997 4.65676 6.05416 4.78673C6.01834 4.91671 5.99993 5.05599 6 5.19663C6.00013 5.48067 6.07548 5.75299 6.20948 5.9537C6.34347 6.1544 6.52512 6.26704 6.71448 6.26684C6.90384 6.26664 7.08539 6.15361 7.21919 5.95263L7.6559 5.29756Z" fill="#0A0A0A"/>
</svg>
