<svg width="18" height="18" viewBox="0 0 18 18" fill="none" xmlns="http://www.w3.org/2000/svg">
<path d="M10.698 13.779C10.9357 13.0552 11.0542 12.6938 11.2965 12.4448C11.4115 12.3272 11.545 12.2294 11.6917 12.1553C12 12 12.375 12 13.125 12C13.875 12 14.25 12 14.559 12.1553C14.706 12.2293 14.8377 12.3258 14.9542 12.4448C15.1965 12.6938 15.3142 13.0552 15.552 13.779L15.7965 14.5253C16.092 15.4268 16.2397 15.8767 16.0192 16.1887C15.798 16.5 15.3315 16.5 14.3977 16.5H11.853C10.9192 16.5 10.452 16.5 10.2315 16.1887C10.0102 15.8767 10.158 15.4268 10.4535 14.5253L10.698 13.779ZM6.573 7.779C6.81 7.05525 6.92925 6.69375 7.17075 6.44475C7.28725 6.32575 7.419 6.22925 7.566 6.15525C7.875 6 8.25 6 9 6C9.75 6 10.125 6 10.434 6.15525C10.581 6.22925 10.7127 6.32575 10.8292 6.44475C11.0707 6.69375 11.1892 7.05525 11.427 7.779L11.6715 8.52525C11.967 9.42675 12.114 9.87675 11.8942 10.1888C11.673 10.5 11.2065 10.5 10.272 10.5H7.728C6.7935 10.5 6.327 10.5 6.1065 10.1888C5.88525 9.87675 6.033 9.42675 6.3285 8.52525L6.573 7.779ZM2.448 13.779C2.68575 13.0552 2.80425 12.6938 3.0465 12.4448C3.162 12.3258 3.29375 12.2293 3.44175 12.1553C3.75 12 4.125 12 4.875 12C5.625 12 6 12 6.309 12.1553C6.456 12.2293 6.58775 12.3258 6.70425 12.4448C6.9465 12.6938 7.06425 13.0552 7.302 13.779L7.5465 14.5253C7.842 15.4268 7.98975 15.8767 7.76925 16.1887C7.548 16.5 7.0815 16.5 6.14775 16.5H3.603C2.66925 16.5 2.202 16.5 1.9815 16.1887C1.76025 15.8767 1.908 15.4268 2.2035 14.5253L2.448 13.779Z" stroke="#0A0A0A" stroke-width="1.5"/>
<path d="M9 1.5V3M5.625 2.625L6.75 3.75M12.375 2.625L11.25 3.75" stroke="#0A0A0A" stroke-width="1.5" stroke-linecap="round"/>
</svg>
