<svg width="18" height="18" viewBox="0 0 18 18" fill="none" xmlns="http://www.w3.org/2000/svg">
<path d="M6.27356 10.6572C6.35314 10.9532 6.34811 11.178 6.29993 11.3477C6.25164 11.5176 6.15168 11.6657 5.9884 11.7949C5.64326 12.0678 5.0166 12.25 4.12512 12.25C3.2345 12.25 2.62712 12.0681 2.29114 11.7979C2.00663 11.5689 1.85285 11.2254 1.97961 10.6484L4.12415 5.55859L6.27356 10.6572ZM16.0236 10.6572C16.1031 10.9532 16.0981 11.178 16.0499 11.3477C16.0016 11.5176 15.9017 11.6657 15.7384 11.7949C15.3933 12.0678 14.7666 12.25 13.8751 12.25C12.9845 12.25 12.3771 12.0681 12.0411 11.7979C11.7566 11.5689 11.6028 11.2254 11.7296 10.6484L13.8741 5.55859L16.0236 10.6572ZM3.66125 7.50195L2.53625 10.3145L2.26184 11H5.9884L5.71399 10.3145L4.58899 7.50195L4.12512 6.34082L3.66125 7.50195ZM13.4113 7.50195L12.2863 10.3145L12.0118 11H15.7384L15.464 10.3145L14.339 7.50195L13.8751 6.34082L13.4113 7.50195ZM9.00012 3.25C8.66863 3.25 8.35075 3.38183 8.11633 3.61621C7.88191 3.85063 7.75012 4.16848 7.75012 4.5C7.75012 4.83152 7.88191 5.14937 8.11633 5.38379C8.35075 5.61817 8.66863 5.75 9.00012 5.75C9.3316 5.74997 9.64952 5.61818 9.88391 5.38379C10.1183 5.14937 10.2501 4.83149 10.2501 4.5C10.2501 4.16851 10.1183 3.85063 9.88391 3.61621C9.64952 3.38182 9.3316 3.25003 9.00012 3.25ZM8.75012 6.28027L8.43079 6.15625C7.92437 5.95958 7.54058 5.57573 7.34387 5.06934L7.21985 4.75H2.75012V4.25H7.23938L7.35657 3.91504C7.60127 3.2159 8.25976 2.75 9.00012 2.75C9.73976 2.75005 10.3996 3.21611 10.6515 3.91895L10.7706 4.25H15.2501V4.75H10.7687L10.6466 5.07422C10.4573 5.57675 10.076 5.95824 9.57336 6.14746L9.25012 6.26855V15.5H16.0001V16H2.00012V15.5H8.75012V6.28027Z" fill="#0A0A0A" stroke="#0A0A0A"/>
</svg>
