<svg width="18" height="18" viewBox="0 0 18 18" fill="none" xmlns="http://www.w3.org/2000/svg">
<path d="M9 14.25C11.8995 14.25 14.25 11.8995 14.25 9C14.25 6.10051 11.8995 3.75 9 3.75C6.10051 3.75 3.75 6.10051 3.75 9C3.75 11.8995 6.10051 14.25 9 14.25Z" stroke="#0A0A0A" stroke-width="1.5"/>
<path d="M9 10.5C9.82843 10.5 10.5 9.82843 10.5 9C10.5 8.17157 9.82843 7.5 9 7.5C8.17157 7.5 7.5 8.17157 7.5 9C7.5 9.82843 8.17157 10.5 9 10.5Z" fill="#0A0A0A" stroke="#0A0A0A" stroke-width="1.5"/>
<path d="M9 3.75V2.25M14.25 9H15.75M9 15.75V14.25M2.25 9H3.75" stroke="#0A0A0A" stroke-width="1.5" stroke-linecap="round"/>
</svg>
