<svg width="20" height="20" viewBox="0 0 20 20" fill="none" xmlns="http://www.w3.org/2000/svg">
<path d="M13.6 1.9C13.6 1.66131 13.5052 1.43239 13.3364 1.2636C13.1676 1.09482 12.9387 1 12.7 1H7.3C7.0613 1 6.83239 1.09482 6.6636 1.2636C6.49482 1.43239 6.4 1.66131 6.4 1.9V6.4H1.9C1.66131 6.4 1.43239 6.49482 1.2636 6.6636C1.09482 6.83239 1 7.0613 1 7.3V12.7C1 12.9387 1.09482 13.1676 1.2636 13.3364C1.43239 13.5052 1.66131 13.6 1.9 13.6H6.4V18.1C6.4 18.3387 6.49482 18.5676 6.6636 18.7364C6.83239 18.9052 7.0613 19 7.3 19H12.7C12.9387 19 13.1676 18.9052 13.3364 18.7364C13.5052 18.5676 13.6 18.3387 13.6 18.1V13.6H18.1C18.3387 13.6 18.5676 13.5052 18.7364 13.3364C18.9052 13.1676 19 12.9387 19 12.7V7.3C19 7.0613 18.9052 6.83239 18.7364 6.6636C18.5676 6.49482 18.3387 6.4 18.1 6.4H13.6V1.9Z" stroke="#1E293B" stroke-width="2" stroke-linecap="round" stroke-linejoin="round"/>
</svg>
