<svg width="28" height="28" viewBox="0 0 28 28" fill="none" xmlns="http://www.w3.org/2000/svg">
<rect width="28" height="28" rx="4" fill="#FDE047"/>
<path d="M17.6 6.4C17.6 6.16131 17.5052 5.93239 17.3364 5.7636C17.1676 5.59482 16.9387 5.5 16.7 5.5H11.3C11.0613 5.5 10.8324 5.59482 10.6636 5.7636C10.4948 5.93239 10.4 6.16131 10.4 6.4V10.9H5.9C5.66131 10.9 5.43239 10.9948 5.2636 11.1636C5.09482 11.3324 5 11.5613 5 11.8V17.2C5 17.4387 5.09482 17.6676 5.2636 17.8364C5.43239 18.0052 5.66131 18.1 5.9 18.1H10.4V22.6C10.4 22.8387 10.4948 23.0676 10.6636 23.2364C10.8324 23.4052 11.0613 23.5 11.3 23.5H16.7C16.9387 23.5 17.1676 23.4052 17.3364 23.2364C17.5052 23.0676 17.6 22.8387 17.6 22.6V18.1H22.1C22.3387 18.1 22.5676 18.0052 22.7364 17.8364C22.9052 17.6676 23 17.4387 23 17.2V11.8C23 11.5613 22.9052 11.3324 22.7364 11.1636C22.5676 10.9948 22.3387 10.9 22.1 10.9H17.6V6.4Z" stroke="#1E293B" stroke-width="2" stroke-linecap="round" stroke-linejoin="round"/>
</svg>
