<svg width="24" height="24" viewBox="0 0 24 24" fill="none" xmlns="http://www.w3.org/2000/svg">
<path d="M13.3 20.725C13.2 20.8083 13.096 20.875 12.988 20.925C12.88 20.975 12.759 21 12.625 21C12.491 21 12.3577 20.9707 12.225 20.912C12.0923 20.8533 11.9757 20.7743 11.875 20.675C11.1917 19.9417 10.6873 19.1917 10.362 18.425C10.0367 17.6583 9.87467 16.85 9.876 16C9.876 15.3833 9.96767 14.7333 10.151 14.05C10.3343 13.3667 10.651 12.4833 11.101 11.4C11.4843 10.45 11.751 9.72101 11.901 9.21301C12.051 8.70501 12.126 8.23401 12.126 7.80001C12.126 7.23335 12.001 6.70434 11.751 6.21301C11.501 5.72168 11.1093 5.22568 10.576 4.72501C10.476 4.62501 10.397 4.50834 10.339 4.37501C10.281 4.24168 10.2517 4.10834 10.251 3.97501C10.2503 3.84168 10.2753 3.72101 10.326 3.61301C10.3767 3.50501 10.4433 3.40068 10.526 3.30001C10.626 3.20001 10.7383 3.12501 10.863 3.07501C10.9877 3.02501 11.1167 3.00001 11.25 3.00001C11.3833 3.00001 11.5083 3.02501 11.625 3.07501C11.7417 3.12501 11.85 3.19168 11.95 3.27501C12.6833 3.95834 13.229 4.67501 13.587 5.42501C13.945 6.17501 14.1243 6.96668 14.125 7.80001C14.125 8.38335 14.0373 8.99601 13.862 9.63801C13.6867 10.28 13.3827 11.1173 12.95 12.15C12.5333 13.15 12.25 13.9167 12.1 14.45C11.95 14.9833 11.875 15.4917 11.875 15.975C11.875 16.5583 11.996 17.121 12.238 17.663C12.48 18.205 12.8507 18.7507 13.35 19.3C13.4333 19.4 13.5 19.5083 13.55 19.625C13.6 19.7417 13.625 19.8667 13.625 20C13.625 20.1333 13.6 20.2627 13.55 20.388C13.5 20.5133 13.4167 20.6257 13.3 20.725ZM18.175 20.725C18.075 20.8083 17.971 20.875 17.863 20.925C17.755 20.975 17.634 21 17.5 21C17.366 21 17.2327 20.9707 17.1 20.912C16.9673 20.8533 16.8507 20.7743 16.75 20.675C16.0667 19.9417 15.5623 19.1957 15.237 18.437C14.9117 17.6783 14.7493 16.8743 14.75 16.025C14.75 15.4083 14.8417 14.75 15.025 14.05C15.2083 13.35 15.525 12.4667 15.975 11.4C16.3583 10.45 16.625 9.72501 16.775 9.22501C16.925 8.72501 17 8.25834 17 7.82501C17 7.25834 16.875 6.72101 16.625 6.21301C16.375 5.70501 15.9833 5.20901 15.45 4.72501C15.35 4.62501 15.275 4.51268 15.225 4.38801C15.175 4.26334 15.15 4.13401 15.15 4.00001C15.15 3.86601 15.171 3.74501 15.213 3.63701C15.255 3.52901 15.3173 3.42501 15.4 3.32501C15.5 3.22501 15.6167 3.14568 15.75 3.08701C15.8833 3.02834 16.0167 2.99934 16.15 3.00001C16.2833 3.00068 16.4043 3.02568 16.513 3.07501C16.6217 3.12434 16.7257 3.19101 16.825 3.27501C17.5583 3.95834 18.1043 4.67501 18.463 5.42501C18.8217 6.17501 19.0007 6.96668 19 7.80001C19 8.38335 18.9127 8.99601 18.738 9.63801C18.5633 10.28 18.259 11.1257 17.825 12.175C17.4083 13.175 17.125 13.9417 16.975 14.475C16.825 15.0083 16.75 15.5083 16.75 15.975C16.75 16.5583 16.875 17.1293 17.125 17.688C17.375 18.2467 17.75 18.7923 18.25 19.325C18.3333 19.425 18.3957 19.5333 18.437 19.65C18.4783 19.7667 18.4993 19.8833 18.5 20C18.5 20.1333 18.475 20.2667 18.425 20.4C18.375 20.5333 18.2917 20.6417 18.175 20.725ZM8.425 20.725C8.325 20.8083 8.22067 20.875 8.112 20.925C8.00334 20.975 7.88267 21 7.75 21C7.61734 21 7.484 20.9707 7.35 20.912C7.216 20.8533 7.09934 20.7743 7 20.675C6.31667 19.9417 5.81234 19.1957 5.487 18.437C5.16167 17.6783 4.99934 16.8743 5 16.025C5 15.4083 5.09167 14.75 5.275 14.05C5.45834 13.35 5.775 12.4667 6.225 11.4C6.60834 10.45 6.875 9.72501 7.025 9.22501C7.175 8.72501 7.25 8.25834 7.25 7.82501C7.25 7.25834 7.125 6.72101 6.875 6.21301C6.625 5.70501 6.23334 5.20901 5.7 4.72501C5.58334 4.62501 5.5 4.51268 5.45 4.38801C5.4 4.26334 5.375 4.13401 5.375 4.00001C5.375 3.86601 5.4 3.74101 5.45 3.62501C5.5 3.50901 5.56667 3.40068 5.65 3.30001C5.75 3.20001 5.86267 3.12501 5.988 3.07501C6.11334 3.02501 6.24234 3.00001 6.375 3.00001C6.50767 3.00001 6.63267 3.02501 6.75 3.07501C6.86734 3.12501 6.97567 3.19168 7.075 3.27501C7.80834 3.95834 8.35434 4.67101 8.713 5.41301C9.07167 6.15501 9.25067 6.95068 9.25 7.80001C9.25 8.38335 9.16667 8.99601 9 9.63801C8.83334 10.28 8.53334 11.1173 8.1 12.15C7.68334 13.15 7.4 13.9167 7.25 14.45C7.1 14.9833 7.025 15.4917 7.025 15.975C7.025 16.5583 7.146 17.1293 7.388 17.688C7.63 18.2467 8.00067 18.7923 8.5 19.325C8.58334 19.425 8.646 19.5333 8.688 19.65C8.73 19.7667 8.75067 19.8833 8.75 20C8.75 20.1333 8.725 20.2667 8.675 20.4C8.625 20.5333 8.54167 20.6417 8.425 20.725Z" fill="white"/>
</svg>
