<svg width="18" height="18" viewBox="0 0 18 18" fill="none" xmlns="http://www.w3.org/2000/svg">
<path d="M5.0625 1.71875H12.9375C13.2276 1.71875 13.5058 1.83394 13.7109 2.03906C13.9161 2.24418 14.0312 2.52242 14.0312 2.8125V5.31836C14.0309 5.48747 13.9913 5.65424 13.916 5.80566C13.8407 5.95705 13.7313 6.08906 13.5967 6.19141L9.91406 8.97461L9.88086 9L9.91406 9.02539L13.5967 11.8076V11.8086C13.7313 11.9109 13.8407 12.043 13.916 12.1943C13.9913 12.3458 14.0309 12.5125 14.0312 12.6816V15.1875C14.0312 15.4776 13.9161 15.7558 13.7109 15.9609C13.5058 16.1661 13.2276 16.2812 12.9375 16.2812H5.0625C4.77242 16.2812 4.49418 16.1661 4.28906 15.9609C4.08394 15.7558 3.96875 15.4776 3.96875 15.1875V12.6562L3.97656 12.5293C3.99147 12.4036 4.02808 12.2808 4.08496 12.167C4.14188 12.0533 4.21795 11.9506 4.30957 11.8633L4.40625 11.7812L8.08105 9.02539L8.11523 9L8.08105 8.97461L4.40625 6.21875C4.27081 6.11669 4.16086 5.98466 4.08496 5.83301C4.00905 5.68119 3.96913 5.51348 3.96875 5.34375V2.8125C3.96875 2.52242 4.08394 2.24418 4.28906 2.03906C4.49418 1.83394 4.77242 1.71875 5.0625 1.71875ZM5.03125 5.35938L5.04395 5.36914L5.42676 5.65625H12.542L12.5508 5.65039L12.9561 5.34375L12.9688 5.33398V2.78125H5.03125V5.35938ZM12.9688 12.666L12.9561 12.6562L9.58105 10.1055L9.53125 10.0674V11.8125C9.53125 11.9534 9.47561 12.0888 9.37598 12.1885C9.27635 12.2881 9.1409 12.3438 9 12.3438C8.8591 12.3438 8.72365 12.2881 8.62402 12.1885C8.52439 12.0888 8.46875 11.9534 8.46875 11.8125V10.0625L8.41895 10.0996L5.04395 12.6309L5.03125 12.6406V15.2188H12.9688V12.666Z" fill="#0A0A0A" stroke="#0A0A0A" stroke-width="0.0625"/>
</svg>
