<svg width="24" height="24" viewBox="0 0 24 24" fill="none" xmlns="http://www.w3.org/2000/svg">
<path d="M6.906 19.463C6.81491 19.517 6.71114 19.5459 6.60524 19.5469C6.49934 19.5478 6.39508 19.5207 6.30306 19.4682C6.21104 19.4158 6.13452 19.34 6.0813 19.2484C6.02807 19.1569 6.00002 19.0529 6 18.947V5.05298C6.00002 4.94708 6.02807 4.84307 6.0813 4.75151C6.13452 4.65996 6.21104 4.58413 6.30306 4.53171C6.39508 4.4793 6.49934 4.45218 6.60524 4.45311C6.71114 4.45403 6.81491 4.48297 6.906 4.53698L18.629 11.484C18.7185 11.5371 18.7927 11.6126 18.8442 11.7031C18.8957 11.7936 18.9228 11.8959 18.9228 12C18.9228 12.1041 18.8957 12.2064 18.8442 12.2969C18.7927 12.3873 18.7185 12.4629 18.629 12.516L6.906 19.463Z" fill="white" stroke="white" stroke-width="1.5" stroke-linecap="round" stroke-linejoin="round"/>
</svg>
