<svg width="18" height="18" viewBox="0 0 18 18" fill="none" xmlns="http://www.w3.org/2000/svg">
<mask id="path-1-inside-1_664_165" fill="white">
<path fill-rule="evenodd" clip-rule="evenodd" d="M10.89 6.7995C9.32712 7.24656 7.67026 7.24682 6.10724 6.80025C5.42516 7.54636 4.85199 8.38516 4.40474 9.29175C3.93224 10.266 3.71474 11.163 3.75449 11.8718C3.79199 12.516 4.03274 13.017 4.60199 13.4108C5.23799 13.851 6.42449 14.2493 8.51699 14.2493C9.42074 14.2493 10.1535 14.1735 10.7452 14.0513L12.0697 15.2385C11.163 15.5633 9.99524 15.7485 8.51699 15.7485C-0.468756 15.7485 1.93199 9.01425 5.15249 5.625L3.77699 3.6C4.05035 3.42646 4.33584 3.27281 4.63124 3.14025C4.78624 3.06875 4.95349 2.9975 5.13299 2.9265C6.03449 2.57175 7.23299 2.25 8.51699 2.25C9.73724 2.25 10.8727 2.54025 11.7495 2.874C11.792 2.889 11.8335 2.90475 11.874 2.92125C12.4815 3.16125 12.954 3.41775 13.227 3.6L11.8425 5.625C13.0965 6.90675 14.238 8.74275 14.619 10.5H13.074C12.9495 10.0675 12.7864 9.64702 12.5865 9.24375C12.1438 8.35024 11.5725 7.52648 10.8907 6.79875M10.1482 5.4435C9.06127 5.69673 7.9306 5.69647 6.84374 5.44275L6.64724 5.15325C7.33574 5.21775 8.05274 5.18925 8.72549 4.995C9.40231 4.79792 10.0893 4.63768 10.7835 4.515L10.1482 5.4435ZM11.6257 3.7095C10.8397 3.6825 9.69749 3.75675 8.63474 3.87675C8.42249 3.90075 8.20124 3.942 7.97474 3.984C7.16324 4.134 6.29624 4.29525 5.62574 3.7095C6.05474 3.59925 7.23749 3.38025 8.57849 3.37425H8.63474C9.99899 3.37425 11.1975 3.59775 11.6257 3.7095Z"/>
</mask>
<path fill-rule="evenodd" clip-rule="evenodd" d="M10.89 6.7995C9.32712 7.24656 7.67026 7.24682 6.10724 6.80025C5.42516 7.54636 4.85199 8.38516 4.40474 9.29175C3.93224 10.266 3.71474 11.163 3.75449 11.8718C3.79199 12.516 4.03274 13.017 4.60199 13.4108C5.23799 13.851 6.42449 14.2493 8.51699 14.2493C9.42074 14.2493 10.1535 14.1735 10.7452 14.0513L12.0697 15.2385C11.163 15.5633 9.99524 15.7485 8.51699 15.7485C-0.468756 15.7485 1.93199 9.01425 5.15249 5.625L3.77699 3.6C4.05035 3.42646 4.33584 3.27281 4.63124 3.14025C4.78624 3.06875 4.95349 2.9975 5.13299 2.9265C6.03449 2.57175 7.23299 2.25 8.51699 2.25C9.73724 2.25 10.8727 2.54025 11.7495 2.874C11.792 2.889 11.8335 2.90475 11.874 2.92125C12.4815 3.16125 12.954 3.41775 13.227 3.6L11.8425 5.625C13.0965 6.90675 14.238 8.74275 14.619 10.5H13.074C12.9495 10.0675 12.7864 9.64702 12.5865 9.24375C12.1438 8.35024 11.5725 7.52648 10.8907 6.79875M10.1482 5.4435C9.06127 5.69673 7.9306 5.69647 6.84374 5.44275L6.64724 5.15325C7.33574 5.21775 8.05274 5.18925 8.72549 4.995C9.40231 4.79792 10.0893 4.63768 10.7835 4.515L10.1482 5.4435ZM11.6257 3.7095C10.8397 3.6825 9.69749 3.75675 8.63474 3.87675C8.42249 3.90075 8.20124 3.942 7.97474 3.984C7.16324 4.134 6.29624 4.29525 5.62574 3.7095C6.05474 3.59925 7.23749 3.38025 8.57849 3.37425H8.63474C9.99899 3.37425 11.1975 3.59775 11.6257 3.7095Z" fill="#0A0A0A"/>
<path d="M6.10724 6.80025L6.38196 5.83873L5.78681 5.66868L5.36918 6.12552L6.10724 6.80025ZM4.40474 9.29175L3.50792 8.84932L3.50498 8.85537L4.40474 9.29175ZM3.75449 11.8718L2.75606 11.9277L2.75618 11.9299L3.75449 11.8718ZM4.60199 13.4108L5.17115 12.5885L5.17087 12.5883L4.60199 13.4108ZM10.7452 14.0513L11.4127 13.3066L11.037 12.9699L10.5429 13.0719L10.7452 14.0513ZM12.0697 15.2385L12.4069 16.1799L13.9869 15.6141L12.7372 14.4939L12.0697 15.2385ZM5.15249 5.625L5.87742 6.31383L6.43248 5.72968L5.97971 5.06311L5.15249 5.625ZM3.77699 3.6L3.24103 2.75576L2.37019 3.30862L2.94978 4.16189L3.77699 3.6ZM4.63124 3.14025L5.04068 4.05265L5.05012 4.04829L4.63124 3.14025ZM5.13299 2.9265L4.76681 1.99595L4.76518 1.9966L5.13299 2.9265ZM11.7495 2.874L11.3937 3.80858L11.4052 3.81292L11.4167 3.81699L11.7495 2.874ZM11.874 2.92125L11.4967 3.84739L11.5066 3.8513L11.874 2.92125ZM13.227 3.6L14.0525 4.1644L14.6232 3.32971L13.7822 2.7683L13.227 3.6ZM11.8425 5.625L11.017 5.0606L10.5539 5.73788L11.1277 6.32433L11.8425 5.625ZM14.619 10.5V11.5H15.859L15.5963 10.2881L14.619 10.5ZM13.074 10.5L12.113 10.7766L12.3212 11.5H13.074V10.5ZM12.5865 9.24375L11.6904 9.68771L11.6905 9.68781L12.5865 9.24375ZM10.1482 5.4435L10.3751 6.41742L10.7539 6.32917L10.9736 6.00816L10.1482 5.4435ZM6.84374 5.44275L6.01634 6.00436L6.23583 6.32772L6.61641 6.41657L6.84374 5.44275ZM6.64724 5.15325L6.74052 4.15761L4.62855 3.95976L5.81984 5.71486L6.64724 5.15325ZM8.72549 4.995L9.0029 5.95575L9.00507 5.95512L8.72549 4.995ZM10.7835 4.515L11.6088 5.07966L12.9521 3.11623L10.6095 3.53026L10.7835 4.515ZM11.6257 3.7095L11.5914 4.70891L11.8782 2.7419L11.6257 3.7095ZM8.63474 3.87675L8.52254 2.88306L8.52239 2.88308L8.63474 3.87675ZM7.97474 3.984L8.15651 4.96734L8.15707 4.96724L7.97474 3.984ZM5.62574 3.7095L5.37684 2.74097L3.53804 3.21353L4.96784 4.4626L5.62574 3.7095ZM8.57849 3.37425L8.57849 2.37424L8.57402 2.37426L8.57849 3.37425ZM10.89 6.7995L10.615 5.83806C9.23174 6.23374 7.76532 6.23397 6.38196 5.83873L6.10724 6.80025L5.83252 7.76177C7.57519 8.25968 9.4225 8.25939 11.165 7.76094L10.89 6.7995ZM6.10724 6.80025L5.36918 6.12552C4.6235 6.9412 3.99688 7.85821 3.50794 8.84933L4.40474 9.29175L5.30155 9.73417C5.70709 8.91211 6.22682 8.15152 6.84531 7.47498L6.10724 6.80025ZM4.40474 9.29175L3.50498 8.85537C2.98891 9.91947 2.7035 10.9906 2.75606 11.9277L3.75449 11.8718L4.75293 11.8158C4.72598 11.3354 4.87558 10.6125 5.30451 9.72813L4.40474 9.29175ZM3.75449 11.8718L2.75618 11.9299C2.80964 12.8483 3.18467 13.6463 4.03312 14.2332L4.60199 13.4108L5.17087 12.5883C4.88082 12.3877 4.77434 12.1837 4.7528 11.8136L3.75449 11.8718ZM4.60199 13.4108L4.03283 14.233C4.90281 14.8352 6.32112 15.2493 8.51699 15.2493V14.2493V13.2493C6.52787 13.2493 5.57318 12.8668 5.17115 12.5885L4.60199 13.4108ZM8.51699 14.2493V15.2493C9.47513 15.2493 10.2772 15.1691 10.9476 15.0306L10.7452 14.0513L10.5429 13.0719C10.0298 13.1779 9.36635 13.2493 8.51699 13.2493V14.2493ZM10.7452 14.0513L10.0778 14.7959L11.4023 15.9831L12.0697 15.2385L12.7372 14.4939L11.4127 13.3066L10.7452 14.0513ZM12.0697 15.2385L11.7326 14.2971C10.9644 14.5722 9.91771 14.7485 8.51699 14.7485V15.7485V16.7485C10.0728 16.7485 11.3616 16.5543 12.4069 16.1799L12.0697 15.2385ZM8.51699 15.7485V14.7485C6.37329 14.7485 5.07069 14.3432 4.31683 13.8212C3.60856 13.3307 3.30037 12.6808 3.25577 11.9006C3.20867 11.0767 3.46129 10.092 3.95563 9.07315C4.44512 8.06424 5.13808 7.09191 5.87742 6.31383L5.15249 5.625L4.42757 4.93617C3.55666 5.85272 2.74183 6.99314 2.15623 8.20012C1.57546 9.39714 1.18566 10.7315 1.25903 12.0148C1.3349 13.3419 1.91007 14.5873 3.17826 15.4655C4.40086 16.312 6.16783 16.7485 8.51699 16.7485V15.7485ZM5.15249 5.625L5.97971 5.06311L4.60421 3.03811L3.77699 3.6L2.94978 4.16189L4.32528 6.18689L5.15249 5.625ZM3.77699 3.6L4.31296 4.44424C4.54582 4.29641 4.78901 4.16552 5.04066 4.0526L4.63124 3.14025L4.22183 2.2279C3.88266 2.3801 3.55488 2.55651 3.24103 2.75576L3.77699 3.6ZM4.63124 3.14025L5.05012 4.04829C5.1863 3.98547 5.33635 3.92145 5.50081 3.8564L5.13299 2.9265L4.76518 1.9966C4.57064 2.07355 4.38619 2.15203 4.21237 2.2322L4.63124 3.14025ZM5.13299 2.9265L5.49917 3.85704C6.32062 3.5338 7.3924 3.25 8.51699 3.25V2.25V1.25C7.07359 1.25 5.74837 1.6097 4.76681 1.99596L5.13299 2.9265ZM8.51699 2.25V3.25C9.58471 3.25 10.5976 3.5055 11.3937 3.80858L11.7495 2.874L12.1053 1.93942C11.1479 1.575 9.88978 1.25 8.51699 1.25V2.25ZM11.7495 2.874L11.4167 3.81699C11.4447 3.82687 11.4713 3.83701 11.4967 3.84734L11.874 2.92125L12.2513 1.99516C12.1957 1.97249 12.1393 1.95113 12.0823 1.93101L11.7495 2.874ZM11.874 2.92125L11.5066 3.8513C12.0598 4.06987 12.4673 4.2952 12.6718 4.4317L13.227 3.6L13.7822 2.7683C13.4407 2.5403 12.9032 2.25263 12.2414 1.9912L11.874 2.92125ZM13.227 3.6L12.4015 3.0356L11.017 5.0606L11.8425 5.625L12.668 6.1894L14.0525 4.1644L13.227 3.6ZM11.8425 5.625L11.1277 6.32433C12.2855 7.50775 13.3101 9.1825 13.6417 10.7119L14.619 10.5L15.5963 10.2881C15.1659 8.303 13.9075 6.30575 12.5573 4.92567L11.8425 5.625ZM14.619 10.5V9.5H13.074V10.5V11.5H14.619V10.5ZM13.074 10.5L14.035 10.2234C13.8939 9.73324 13.709 9.25673 13.4825 8.79969L12.5865 9.24375L11.6905 9.68781C11.8637 10.0373 12.0051 10.4017 12.113 10.7766L13.074 10.5ZM12.5865 9.24375L13.4825 8.79979C12.9964 7.81869 12.3691 6.91416 11.6205 6.11509L10.8907 6.79875L10.1609 7.48241C10.7758 8.1388 11.2911 8.8818 11.6904 9.68771L12.5865 9.24375ZM10.1482 5.4435L9.92135 4.46958C8.98379 4.688 8.00854 4.68778 7.07108 4.46893L6.84374 5.44275L6.61641 6.41657C7.85267 6.70517 9.13875 6.70546 10.3751 6.41742L10.1482 5.4435ZM6.84374 5.44275L7.67115 4.88114L7.47465 4.59164L6.64724 5.15325L5.81984 5.71486L6.01634 6.00436L6.84374 5.44275ZM6.64724 5.15325L6.55397 6.14889C7.32785 6.22139 8.17703 6.19422 9.0029 5.95575L8.72549 4.995L8.44809 4.03425C7.92846 4.18428 7.34364 4.21411 6.74052 4.15761L6.64724 5.15325ZM8.72549 4.995L9.00507 5.95512C9.64718 5.76815 10.299 5.61613 10.9575 5.49974L10.7835 4.515L10.6095 3.53026C9.87969 3.65924 9.15745 3.82769 8.44592 4.03488L8.72549 4.995ZM10.7835 4.515L9.95817 3.95034L9.32292 4.87884L10.1482 5.4435L10.9736 6.00816L11.6088 5.07966L10.7835 4.515ZM11.6257 3.7095L11.6601 2.71009C10.8027 2.68064 9.60491 2.76085 8.52254 2.88306L8.63474 3.87675L8.74695 4.87044C9.79008 4.75265 10.8767 4.68436 11.5914 4.70891L11.6257 3.7095ZM8.63474 3.87675L8.52239 2.88308C8.26829 2.91181 8.01056 2.96031 7.79242 3.00076L7.97474 3.984L8.15707 4.96724C8.39193 4.92369 8.5767 4.88969 8.7471 4.87042L8.63474 3.87675ZM7.97474 3.984L7.79298 3.00066C7.36425 3.07991 7.05547 3.13289 6.78256 3.12328C6.5433 3.11485 6.4013 3.05917 6.28365 2.9564L5.62574 3.7095L4.96784 4.4626C6.06326 5.41957 7.46109 5.09588 8.15651 4.96734L7.97474 3.984ZM5.62574 3.7095L5.87465 4.67803C6.23071 4.58652 7.33129 4.37984 8.58297 4.37424L8.57849 3.37425L8.57402 2.37426C7.1437 2.38066 5.87878 2.61198 5.37684 2.74097L5.62574 3.7095ZM8.57849 3.37425V4.37425H8.63474V3.37425V2.37425H8.57849V3.37425ZM8.63474 3.37425V4.37425C9.90726 4.37425 11.0209 4.58515 11.3733 4.6771L11.6257 3.7095L11.8782 2.7419C11.3741 2.61035 10.0907 2.37425 8.63474 2.37425V3.37425Z" fill="#0A0A0A" mask="url(#path-1-inside-1_664_165)"/>
<path d="M11.7825 13.974L12.5325 13.1362L13.2022 13.7363V11.25H14.3272V13.7355L14.9962 13.1355L15.7462 13.9733L13.7655 15.75L11.7825 13.974Z" fill="#0A0A0A"/>
<path fill-rule="evenodd" clip-rule="evenodd" d="M8.06248 13.5V13.1077C7.78602 13.0647 7.52633 12.9478 7.31087 12.7693C7.09541 12.5908 6.93219 12.3574 6.83848 12.0938C6.81244 12.0238 6.80059 11.9494 6.80362 11.8748C6.80664 11.8002 6.82448 11.727 6.85609 11.6593C6.8877 11.5917 6.93246 11.5311 6.98775 11.4809C7.04304 11.4308 7.10775 11.3921 7.17813 11.3672C7.2485 11.3424 7.32313 11.3317 7.39765 11.336C7.47217 11.3402 7.54511 11.3593 7.6122 11.392C7.67929 11.4247 7.7392 11.4704 7.78844 11.5265C7.83767 11.5826 7.87525 11.648 7.89898 11.7188C7.92898 11.8057 7.98748 11.8792 8.06248 11.9287V11.139C7.6972 11.0828 7.36411 10.8977 7.12347 10.6172C6.88284 10.3367 6.75055 9.97932 6.75055 9.60975C6.75055 9.24017 6.88284 8.88281 7.12347 8.60231C7.36411 8.32181 7.6972 8.13671 8.06248 8.0805V7.6875H9.18748V8.0805C9.75748 8.16675 10.2247 8.565 10.4115 9.09375C10.4375 9.16371 10.4494 9.23815 10.4463 9.31273C10.4433 9.38731 10.4255 9.46055 10.3939 9.52817C10.3622 9.59578 10.3175 9.65644 10.2622 9.70658C10.2069 9.75673 10.1422 9.79538 10.0718 9.82026C10.0015 9.84515 9.92683 9.85577 9.8523 9.85153C9.77778 9.84728 9.70485 9.82825 9.63775 9.79553C9.57066 9.76281 9.51075 9.71707 9.46152 9.66097C9.41228 9.60486 9.37471 9.53952 9.35098 9.46875C9.32068 9.38288 9.2633 9.30918 9.18748 9.25875V10.0485C9.55326 10.1042 9.88698 10.2891 10.1281 10.5697C10.3693 10.8504 10.5019 11.2081 10.5019 11.5781C10.5019 11.9481 10.3693 12.3059 10.1281 12.5865C9.88698 12.8671 9.55326 13.0521 9.18748 13.1077V13.5H8.06248ZM9.37498 11.5785C9.37498 11.724 9.29998 11.853 9.18748 11.9287V11.2275C9.29998 11.3025 9.37498 11.4322 9.37498 11.5785ZM7.87498 9.60825C7.87498 9.46275 7.94998 9.33375 8.06248 9.258V9.95925C8.00475 9.92088 7.95741 9.86881 7.9247 9.8077C7.89198 9.74658 7.8749 9.67832 7.87498 9.609" fill="#0A0A0A"/>
</svg>
