<svg width="24" height="24" viewBox="0 0 24 24" fill="none" xmlns="http://www.w3.org/2000/svg">
<path d="M4.01096 20.918H19.9888C20.2483 20.9179 20.5033 20.8506 20.729 20.7224C20.9547 20.5943 21.1433 20.4099 21.2763 20.1871C21.4094 19.9643 21.4824 19.7108 21.4881 19.4513C21.4939 19.1919 21.4323 18.9354 21.3092 18.7069L13.3208 3.87094C12.7541 2.81906 11.2456 2.81906 10.6789 3.87094L2.69049 18.7069C2.56747 18.9354 2.50583 19.1919 2.5116 19.4513C2.51737 19.7108 2.59035 19.9643 2.7234 20.1871C2.85646 20.4099 3.04504 20.5943 3.27072 20.7224C3.4964 20.8506 3.75146 20.9179 4.01096 20.918Z" stroke="white" stroke-width="1.5" stroke-linecap="round" stroke-linejoin="round"/>
<path d="M11.7311 9.15892L12.0002 14.8777L12.2688 9.16127C12.2705 9.12472 12.2646 9.08823 12.2517 9.054C12.2388 9.01978 12.219 8.98855 12.1936 8.96223C12.1682 8.93591 12.1377 8.91504 12.104 8.9009C12.0702 8.88677 12.034 8.87966 11.9974 8.88002C11.9614 8.88037 11.9259 8.88792 11.893 8.90222C11.86 8.91652 11.8302 8.93728 11.8054 8.96328C11.7806 8.98928 11.7612 9.01998 11.7485 9.05359C11.7357 9.08719 11.7298 9.12301 11.7311 9.15892Z" stroke="white" stroke-linecap="round" stroke-linejoin="round"/>
<path d="M12 18.6211C11.8146 18.6211 11.6333 18.5661 11.4792 18.4631C11.325 18.3601 11.2048 18.2137 11.1339 18.0424C11.0629 17.8711 11.0443 17.6826 11.0805 17.5007C11.1167 17.3188 11.206 17.1518 11.3371 17.0207C11.4682 16.8896 11.6352 16.8003 11.8171 16.7641C11.999 16.7279 12.1875 16.7465 12.3588 16.8175C12.5301 16.8884 12.6765 17.0086 12.7795 17.1627C12.8825 17.3169 12.9375 17.4982 12.9375 17.6836C12.9375 17.9322 12.8387 18.1707 12.6629 18.3465C12.4871 18.5223 12.2486 18.6211 12 18.6211Z" fill="white"/>
</svg>
