<svg width="24" height="24" viewBox="0 0 24 24" fill="none" xmlns="http://www.w3.org/2000/svg">
<path d="M2 15V9C2 7.4087 2.63214 5.88258 3.75736 4.75736C4.88258 3.63214 6.4087 3 8 3H16C17.5913 3 19.1174 3.63214 20.2426 4.75736C21.3679 5.88258 22 7.4087 22 9V15C22 16.5913 21.3679 18.1174 20.2426 19.2426C19.1174 20.3679 17.5913 21 16 21H8C6.4087 21 4.88258 20.3679 3.75736 19.2426C2.63214 18.1174 2 16.5913 2 15Z" stroke="#0A0A0A" stroke-width="1.5"/>
<path d="M12 15V9H14.5C14.8978 9 15.2794 9.15804 15.5607 9.43934C15.842 9.72064 16 10.1022 16 10.5C16 10.8978 15.842 11.2794 15.5607 11.5607C15.2794 11.842 14.8978 12 14.5 12H12M9 9V15" stroke="#0A0A0A" stroke-width="1.5" stroke-linecap="round" stroke-linejoin="round"/>
</svg>
