<svg width="18" height="18" viewBox="0 0 18 18" fill="none" xmlns="http://www.w3.org/2000/svg">
<path d="M1.5 11.25V6.75C1.5 5.55653 1.97411 4.41193 2.81802 3.56802C3.66193 2.72411 4.80653 2.25 6 2.25H12C13.1935 2.25 14.3381 2.72411 15.182 3.56802C16.0259 4.41193 16.5 5.55653 16.5 6.75V11.25C16.5 12.4435 16.0259 13.5881 15.182 14.432C14.3381 15.2759 13.1935 15.75 12 15.75H6C4.80653 15.75 3.66193 15.2759 2.81802 14.432C1.97411 13.5881 1.5 12.4435 1.5 11.25Z" stroke="#0A0A0A" stroke-width="1.5"/>
<path d="M9 11.25V6.75H10.875C11.1734 6.75 11.4595 6.86853 11.6705 7.0795C11.8815 7.29048 12 7.57663 12 7.875C12 8.17337 11.8815 8.45952 11.6705 8.6705C11.4595 8.88147 11.1734 9 10.875 9H9M6.75 6.75V11.25" stroke="#0A0A0A" stroke-width="1.5" stroke-linecap="round" stroke-linejoin="round"/>
</svg>
