<svg width="24" height="24" viewBox="0 0 24 24" fill="none" xmlns="http://www.w3.org/2000/svg">
<path d="M18 12V11C18 10.057 18 9.586 17.707 9.293C17.414 9 16.943 9 16 9H8C7.057 9 6.586 9 6.293 9.293C6 9.586 6 10.057 6 11V12M8.653 9C5.183 5.5 10.513 3.75 12 2C13.488 3.75 18.818 5.5 15.347 9H8.653ZM17 12H7C5.586 12 4.879 12 4.44 12.44C4 12.878 4 13.585 4 15V19C4 20.414 4 21.121 4.44 21.56C4.878 22 5.585 22 7 22H17C18.414 22 19.121 22 19.56 21.56C20 21.121 20 20.414 20 19V15C20 13.586 20 12.879 19.56 12.44C19.122 12 18.415 12 17 12Z" stroke="#0A0A0A" stroke-width="1.5" stroke-linecap="round" stroke-linejoin="round"/>
<path d="M9.50009 22V19C9.48309 16 12.0001 15 12.0001 15C12.0001 15 14.5171 16 14.5001 19V22" stroke="#0A0A0A" stroke-width="1.5" stroke-linecap="round" stroke-linejoin="round"/>
</svg>
