<svg width="18" height="18" viewBox="0 0 18 18" fill="none" xmlns="http://www.w3.org/2000/svg">
<path d="M13.5 9V8.25C13.5 7.54275 13.5 7.1895 13.2803 6.96975C13.0605 6.75 12.7073 6.75 12 6.75H6C5.29275 6.75 4.9395 6.75 4.71975 6.96975C4.5 7.1895 4.5 7.54275 4.5 8.25V9M6.48975 6.75C3.88725 4.125 7.88475 2.8125 9 1.5C10.116 2.8125 14.1135 4.125 11.5103 6.75H6.48975ZM12.75 9H5.25C4.1895 9 3.65925 9 3.33 9.33C3 9.6585 3 10.1888 3 11.25V14.25C3 15.3105 3 15.8407 3.33 16.17C3.6585 16.5 4.18875 16.5 5.25 16.5H12.75C13.8105 16.5 14.3407 16.5 14.67 16.17C15 15.8407 15 15.3105 15 14.25V11.25C15 10.1895 15 9.65925 14.67 9.33C14.3415 9 13.8112 9 12.75 9Z" stroke="#0A0A0A" stroke-width="1.5" stroke-linecap="round" stroke-linejoin="round"/>
<path d="M7.125 16.5V14.25C7.11225 12 9 11.25 9 11.25C9 11.25 10.8878 12 10.875 14.25V16.5" stroke="#0A0A0A" stroke-width="1.5" stroke-linecap="round" stroke-linejoin="round"/>
</svg>
