<svg width="28" height="28" viewBox="0 0 28 28" fill="none" xmlns="http://www.w3.org/2000/svg">
<rect width="28" height="28" rx="4" fill="#FDE047"/>
<path d="M5.31639 15.5926C4.99869 13.5244 4.83939 12.4912 5.23089 11.5741C5.62149 10.6579 6.48909 10.0306 8.22339 8.7769L9.51939 7.84C11.6767 6.2803 12.7558 5.5 14.0005 5.5C15.2452 5.5 16.3243 6.2803 18.4816 7.84L19.7776 8.7769C21.5119 10.0306 22.3786 10.6579 22.7701 11.5741C23.1607 12.4912 23.0023 13.5244 22.6846 15.5917L22.4137 17.3557C21.9637 20.2861 21.7378 21.7513 20.6866 22.6261C19.6354 23.5009 18.0991 23.5 15.0256 23.5H12.9745C9.90099 23.5 8.36469 23.5 7.31349 22.6261C6.26229 21.7513 6.03729 20.2861 5.58639 17.3548L5.31639 15.5926Z" stroke="#1E293B" stroke-width="2" stroke-linejoin="round"/>
<path d="M13.3255 15.6251C14.3938 16.6934 15.8005 17.7788 15.8005 17.7788L17.7292 15.8501C17.7292 15.8501 16.6438 14.4434 15.5755 13.3751C14.5072 12.3068 13.1005 11.2214 13.1005 11.2214L11.1718 13.1501C11.1718 13.1501 12.2572 14.5568 13.3255 15.6251ZM13.3255 15.6251L9.9505 19.0001M18.0505 15.5288L15.4792 18.1001M13.4218 10.9001L10.8505 13.4714" stroke="#1E293B" stroke-width="2" stroke-linecap="round" stroke-linejoin="round"/>
</svg>
