<svg width="20" height="20" viewBox="0 0 20 20" fill="none" xmlns="http://www.w3.org/2000/svg">
<path d="M1.31639 11.0926C0.998686 9.0244 0.839386 7.9912 1.23089 7.0741C1.62149 6.1579 2.48909 5.5306 4.22339 4.2769L5.51939 3.34C7.67669 1.7803 8.75579 1 10.0005 1C11.2452 1 12.3243 1.7803 14.4816 3.34L15.7776 4.2769C17.5119 5.5306 18.3786 6.1579 18.7701 7.0741C19.1607 7.9912 19.0023 9.0244 18.6846 11.0917L18.4137 12.8557C17.9637 15.7861 17.7378 17.2513 16.6866 18.1261C15.6354 19.0009 14.0991 19 11.0256 19H8.97449C5.90099 19 4.36469 19 3.31349 18.1261C2.26229 17.2513 2.03729 15.7861 1.58639 12.8548L1.31639 11.0926Z" stroke="#1E293B" stroke-width="2" stroke-linejoin="round"/>
<path d="M9.3255 11.1251C10.3938 12.1934 11.8005 13.2788 11.8005 13.2788L13.7292 11.3501C13.7292 11.3501 12.6438 9.94345 11.5755 8.87515C10.5072 7.80685 9.1005 6.72145 9.1005 6.72145L7.1718 8.65015C7.1718 8.65015 8.2572 10.0568 9.3255 11.1251ZM9.3255 11.1251L5.9505 14.5001M14.0505 11.0288L11.4792 13.6001M9.4218 6.40015L6.8505 8.97145" stroke="#1E293B" stroke-width="2" stroke-linecap="round" stroke-linejoin="round"/>
</svg>
