<svg width="24" height="24" viewBox="0 0 24 24" fill="none" xmlns="http://www.w3.org/2000/svg">
<path d="M2.35105 13.214C1.99805 10.916 1.82105 9.768 2.25605 8.749C2.69005 7.731 3.65405 7.034 5.58105 5.641L7.02105 4.6C9.41805 2.867 10.6171 2 12.0001 2C13.3831 2 14.5821 2.867 16.9791 4.6L18.4191 5.641C20.3461 7.034 21.3091 7.731 21.7441 8.749C22.1781 9.768 22.0021 10.916 21.6491 13.213L21.3481 15.173C20.8481 18.429 20.5971 20.057 19.4291 21.029C18.2611 22.001 16.5541 22 13.1391 22H10.8601C7.44505 22 5.73805 22 4.57005 21.029C3.40205 20.057 3.15205 18.429 2.65105 15.172L2.35105 13.214Z" stroke="white" stroke-width="1.5" stroke-linejoin="round"/>
<path d="M11.25 13.25C12.437 14.437 14 15.643 14 15.643L16.143 13.5C16.143 13.5 14.937 11.937 13.75 10.75C12.563 9.563 11 8.357 11 8.357L8.857 10.5C8.857 10.5 10.063 12.063 11.25 13.25ZM11.25 13.25L7.5 17M16.5 13.143L13.643 16M11.357 8L8.5 10.857" stroke="white" stroke-width="1.5" stroke-linecap="round" stroke-linejoin="round"/>
</svg>
