<svg width="24" height="24" viewBox="0 0 24 24" fill="none" xmlns="http://www.w3.org/2000/svg">
<path d="M15.0002 7.5C15.0002 7.30109 15.0792 7.11032 15.2199 6.96967C15.3605 6.82902 15.5513 6.75 15.7502 6.75H22.5002C22.6991 6.75 22.8899 6.82902 23.0305 6.96967C23.1712 7.11032 23.2502 7.30109 23.2502 7.5C23.2502 7.69891 23.1712 7.88968 23.0305 8.03033C22.8899 8.17098 22.6991 8.25 22.5002 8.25H15.7502C15.5513 8.25 15.3605 8.17098 15.2199 8.03033C15.0792 7.88968 15.0002 7.69891 15.0002 7.5ZM22.5002 15.75H15.7502C15.5513 15.75 15.3605 15.829 15.2199 15.9697C15.0792 16.1103 15.0002 16.3011 15.0002 16.5C15.0002 16.6989 15.0792 16.8897 15.2199 17.0303C15.3605 17.171 15.5513 17.25 15.7502 17.25H22.5002C22.6991 17.25 22.8899 17.171 23.0305 17.0303C23.1712 16.8897 23.2502 16.6989 23.2502 16.5C23.2502 16.3011 23.1712 16.1103 23.0305 15.9697C22.8899 15.829 22.6991 15.75 22.5002 15.75ZM22.5002 9.75H15.7502C15.5513 9.75 15.3605 9.82902 15.2199 9.96967C15.0792 10.1103 15.0002 10.3011 15.0002 10.5C15.0002 10.6989 15.0792 10.8897 15.2199 11.0303C15.3605 11.171 15.5513 11.25 15.7502 11.25H22.5002C22.6991 11.25 22.8899 11.171 23.0305 11.0303C23.1712 10.8897 23.2502 10.6989 23.2502 10.5C23.2502 10.3011 23.1712 10.1103 23.0305 9.96967C22.8899 9.82902 22.6991 9.75 22.5002 9.75ZM22.5002 12.75H15.7502C15.5513 12.75 15.3605 12.829 15.2199 12.9697C15.0792 13.1103 15.0002 13.3011 15.0002 13.5C15.0002 13.6989 15.0792 13.8897 15.2199 14.0303C15.3605 14.171 15.5513 14.25 15.7502 14.25H22.5002C22.6991 14.25 22.8899 14.171 23.0305 14.0303C23.1712 13.8897 23.2502 13.6989 23.2502 13.5C23.2502 13.3011 23.1712 13.1103 23.0305 12.9697C22.8899 12.829 22.6991 12.75 22.5002 12.75ZM13.5002 6V18C13.5002 18.3978 13.3422 18.7794 13.0609 19.0607C12.7796 19.342 12.398 19.5 12.0002 19.5H8.25022C7.26047 19.5 6.28051 19.3042 5.36682 18.9237C4.45313 18.5432 3.62379 17.9856 2.9266 17.2831C2.2294 16.5806 1.67815 15.7471 1.30462 14.8305C0.931094 13.9139 0.742671 12.9325 0.750218 11.9428C0.781156 7.83938 4.18334 4.5 8.33459 4.5H12.0002C12.398 4.5 12.7796 4.65804 13.0609 4.93934C13.3422 5.22064 13.5002 5.60218 13.5002 6ZM12.0002 6H8.33459C5.00459 6 2.27459 8.67094 2.25022 11.9541C2.24416 12.7459 2.39488 13.531 2.69369 14.2643C2.9925 14.9975 3.4335 15.6644 3.99125 16.2264C4.54901 16.7885 5.21249 17.2345 5.94346 17.5389C6.67442 17.8433 7.45841 18 8.25022 18H12.0002V6Z" fill="#0A0A0A"/>
</svg>
