<svg width="18" height="18" viewBox="0 0 18 18" fill="none" xmlns="http://www.w3.org/2000/svg">
<mask id="path-1-inside-1_661_1776" fill="white">
<path d="M11.25 5.625C11.25 5.47582 11.3093 5.33274 11.4147 5.22725C11.5202 5.12176 11.6633 5.0625 11.8125 5.0625H16.875C17.0242 5.0625 17.1673 5.12176 17.2727 5.22725C17.3782 5.33274 17.4375 5.47582 17.4375 5.625C17.4375 5.77418 17.3782 5.91726 17.2727 6.02275C17.1673 6.12824 17.0242 6.1875 16.875 6.1875H11.8125C11.6633 6.1875 11.5202 6.12824 11.4147 6.02275C11.3093 5.91726 11.25 5.77418 11.25 5.625ZM16.875 11.8125H11.8125C11.6633 11.8125 11.5202 11.8718 11.4147 11.9773C11.3093 12.0827 11.25 12.2258 11.25 12.375C11.25 12.5242 11.3093 12.6673 11.4147 12.7727C11.5202 12.8782 11.6633 12.9375 11.8125 12.9375H16.875C17.0242 12.9375 17.1673 12.8782 17.2727 12.7727C17.3782 12.6673 17.4375 12.5242 17.4375 12.375C17.4375 12.2258 17.3782 12.0827 17.2727 11.9773C17.1673 11.8718 17.0242 11.8125 16.875 11.8125ZM16.875 7.3125H11.8125C11.6633 7.3125 11.5202 7.37176 11.4147 7.47725C11.3093 7.58274 11.25 7.72582 11.25 7.875C11.25 8.02418 11.3093 8.16726 11.4147 8.27275C11.5202 8.37824 11.6633 8.4375 11.8125 8.4375H16.875C17.0242 8.4375 17.1673 8.37824 17.2727 8.27275C17.3782 8.16726 17.4375 8.02418 17.4375 7.875C17.4375 7.72582 17.3782 7.58274 17.2727 7.47725C17.1673 7.37176 17.0242 7.3125 16.875 7.3125ZM16.875 9.5625H11.8125C11.6633 9.5625 11.5202 9.62176 11.4147 9.72725C11.3093 9.83274 11.25 9.97582 11.25 10.125C11.25 10.2742 11.3093 10.4173 11.4147 10.5227C11.5202 10.6282 11.6633 10.6875 11.8125 10.6875H16.875C17.0242 10.6875 17.1673 10.6282 17.2727 10.5227C17.3782 10.4173 17.4375 10.2742 17.4375 10.125C17.4375 9.97582 17.3782 9.83274 17.2727 9.72725C17.1673 9.62176 17.0242 9.5625 16.875 9.5625ZM10.125 4.5V13.5C10.125 13.7984 10.0065 14.0845 9.79549 14.2955C9.58451 14.5065 9.29837 14.625 9 14.625H6.1875C5.44519 14.625 4.71022 14.4781 4.02495 14.1928C3.33968 13.9074 2.71767 13.4892 2.19478 12.9623C1.67188 12.4355 1.25845 11.8103 0.9783 11.1229C0.698152 10.4355 0.556836 9.6994 0.562496 8.95711C0.585699 5.87953 3.13734 3.375 6.25078 3.375H9C9.29837 3.375 9.58451 3.49353 9.79549 3.7045C10.0065 3.91548 10.125 4.20163 10.125 4.5ZM9 4.5H6.25078C3.75328 4.5 1.70578 6.5032 1.6875 8.96555C1.68295 9.55939 1.79599 10.1483 2.0201 10.6982C2.24421 11.2482 2.57496 11.7483 2.99327 12.1698C3.41159 12.5913 3.9092 12.9259 4.45743 13.1542C5.00565 13.3825 5.59364 13.5 6.1875 13.5H9V4.5Z"/>
</mask>
<path d="M11.25 5.625C11.25 5.47582 11.3093 5.33274 11.4147 5.22725C11.5202 5.12176 11.6633 5.0625 11.8125 5.0625H16.875C17.0242 5.0625 17.1673 5.12176 17.2727 5.22725C17.3782 5.33274 17.4375 5.47582 17.4375 5.625C17.4375 5.77418 17.3782 5.91726 17.2727 6.02275C17.1673 6.12824 17.0242 6.1875 16.875 6.1875H11.8125C11.6633 6.1875 11.5202 6.12824 11.4147 6.02275C11.3093 5.91726 11.25 5.77418 11.25 5.625ZM16.875 11.8125H11.8125C11.6633 11.8125 11.5202 11.8718 11.4147 11.9773C11.3093 12.0827 11.25 12.2258 11.25 12.375C11.25 12.5242 11.3093 12.6673 11.4147 12.7727C11.5202 12.8782 11.6633 12.9375 11.8125 12.9375H16.875C17.0242 12.9375 17.1673 12.8782 17.2727 12.7727C17.3782 12.6673 17.4375 12.5242 17.4375 12.375C17.4375 12.2258 17.3782 12.0827 17.2727 11.9773C17.1673 11.8718 17.0242 11.8125 16.875 11.8125ZM16.875 7.3125H11.8125C11.6633 7.3125 11.5202 7.37176 11.4147 7.47725C11.3093 7.58274 11.25 7.72582 11.25 7.875C11.25 8.02418 11.3093 8.16726 11.4147 8.27275C11.5202 8.37824 11.6633 8.4375 11.8125 8.4375H16.875C17.0242 8.4375 17.1673 8.37824 17.2727 8.27275C17.3782 8.16726 17.4375 8.02418 17.4375 7.875C17.4375 7.72582 17.3782 7.58274 17.2727 7.47725C17.1673 7.37176 17.0242 7.3125 16.875 7.3125ZM16.875 9.5625H11.8125C11.6633 9.5625 11.5202 9.62176 11.4147 9.72725C11.3093 9.83274 11.25 9.97582 11.25 10.125C11.25 10.2742 11.3093 10.4173 11.4147 10.5227C11.5202 10.6282 11.6633 10.6875 11.8125 10.6875H16.875C17.0242 10.6875 17.1673 10.6282 17.2727 10.5227C17.3782 10.4173 17.4375 10.2742 17.4375 10.125C17.4375 9.97582 17.3782 9.83274 17.2727 9.72725C17.1673 9.62176 17.0242 9.5625 16.875 9.5625ZM10.125 4.5V13.5C10.125 13.7984 10.0065 14.0845 9.79549 14.2955C9.58451 14.5065 9.29837 14.625 9 14.625H6.1875C5.44519 14.625 4.71022 14.4781 4.02495 14.1928C3.33968 13.9074 2.71767 13.4892 2.19478 12.9623C1.67188 12.4355 1.25845 11.8103 0.9783 11.1229C0.698152 10.4355 0.556836 9.6994 0.562496 8.95711C0.585699 5.87953 3.13734 3.375 6.25078 3.375H9C9.29837 3.375 9.58451 3.49353 9.79549 3.7045C10.0065 3.91548 10.125 4.20163 10.125 4.5ZM9 4.5H6.25078C3.75328 4.5 1.70578 6.5032 1.6875 8.96555C1.68295 9.55939 1.79599 10.1483 2.0201 10.6982C2.24421 11.2482 2.57496 11.7483 2.99327 12.1698C3.41159 12.5913 3.9092 12.9259 4.45743 13.1542C5.00565 13.3825 5.59364 13.5 6.1875 13.5H9V4.5Z" fill="#0A0A0A"/>
<path d="M6.1875 14.625L6.1875 4.625L6.18721 4.625L6.1875 14.625ZM0.562496 8.95711L10.5622 9.03336L10.5622 9.0325L0.562496 8.95711ZM9 3.375V-6.625V3.375ZM9 4.5H19V-5.5H9V4.5ZM1.6875 8.96555L11.6872 9.04211L11.6872 9.03979L1.6875 8.96555ZM6.1875 13.5L6.1875 3.5L6.1872 3.5L6.1875 13.5ZM9 13.5V23.5H19V13.5H9ZM11.25 5.625H21.25C21.25 8.12796 20.2557 10.5284 18.4858 12.2983L11.4147 5.22725L4.34368 -1.84382C2.36282 0.13705 1.25 2.82367 1.25 5.625H11.25ZM11.4147 5.22725L18.4858 12.2983C16.7159 14.0682 14.3155 15.0625 11.8125 15.0625V5.0625V-4.9375C9.01115 -4.9375 6.32454 -3.82467 4.34368 -1.84382L11.4147 5.22725ZM11.8125 5.0625V15.0625H16.875V5.0625V-4.9375H11.8125V5.0625ZM16.875 5.0625V15.0625C14.372 15.0625 11.9716 14.0682 10.2017 12.2983L17.2727 5.22725L24.3438 -1.84382C22.363 -3.82467 19.6763 -4.9375 16.875 -4.9375V5.0625ZM17.2727 5.22725L10.2017 12.2983C8.43179 10.5284 7.4375 8.12796 7.4375 5.625H17.4375H27.4375C27.4375 2.82367 26.3247 0.13705 24.3438 -1.84382L17.2727 5.22725ZM17.4375 5.625H7.4375C7.4375 3.12204 8.43179 0.721566 10.2017 -1.04832L17.2727 6.02275L24.3438 13.0938C26.3247 11.113 27.4375 8.42633 27.4375 5.625H17.4375ZM17.2727 6.02275L10.2017 -1.04832C11.9716 -2.8182 14.372 -3.8125 16.875 -3.8125V6.1875V16.1875C19.6763 16.1875 22.363 15.0747 24.3438 13.0938L17.2727 6.02275ZM16.875 6.1875V-3.8125H11.8125V6.1875V16.1875H16.875V6.1875ZM11.8125 6.1875V-3.8125C14.3155 -3.8125 16.7159 -2.8182 18.4858 -1.04832L11.4147 6.02275L4.34368 13.0938C6.32454 15.0747 9.01115 16.1875 11.8125 16.1875V6.1875ZM11.4147 6.02275L18.4858 -1.04832C20.2557 0.721566 21.25 3.12204 21.25 5.625H11.25H1.25C1.25 8.42633 2.36282 11.113 4.34368 13.0938L11.4147 6.02275ZM16.875 11.8125V1.8125H11.8125V11.8125V21.8125H16.875V11.8125ZM11.8125 11.8125V1.8125C9.01117 1.8125 6.32455 2.92531 4.34368 4.90618L11.4147 11.9773L18.4858 19.0483C16.7159 20.8182 14.3154 21.8125 11.8125 21.8125V11.8125ZM11.4147 11.9773L4.34368 4.90618C2.36281 6.88706 1.25 9.57368 1.25 12.375H11.25H21.25C21.25 14.878 20.2557 17.2784 18.4858 19.0483L11.4147 11.9773ZM11.25 12.375H1.25C1.25 15.1763 2.36281 17.8629 4.34368 19.8438L11.4147 12.7727L18.4858 5.70168C20.2557 7.47157 21.25 9.87205 21.25 12.375H11.25ZM11.4147 12.7727L4.34368 19.8438C6.32455 21.8247 9.01117 22.9375 11.8125 22.9375V12.9375V2.9375C14.3154 2.9375 16.7159 3.93179 18.4858 5.70168L11.4147 12.7727ZM11.8125 12.9375V22.9375H16.875V12.9375V2.9375H11.8125V12.9375ZM16.875 12.9375V22.9375C19.6763 22.9375 22.3629 21.8247 24.3438 19.8438L17.2727 12.7727L10.2017 5.70168C11.9716 3.93179 14.372 2.9375 16.875 2.9375V12.9375ZM17.2727 12.7727L24.3438 19.8438C26.3247 17.8629 27.4375 15.1763 27.4375 12.375H17.4375H7.4375C7.4375 9.87205 8.43178 7.47157 10.2017 5.70168L17.2727 12.7727ZM17.4375 12.375H27.4375C27.4375 9.57368 26.3247 6.88706 24.3438 4.90618L17.2727 11.9773L10.2017 19.0483C8.43178 17.2784 7.4375 14.878 7.4375 12.375H17.4375ZM17.2727 11.9773L24.3438 4.90618C22.3629 2.92531 19.6763 1.8125 16.875 1.8125V11.8125V21.8125C14.372 21.8125 11.9716 20.8182 10.2017 19.0483L17.2727 11.9773ZM16.875 7.3125V-2.6875H11.8125V7.3125V17.3125H16.875V7.3125ZM11.8125 7.3125V-2.6875C9.01114 -2.6875 6.32453 -1.57466 4.34368 0.406185L11.4147 7.47725L18.4858 14.5483C16.7159 16.3182 14.3155 17.3125 11.8125 17.3125V7.3125ZM11.4147 7.47725L4.34368 0.406185C2.36282 2.38705 1.25 5.07366 1.25 7.875H11.25H21.25C21.25 10.378 20.2557 12.7784 18.4858 14.5483L11.4147 7.47725ZM11.25 7.875H1.25C1.25 10.6763 2.36282 13.363 4.34368 15.3438L11.4147 8.27275L18.4858 1.20168C20.2557 2.97156 21.25 5.37203 21.25 7.875H11.25ZM11.4147 8.27275L4.34368 15.3438C6.32453 17.3247 9.01114 18.4375 11.8125 18.4375V8.4375V-1.5625C14.3155 -1.5625 16.7159 -0.568192 18.4858 1.20168L11.4147 8.27275ZM11.8125 8.4375V18.4375H16.875V8.4375V-1.5625H11.8125V8.4375ZM16.875 8.4375V18.4375C19.6764 18.4375 22.363 17.3247 24.3438 15.3438L17.2727 8.27275L10.2017 1.20168C11.9715 -0.568192 14.372 -1.5625 16.875 -1.5625V8.4375ZM17.2727 8.27275L24.3438 15.3438C26.3247 13.363 27.4375 10.6763 27.4375 7.875H17.4375H7.4375C7.4375 5.37203 8.43179 2.97156 10.2017 1.20168L17.2727 8.27275ZM17.4375 7.875H27.4375C27.4375 5.07366 26.3247 2.38705 24.3438 0.406185L17.2727 7.47725L10.2017 14.5483C8.43179 12.7784 7.4375 10.378 7.4375 7.875H17.4375ZM17.2727 7.47725L24.3438 0.406185C22.363 -1.57466 19.6764 -2.6875 16.875 -2.6875V7.3125V17.3125C14.372 17.3125 11.9715 16.3182 10.2017 14.5483L17.2727 7.47725ZM16.875 9.5625V-0.4375H11.8125V9.5625V19.5625H16.875V9.5625ZM11.8125 9.5625V-0.4375C9.01117 -0.4375 6.32455 0.675312 4.34368 2.65618L11.4147 9.72725L18.4858 16.7983C16.7159 18.5682 14.3154 19.5625 11.8125 19.5625V9.5625ZM11.4147 9.72725L4.34368 2.65618C2.36281 4.63706 1.25 7.32368 1.25 10.125H11.25H21.25C21.25 12.628 20.2557 15.0284 18.4858 16.7983L11.4147 9.72725ZM11.25 10.125H1.25C1.25 12.9263 2.36281 15.6129 4.34368 17.5938L11.4147 10.5227L18.4858 3.45168C20.2557 5.22157 21.25 7.62205 21.25 10.125H11.25ZM11.4147 10.5227L4.34368 17.5938C6.32455 19.5747 9.01117 20.6875 11.8125 20.6875V10.6875V0.6875C14.3154 0.6875 16.7159 1.68179 18.4858 3.45168L11.4147 10.5227ZM11.8125 10.6875V20.6875H16.875V10.6875V0.6875H11.8125V10.6875ZM16.875 10.6875V20.6875C19.6763 20.6875 22.3629 19.5747 24.3438 17.5938L17.2727 10.5227L10.2017 3.45168C11.9716 1.68179 14.372 0.6875 16.875 0.6875V10.6875ZM17.2727 10.5227L24.3438 17.5938C26.3247 15.6129 27.4375 12.9263 27.4375 10.125H17.4375H7.4375C7.4375 7.62205 8.43178 5.22157 10.2017 3.45168L17.2727 10.5227ZM17.4375 10.125H27.4375C27.4375 7.32368 26.3247 4.63706 24.3438 2.65618L17.2727 9.72725L10.2017 16.7983C8.43178 15.0284 7.4375 12.628 7.4375 10.125H17.4375ZM17.2727 9.72725L24.3438 2.65618C22.3629 0.675312 19.6763 -0.4375 16.875 -0.4375V9.5625V19.5625C14.372 19.5625 11.9716 18.5682 10.2017 16.7983L17.2727 9.72725ZM10.125 4.5H0.124996V13.5H10.125H20.125V4.5H10.125ZM10.125 13.5H0.124996C0.124996 11.1462 1.06005 8.8888 2.72442 7.22443L9.79549 14.2955L16.8666 21.3666C18.9529 19.2802 20.125 16.4506 20.125 13.5H10.125ZM9.79549 14.2955L2.72442 7.22443C4.38879 5.56006 6.64618 4.625 9 4.625V14.625V24.625C11.9506 24.625 14.7802 23.4529 16.8666 21.3666L9.79549 14.2955ZM9 14.625V4.625H6.1875V14.625V24.625H9V14.625ZM6.1875 14.625L6.18721 4.625C6.76456 4.62498 7.3362 4.73924 7.86919 4.96119L4.02495 14.1928L0.180711 23.4243C2.08423 24.217 4.12582 24.6251 6.18779 24.625L6.1875 14.625ZM4.02495 14.1928L7.86919 4.96119C8.40217 5.18314 8.88595 5.50838 9.29265 5.91818L2.19478 12.9623L-4.90309 20.0065C-3.45061 21.4701 -1.72281 22.6317 0.180711 23.4243L4.02495 14.1928ZM2.19478 12.9623L9.29265 5.91818C9.69935 6.32798 10.0209 6.81422 10.2388 7.34887L0.9783 11.1229L-8.2822 14.8969C-7.50401 16.8064 -6.35558 18.5429 -4.90309 20.0065L2.19478 12.9623ZM0.9783 11.1229L10.2388 7.34887C10.4567 7.88353 10.5666 8.45603 10.5622 9.03336L0.562496 8.95711L-9.43721 8.88086C-9.45294 10.9428 -9.06039 12.9874 -8.2822 14.8969L0.9783 11.1229ZM0.562496 8.95711L10.5622 9.0325C10.5432 11.5534 8.52492 13.375 6.25078 13.375V3.375V-6.625C-2.25024 -6.625 -9.37181 0.205621 -9.43722 8.88172L0.562496 8.95711ZM6.25078 3.375V13.375H9V3.375V-6.625H6.25078V3.375ZM9 3.375L9 13.375C6.64619 13.375 4.3888 12.44 2.72442 10.7756L9.79549 3.7045L16.8666 -3.36656C14.7802 -5.4529 11.9505 -6.625 9 -6.625L9 3.375ZM9.79549 3.7045L2.72442 10.7756C1.06005 9.1112 0.124996 6.85381 0.124996 4.5H10.125H20.125C20.125 1.54945 18.9529 -1.28023 16.8666 -3.36656L9.79549 3.7045ZM9 4.5V-5.5H6.25078V4.5V14.5H9V4.5ZM6.25078 4.5V-5.5C-1.60586 -5.5 -8.25217 0.801465 -8.31223 8.89131L1.6875 8.96555L11.6872 9.03979C11.6637 12.2049 9.11241 14.5 6.25078 14.5V4.5ZM1.6875 8.96555L-8.31221 8.88898C-8.32686 10.8025 -7.96262 12.6999 -7.24049 14.472L2.0201 10.6982L11.2807 6.92442C11.5546 7.59657 11.6928 8.3163 11.6872 9.04211L1.6875 8.96555ZM2.0201 10.6982L-7.24049 14.472C-6.51836 16.244 -5.45262 17.8556 -4.10471 19.2139L2.99327 12.1698L10.0913 5.12577C10.6025 5.64096 11.0068 6.25226 11.2807 6.92442L2.0201 10.6982ZM2.99327 12.1698L-4.10471 19.2139C-2.7568 20.5721 -1.15338 21.6501 0.613117 22.3857L4.45743 13.1542L8.30173 3.92265C8.97178 4.20169 9.57998 4.61058 10.0913 5.12577L2.99327 12.1698ZM4.45743 13.1542L0.613117 22.3857C2.37962 23.1214 4.27425 23.5001 6.18779 23.5L6.1875 13.5L6.1872 3.5C6.91303 3.49998 7.63168 3.64362 8.30173 3.92265L4.45743 13.1542ZM6.1875 13.5V23.5H9V13.5V3.5H6.1875V13.5ZM9 13.5H19V4.5H9H-1V13.5H9Z" fill="#0A0A0A" mask="url(#path-1-inside-1_661_1776)"/>
</svg>
