<svg width="18" height="18" viewBox="0 0 18 18" fill="none" xmlns="http://www.w3.org/2000/svg">
<path d="M2 4.75V14.875H9.69727L9.27246 14.4482L7.99707 13.168L8.4375 12.7285L10.8965 15.1875L8.4375 17.6465L7.99707 17.2061L9.27246 15.9268L9.69727 15.5H2.25C1.76763 15.5 1.375 15.1074 1.375 14.625V4.75H2Z" fill="#0A0A0A" stroke="#0A0A0A" stroke-width="0.5"/>
<path d="M6.1875 9.5625C6.49816 9.5625 6.75 9.31066 6.75 9C6.75 8.68934 6.49816 8.4375 6.1875 8.4375C5.87684 8.4375 5.625 8.68934 5.625 9C5.625 9.31066 5.87684 9.5625 6.1875 9.5625Z" fill="#0A0A0A"/>
<path d="M13.5 11.25H4.5C3.87956 11.25 3.375 10.7454 3.375 10.125V7.875C3.375 7.25456 3.87956 6.75 4.5 6.75H13.5C14.1204 6.75 14.625 7.25456 14.625 7.875V10.125C14.625 10.7454 14.1204 11.25 13.5 11.25ZM4.5 7.875V10.125H13.5V7.875H4.5Z" fill="#0A0A0A"/>
<path d="M15.75 2.25H8.90437L10.3556 0.793125L9.5625 0L6.75 2.8125L9.5625 5.625L10.3556 4.83188L8.90437 3.375H15.75V13.5H16.875V3.375C16.875 2.75513 16.3704 2.25 15.75 2.25Z" fill="#0A0A0A"/>
</svg>
