<svg width="18" height="18" viewBox="0 0 18 18" fill="none" xmlns="http://www.w3.org/2000/svg">
<path d="M8.25 5.75H9.75C10.2989 5.75 10.75 6.20114 10.75 6.75V11.25C10.75 11.7989 10.2989 12.25 9.75 12.25H8.25C7.70114 12.25 7.25 11.7989 7.25 11.25V6.75C7.25 6.20114 7.70114 5.75 8.25 5.75ZM13.5 5.75H16V6.25H13V11.75H15.5V8.75H16V11.25C16 11.7989 15.5489 12.25 15 12.25H13.5C12.9511 12.25 12.5 11.7989 12.5 11.25V6.75C12.5 6.20114 12.9511 5.75 13.5 5.75ZM2.5 5.75V11.75H5.5V12.25H2V5.75H2.5ZM7.75 11.75H10.25V6.25H7.75V11.75Z" fill="#0A0A0A" stroke="#0A0A0A"/>
</svg>
