<svg width="24" height="24" viewBox="0 0 24 24" fill="none" xmlns="http://www.w3.org/2000/svg">
<path d="M3 7.5V12C3 13.1819 3.23279 14.3522 3.68508 15.4442C4.13738 16.5361 4.80031 17.5282 5.63604 18.364C6.47177 19.1997 7.46392 19.8626 8.55585 20.3149C9.64778 20.7672 10.8181 21 12 21C13.1819 21 14.3522 20.7672 15.4442 20.3149C16.5361 19.8626 17.5282 19.1997 18.364 18.364C19.1997 17.5282 19.8626 16.5361 20.3149 15.4442C20.7672 14.3522 21 13.1819 21 12V7.5M3 7.5V5C3 4.46957 3.21071 3.96086 3.58579 3.58579C3.96086 3.21071 4.46957 3 5 3H6.625C7.15543 3 7.66414 3.21071 8.03921 3.58579C8.41429 3.96086 8.625 4.46957 8.625 5V7.5M3 7.5H8.625M21 7.5V5C21 4.46957 20.7893 3.96086 20.4142 3.58579C20.0391 3.21071 19.5304 3 19 3H17.375C16.8446 3 16.3359 3.21071 15.9608 3.58579C15.5857 3.96086 15.375 4.46957 15.375 5V7.5M21 7.5H15.375M8.625 7.5V12C8.625 12.8951 8.98058 13.7535 9.61351 14.3865C10.2465 15.0194 11.1049 15.375 12 15.375C12.8951 15.375 13.7535 15.0194 14.3865 14.3865C15.0194 13.7535 15.375 12.8951 15.375 12V7.5" stroke="#0A0A0A" stroke-width="1.5" stroke-linecap="round" stroke-linejoin="round"/>
</svg>
