<svg width="18" height="18" viewBox="0 0 18 18" fill="none" xmlns="http://www.w3.org/2000/svg">
<path d="M2.25 5.625V9C2.25 9.88642 2.42459 10.7642 2.76381 11.5831C3.10303 12.4021 3.60023 13.1462 4.22703 13.773C4.85382 14.3998 5.59794 14.897 6.41689 15.2362C7.23583 15.5754 8.11358 15.75 9 15.75C9.88642 15.75 10.7642 15.5754 11.5831 15.2362C12.4021 14.897 13.1462 14.3998 13.773 13.773C14.3998 13.1462 14.897 12.4021 15.2362 11.5831C15.5754 10.7642 15.75 9.88642 15.75 9V5.625M2.25 5.625V3.75C2.25 3.35218 2.40804 2.97064 2.68934 2.68934C2.97064 2.40804 3.35218 2.25 3.75 2.25H4.96875C5.36657 2.25 5.74811 2.40804 6.02941 2.68934C6.31071 2.97064 6.46875 3.35218 6.46875 3.75V5.625M2.25 5.625H6.46875M15.75 5.625V3.75C15.75 3.35218 15.592 2.97064 15.3107 2.68934C15.0294 2.40804 14.6478 2.25 14.25 2.25H13.0312C12.6334 2.25 12.2519 2.40804 11.9706 2.68934C11.6893 2.97064 11.5312 3.35218 11.5312 3.75V5.625M15.75 5.625H11.5312M6.46875 5.625V9C6.46875 9.67133 6.73543 10.3152 7.21014 10.7899C7.68484 11.2646 8.32867 11.5312 9 11.5312C9.67133 11.5312 10.3152 11.2646 10.7899 10.7899C11.2646 10.3152 11.5312 9.67133 11.5312 9V5.625" stroke="#0A0A0A" stroke-width="1.5" stroke-linecap="round" stroke-linejoin="round"/>
</svg>
