<svg width="18" height="18" viewBox="0 0 18 18" fill="none" xmlns="http://www.w3.org/2000/svg">
<path d="M3.75 11.25C3.75 11.9394 3.8858 12.6221 4.14963 13.2591C4.41347 13.896 4.80018 14.4748 5.28769 14.9623C5.7752 15.4498 6.35395 15.8365 6.99091 16.1004C7.62787 16.3642 8.31056 16.5 9 16.5C9.68944 16.5 10.3721 16.3642 11.0091 16.1004C11.646 15.8365 12.2248 15.4498 12.7123 14.9623C13.1998 14.4748 13.5865 13.896 13.8504 13.2591C14.1142 12.6221 14.25 11.9394 14.25 11.25C14.25 10.5606 14.1142 9.87787 13.8504 9.24091C13.5865 8.60395 13.1998 8.0252 12.7123 7.53769C12.2248 7.05018 11.646 6.66347 11.0091 6.39963C10.3721 6.1358 9.68944 6 9 6C8.31056 6 7.62787 6.1358 6.99091 6.39963C6.35395 6.66347 5.7752 7.05018 5.28769 7.53769C4.80018 8.0252 4.41347 8.60395 4.14963 9.24091C3.8858 9.87787 3.75 10.5606 3.75 11.25Z" stroke="#0A0A0A" stroke-width="1.5"/>
<path d="M9 6L6 3L7.5 1.5H9M9 6L12 3L10.5 1.5H9" stroke="#0A0A0A" stroke-width="1.5"/>
</svg>
