<svg width="28" height="28" viewBox="0 0 28 28" fill="none" xmlns="http://www.w3.org/2000/svg">
<rect width="28" height="28" rx="4" fill="#FDE047"/>
<path d="M11 9.20413V23.3132M17 5.5V19.7506M5 11.3122C5 9.81182 5 9.06264 5.393 8.62495C5.53209 8.46924 5.70129 8.34448 5.89 8.2585C6.422 8.01828 7.121 8.25545 8.519 8.72979C9.586 9.09216 10.119 9.27335 10.659 9.25401C10.8571 9.24738 11.0541 9.22078 11.247 9.17461C11.772 9.04737 12.24 8.72979 13.176 8.09564L14.558 7.15714C15.758 6.34282 16.357 5.93566 17.045 5.84303C17.733 5.74837 18.417 5.98045 19.784 6.44461L20.949 6.83955C21.939 7.17546 22.434 7.34341 22.717 7.74345C23 8.14348 23 8.67584 23 9.73649V18.011C23 19.5103 23 20.2605 22.607 20.6982C22.4677 20.8532 22.2985 20.9773 22.11 21.0626C21.578 21.3039 20.879 21.0667 19.481 20.5924C18.414 20.23 17.881 20.0488 17.341 20.0682C17.1429 20.0748 16.9459 20.1014 16.753 20.1476C16.228 20.2748 15.76 20.5924 14.824 21.2265L13.442 22.165C12.242 22.9793 11.643 23.3865 10.955 23.4791C10.267 23.5738 9.583 23.3417 8.216 22.8776L7.051 22.4826C6.061 22.1467 5.566 21.9788 5.283 21.5787C5 21.1787 5 20.6463 5 19.5857V11.3122Z" stroke="#1E293B" stroke-width="2"/>
</svg>
