<svg width="20" height="20" viewBox="0 0 20 20" fill="none" xmlns="http://www.w3.org/2000/svg">
<path d="M7 4.38113V18.4902M13 0.677002V14.9276M1 6.4892C1 4.98882 1 4.23965 1.393 3.80195C1.53209 3.64624 1.70129 3.52148 1.89 3.43551C2.422 3.19528 3.121 3.43245 4.519 3.90679C5.586 4.26916 6.119 4.45035 6.659 4.43101C6.8571 4.42438 7.05406 4.39779 7.247 4.35161C7.772 4.22438 8.24 3.90679 9.176 3.27264L10.558 2.33414C11.758 1.51982 12.357 1.11266 13.045 1.02003C13.733 0.925369 14.417 1.15745 15.784 1.62161L16.949 2.01656C17.939 2.35246 18.434 2.52042 18.717 2.92045C19 3.32048 19 3.85284 19 4.91349V13.188C19 14.6874 19 15.4375 18.607 15.8752C18.4677 16.0302 18.2985 16.1543 18.11 16.2396C17.578 16.4809 16.879 16.2437 15.481 15.7694C14.414 15.407 13.881 15.2258 13.341 15.2452C13.1429 15.2518 12.9459 15.2784 12.753 15.3246C12.228 15.4518 11.76 15.7694 10.824 16.4035L9.442 17.342C8.242 18.1563 7.643 18.5635 6.955 18.6561C6.267 18.7508 5.583 18.5187 4.216 18.0546L3.051 17.6596C2.061 17.3237 1.566 17.1558 1.283 16.7557C1 16.3557 1 15.8233 1 14.7627V6.4892Z" stroke="#1E293B" stroke-width="2"/>
</svg>
