<svg width="24" height="24" viewBox="0 0 24 24" fill="none" xmlns="http://www.w3.org/2000/svg">
<path d="M5 15C5 15.9193 5.18106 16.8295 5.53284 17.6788C5.88463 18.5281 6.40024 19.2997 7.05025 19.9497C7.70026 20.5998 8.47194 21.1154 9.32122 21.4672C10.1705 21.8189 11.0807 22 12 22C12.9193 22 13.8295 21.8189 14.6788 21.4672C15.5281 21.1154 16.2997 20.5998 16.9497 19.9497C17.5998 19.2997 18.1154 18.5281 18.4672 17.6788C18.8189 16.8295 19 15.9193 19 15C19 14.0807 18.8189 13.1705 18.4672 12.3212C18.1154 11.4719 17.5998 10.7003 16.9497 10.0503C16.2997 9.40024 15.5281 8.88463 14.6788 8.53284C13.8295 8.18106 12.9193 8 12 8C11.0807 8 10.1705 8.18106 9.32122 8.53284C8.47194 8.88463 7.70026 9.40024 7.05025 10.0503C6.40024 10.7003 5.88463 11.4719 5.53284 12.3212C5.18106 13.1705 5 14.0807 5 15Z" stroke="white" stroke-width="1.5"/>
<path d="M12 8L8 4L10 2H12M12 8L16 4L14 2H12" stroke="white" stroke-width="1.5"/>
</svg>
