<svg width="18" height="18" viewBox="0 0 18 18" fill="none" xmlns="http://www.w3.org/2000/svg">
<path d="M15 7.5V5.25L11.25 1.5H3V16.5H15M10.5 1.5V6H15" stroke="#0A0A0A" stroke-width="1.5" stroke-linecap="square"/>
<path d="M5.25 12V9.75H7.2855C7.404 9.75 7.5 9.846 7.5 9.9645V11.7855C7.5 11.8424 7.4774 11.8969 7.43717 11.9372C7.39695 11.9774 7.34239 12 7.2855 12H5.25ZM5.25 12V14.25M15.5002 9.75H13.7145C13.6576 9.75 13.6031 9.7726 13.5628 9.81283C13.5226 9.85305 13.5 9.90761 13.5 9.9645V12M13.5 12H15.5002M13.5 12V14.25M9.375 9.75V14.25H11.4105C11.4674 14.25 11.5219 14.2274 11.5622 14.1872C11.6024 14.1469 11.625 14.0924 11.625 14.0355V9.9645C11.625 9.90761 11.6024 9.85305 11.5622 9.81283C11.5219 9.7726 11.4674 9.75 11.4105 9.75H9.375Z" stroke="#0A0A0A" stroke-width="1.5" stroke-linecap="square"/>
</svg>
