<svg width="24" height="24" viewBox="0 0 24 24" fill="none" xmlns="http://www.w3.org/2000/svg">
<path d="M2.5 4C2.5 3.73478 2.60536 3.48043 2.79289 3.29289C2.98043 3.10536 3.23478 3 3.5 3H9.5L12 6H20.5C20.7652 6 21.0196 6.10536 21.2071 6.29289C21.3946 6.48043 21.5 6.73478 21.5 7V20C21.5 20.2652 21.3946 20.5196 21.2071 20.7071C21.0196 20.8946 20.7652 21 20.5 21H3.5C3.23478 21 2.98043 20.8946 2.79289 20.7071C2.60536 20.5196 2.5 20.2652 2.5 20V4Z" stroke="white" stroke-width="1.5" stroke-linejoin="round"/>
<path d="M7 11L9.5 13.5L7 16" stroke="white" stroke-width="1.5" stroke-linecap="round" stroke-linejoin="round"/>
<path d="M13 16H17" stroke="white" stroke-width="1.5" stroke-linecap="round"/>
</svg>
