<svg width="24" height="24" viewBox="0 0 24 24" fill="none" xmlns="http://www.w3.org/2000/svg">
<path d="M21 21H9.4C7.16 21 6.04 21 5.184 20.564C4.43139 20.1805 3.81949 19.5686 3.436 18.816C3 17.96 3 16.84 3 14.6V3" stroke="white" stroke-width="1.5" stroke-linecap="round" stroke-linejoin="round"/>
<path d="M11.89 11.796L7.756 7.02602C7.149 6.32602 6 6.75502 6 7.68002V16C6 16.5304 6.21071 17.0392 6.58579 17.4142C6.96086 17.7893 7.46957 18 8 18H17.348C17.685 18.0001 18.0165 17.9151 18.3118 17.7528C18.6071 17.5905 18.8566 17.3562 19.0372 17.0717C19.2178 16.7872 19.3235 16.4617 19.3446 16.1254C19.3657 15.7891 19.3015 15.4529 19.158 15.148L17.023 10.611C16.9598 10.4767 16.8674 10.3581 16.7526 10.2639C16.6378 10.1697 16.5035 10.1022 16.3594 10.0664C16.2153 10.0306 16.065 10.0273 15.9194 10.0568C15.7739 10.0863 15.6368 10.1479 15.518 10.237L13.245 11.941C13.0427 12.0926 12.7904 12.162 12.539 12.1351C12.2876 12.1082 12.0557 11.987 11.89 11.796Z" stroke="white" stroke-width="1.5" stroke-linecap="round" stroke-linejoin="round"/>
</svg>
