<svg width="24" height="24" viewBox="0 0 24 24" fill="none" xmlns="http://www.w3.org/2000/svg">
<path d="M5.00105 14C5.00105 11.778 4.81605 4 8.50105 4C10.4341 4 12.0011 7.582 12.0011 12C12.0011 16.418 13.5671 20 15.5001 20C19.1861 20 19.0001 12.222 19.0001 10" stroke="white" stroke-width="1.5" stroke-linecap="round"/>
<path d="M2 12H5M19 12H22M8 12H16" stroke="white" stroke-width="1.5" stroke-linecap="round" stroke-linejoin="round"/>
<path d="M20.915 2.833C20.709 2.348 20.153 2 19.5 2C18.672 2 18 2.56 18 3.25C18 3.94 18.672 4.5 19.5 4.5C20.328 4.5 21 5.06 21 5.75C21 6.44 20.328 7 19.5 7C18.847 7 18.291 6.652 18.085 6.167M5.544 17C4.69 17 4 17.672 4 18.5V20.5C4 21.328 4.691 22 5.544 22M5.544 17C6.216 17 6.788 17.417 7 18M5.544 17C4.872 17 4.3 17.417 4.088 18M5.544 22C5.22803 22.0028 4.91885 21.9084 4.65838 21.7295C4.39792 21.5506 4.19879 21.2959 4.088 21M5.544 22C6.216 22 6.788 21.583 7 21" stroke="white" stroke-width="1.5" stroke-linecap="round"/>
</svg>
