<svg width="24" height="24" viewBox="0 0 24 24" fill="none" xmlns="http://www.w3.org/2000/svg">
<path d="M11.5138 2.093C11.8268 1.969 12.1738 1.969 12.4858 2.093C13.4918 2.494 13.6888 4.037 14.8758 4.123C15.7118 4.183 16.5328 3.487 17.3718 3.696C17.7098 3.78 18.0018 3.996 18.1858 4.296C18.7468 5.218 18.0228 6.573 18.9378 7.338C19.5738 7.868 20.6248 7.8 21.1778 8.451C21.4108 8.725 21.5248 9.083 21.4948 9.444C21.4068 10.517 20.0388 11.188 20.3398 12.344C20.5468 13.144 21.4248 13.707 21.4948 14.556C21.5099 14.7342 21.4896 14.9137 21.4352 15.0841C21.3808 15.2545 21.2934 15.4125 21.1778 15.549C20.4828 16.367 18.9808 16.098 18.5478 17.206C18.2428 17.984 18.6338 18.968 18.1858 19.703C18.0043 20.0028 17.7117 20.2187 17.3718 20.304C16.3298 20.564 15.2718 19.444 14.2698 20.076C13.5538 20.526 13.2978 21.584 12.4858 21.906C12.174 22.0317 11.8256 22.0317 11.5138 21.906C10.7018 21.584 10.4458 20.526 9.72983 20.076C8.73983 19.452 7.65183 20.559 6.62783 20.304C6.28808 20.219 5.99558 20.0034 5.81383 19.704C5.25283 18.782 5.97683 17.427 5.06183 16.662C4.42583 16.132 3.37483 16.2 2.82183 15.549C2.70628 15.4125 2.61881 15.2545 2.56442 15.0841C2.51002 14.9137 2.48977 14.7342 2.50483 14.556C2.57483 13.707 3.45183 13.144 3.66083 12.344C3.95783 11.2 2.59183 10.501 2.50483 9.444C2.48977 9.26577 2.51002 9.08632 2.56442 8.91592C2.61881 8.74553 2.70628 8.58754 2.82183 8.451C3.51683 7.633 5.01883 7.903 5.45183 6.794C5.75683 6.016 5.36583 5.032 5.81383 4.297C5.99683 3.996 6.28883 3.78 6.62783 3.696C7.46783 3.486 8.28783 4.184 9.12383 4.123C10.3108 4.037 10.5078 2.494 11.5138 2.093Z" stroke="white" stroke-width="1.5" stroke-linejoin="round"/>
<path d="M9 13.333C9 13.333 9.875 13.333 10.75 15C10.75 15 13.53 10.833 16 10" stroke="white" stroke-width="1.5" stroke-linecap="round" stroke-linejoin="round"/>
</svg>
