<svg width="24" height="24" viewBox="0 0 24 24" fill="none" xmlns="http://www.w3.org/2000/svg">
<path d="M12.0002 3C10.7302 3 9.60018 3.8 9.18018 5H3.00018V7H4.95018L2.00018 14C1.53018 16 3.00018 17 5.50018 17C8.00018 17 9.56018 16 9.00018 14L6.05018 7H9.17018C9.50018 7.85 10.1502 8.5 11.0002 8.83V20H2.00018V22H22.0002V20H13.0002V8.82C13.8502 8.5 14.5002 7.85 14.8202 7H17.9502L15.0002 14C14.5302 16 16.0002 17 18.5002 17C21.0002 17 22.5602 16 22.0002 14L19.0502 7H21.0002V5H14.8302C14.4002 3.8 13.2702 3 12.0002 3ZM12.0002 5C12.2654 5 12.5197 5.10536 12.7073 5.29289C12.8948 5.48043 13.0002 5.73478 13.0002 6C13.0002 6.26522 12.8948 6.51957 12.7073 6.70711C12.5197 6.89464 12.2654 7 12.0002 7C11.735 7 11.4806 6.89464 11.2931 6.70711C11.1055 6.51957 11.0002 6.26522 11.0002 6C11.0002 5.73478 11.1055 5.48043 11.2931 5.29289C11.4806 5.10536 11.735 5 12.0002 5ZM5.50018 10.25L7.00018 14H4.00018L5.50018 10.25ZM18.5002 10.25L20.0002 14H17.0002L18.5002 10.25Z" fill="white"/>
</svg>
