<svg width="18" height="18" viewBox="0 0 18 18" fill="none" xmlns="http://www.w3.org/2000/svg">
<g clip-path="url(#clip0_664_3539)">
<path d="M6.37501 9.75C5.03438 10.0793 3.59176 10.5397 2.63026 10.8637C1.93126 11.0989 1.40251 11.6753 1.28588 12.4035C1.25055 12.6241 1.22042 12.8456 1.19551 13.0676C1.11863 13.7576 1.60801 14.3389 2.29913 14.403C3.41476 14.5069 5.46263 14.625 9.00038 14.625C12.5378 14.625 14.5856 14.5069 15.7013 14.403C16.3928 14.3389 16.8818 13.758 16.8049 13.0676C16.7801 12.8456 16.7501 12.6241 16.7149 12.4035C16.5979 11.6753 16.0691 11.0985 15.3701 10.8634C14.409 10.5397 12.9664 10.0796 11.6254 9.75H6.37501Z" stroke="#0A0A0A" stroke-width="1.5" stroke-linecap="round" stroke-linejoin="round"/>
<path d="M2.31112 14.4037C2.30012 14.5657 2.291 14.7269 2.28375 14.8871C2.26158 15.3305 2.41309 15.7651 2.7061 16.0985C2.99912 16.432 3.41058 16.6382 3.85312 16.6733C5.00925 16.7715 6.75937 16.875 9 16.875C11.241 16.875 12.9907 16.7715 14.1469 16.6733C14.5894 16.6382 15.0009 16.432 15.2939 16.0985C15.5869 15.7651 15.7384 15.3305 15.7162 14.8871C15.7087 14.7269 15.6997 14.5659 15.6892 14.4041M11.5939 9.75C11.7544 8.32725 11.9865 6.33525 12.2302 3.384C12.3191 2.30625 11.6152 1.32525 10.5397 1.20975C10.0283 1.15444 9.51438 1.12615 9 1.125C8.44387 1.125 7.92112 1.16025 7.46025 1.20975C6.38512 1.32525 5.68087 2.30625 5.77012 3.384C6.01387 6.33525 6.24562 8.32763 6.40612 9.75" stroke="#0A0A0A" stroke-width="1.5" stroke-linecap="round" stroke-linejoin="round"/>
</g>
<defs>
<clipPath id="clip0_664_3539">
<rect width="18" height="18" fill="white"/>
</clipPath>
</defs>
</svg>
