<svg width="18" height="18" viewBox="0 0 18 18" fill="none" xmlns="http://www.w3.org/2000/svg">
<path d="M1.5 9C1.5 6.17175 1.5 4.75725 2.379 3.879C3.258 3.00075 4.67175 3 7.5 3H10.5C13.3282 3 14.7427 3 15.621 3.879C16.4992 4.758 16.5 6.17175 16.5 9C16.5 11.8282 16.5 13.2427 15.621 14.121C14.742 14.9992 13.3282 15 10.5 15H7.5C4.67175 15 3.25725 15 2.379 14.121C1.50075 13.242 1.5 11.8282 1.5 9Z" stroke="#0A0A0A" stroke-width="1.5"/>
<path d="M9 7.5V10.5M7.701 8.25L10.299 9.75M10.299 8.25L7.701 9.75M5.04975 7.5V10.5M3.75 8.25L6.348 9.75M6.348 8.25L3.75 9.75M12.951 7.5V10.5M11.652 8.25L14.25 9.75M14.25 8.25L11.6512 9.75" stroke="#0A0A0A" stroke-linecap="round"/>
</svg>
