<svg width="18" height="18" viewBox="0 0 18 18" fill="none" xmlns="http://www.w3.org/2000/svg">
<path d="M12.7507 10.9985C13.7196 10.9985 14.5007 11.7797 14.5007 12.7485C14.5007 13.7174 13.7196 14.4985 12.7507 14.4985C11.7819 14.4985 11.0007 13.7174 11.0007 12.7485C11.0007 11.7797 11.7819 10.9985 12.7507 10.9985ZM14.6687 4.12354L4.12573 14.6665L3.33276 13.8735L13.8757 3.33057L14.6687 4.12354ZM12.7507 11.4985C12.0621 11.4985 11.5007 12.0599 11.5007 12.7485C11.5007 13.4372 12.0621 13.9985 12.7507 13.9985C13.4394 13.9985 14.0007 13.4372 14.0007 12.7485C14.0007 12.0599 13.4394 11.4985 12.7507 11.4985ZM5.25073 3.49854C6.21959 3.49854 7.00073 4.27968 7.00073 5.24854C7.00073 6.21739 6.21959 6.99854 5.25073 6.99854C4.28187 6.99854 3.50073 6.21739 3.50073 5.24854C3.50073 4.27968 4.28187 3.49854 5.25073 3.49854ZM5.25073 3.99854C4.56209 3.99854 4.00073 4.55989 4.00073 5.24854C4.00073 5.93718 4.56209 6.49854 5.25073 6.49854C5.93937 6.49854 6.50073 5.93718 6.50073 5.24854C6.50073 4.55989 5.93937 3.99854 5.25073 3.99854Z" fill="#0A0A0A" stroke="#0A0A0A"/>
</svg>
