<svg width="24" height="24" viewBox="0 0 24 24" fill="none" xmlns="http://www.w3.org/2000/svg">
<path d="M17.001 14.498C18.3848 14.498 19.501 15.6142 19.501 16.998C19.501 18.3819 18.3848 19.498 17.001 19.498C15.6171 19.498 14.501 18.3819 14.501 16.998C14.501 15.6142 15.6171 14.498 17.001 14.498ZM19.7939 5.49805L5.50098 19.791L4.20801 18.498L18.501 4.20508L19.7939 5.49805ZM17.001 15.498C16.1748 15.498 15.501 16.1719 15.501 16.998C15.501 17.8242 16.1748 18.498 17.001 18.498C17.8271 18.498 18.501 17.8242 18.501 16.998C18.501 16.1719 17.8271 15.498 17.001 15.498ZM7.00098 4.49805C8.38483 4.49805 9.50098 5.61419 9.50098 6.99805C9.50098 8.3819 8.38483 9.49805 7.00098 9.49805C5.61712 9.49805 4.50098 8.3819 4.50098 6.99805C4.50098 5.61419 5.61712 4.49805 7.00098 4.49805ZM7.00098 5.49805C6.17483 5.49805 5.50098 6.1719 5.50098 6.99805C5.50098 7.82419 6.17483 8.49805 7.00098 8.49805C7.82712 8.49805 8.50098 7.82419 8.50098 6.99805C8.50098 6.1719 7.82712 5.49805 7.00098 5.49805Z" fill="#0A0A0A" stroke="#0A0A0A"/>
</svg>
