<svg width="24" height="24" viewBox="0 0 24 24" fill="none" xmlns="http://www.w3.org/2000/svg">
<path d="M12 5.79303C13.1874 6.65884 14.3049 7.6168 15.342 8.65803C16.3832 9.69512 17.3412 10.8126 18.207 12M12 5.79303C10.8125 6.65884 9.69506 7.6168 8.65797 8.65803C7.61674 9.69512 6.65878 10.8126 5.79297 12M12 5.79303C15.57 3.20903 18.947 2.23903 20.354 3.64603C21.761 5.05303 20.791 8.43003 18.207 12M18.207 12C20.791 15.57 21.761 18.947 20.354 20.354C19.311 21.397 17.184 21.134 14.7 19.874M18.207 12C17.3412 13.1875 16.3832 14.3049 15.342 15.342C14.3049 16.3833 13.1874 17.3412 12 18.207M5.79297 12C6.65878 13.1875 7.61674 14.3049 8.65797 15.342C9.69506 16.3833 10.8125 17.3412 12 18.207M5.79297 12C3.20897 15.57 2.23897 18.947 3.64597 20.354C5.05297 21.761 8.42997 20.791 12 18.207M5.79297 12C3.20997 8.43003 2.23997 5.05303 3.64597 3.64603C4.68897 2.60303 6.81597 2.86603 9.29997 4.12603" stroke="#0A0A0A" stroke-width="1.5" stroke-linecap="round"/>
<path d="M12 14C13.1046 14 14 13.1046 14 12C14 10.8954 13.1046 10 12 10C10.8954 10 10 10.8954 10 12C10 13.1046 10.8954 14 12 14Z" stroke="#0A0A0A" stroke-width="1.5"/>
</svg>
