<svg width="18" height="18" viewBox="0 0 18 18" fill="none" xmlns="http://www.w3.org/2000/svg">
<path d="M9.00001 4.34473C9.8906 4.99409 10.7287 5.71256 11.5065 6.49347C12.2874 7.27129 13.0059 8.10938 13.6553 8.99997M9.00001 4.34473C8.10941 4.99409 7.27132 5.71256 6.49351 6.49347C5.71259 7.27129 4.99412 8.10938 4.34476 8.99997M9.00001 4.34473C11.6775 2.40673 14.2103 1.67922 15.2655 2.73447C16.3208 3.78972 15.5933 6.32248 13.6553 8.99997M13.6553 8.99997C15.5933 11.6775 16.3208 14.2102 15.2655 15.2655C14.4833 16.0477 12.888 15.8505 11.025 14.9055M13.6553 8.99997C13.0059 9.89057 12.2874 10.7287 11.5065 11.5065C10.7287 12.2874 9.8906 13.0059 9.00001 13.6552M4.34476 8.99997C4.99412 9.89057 5.71259 10.7287 6.49351 11.5065C7.27132 12.2874 8.10941 13.0059 9.00001 13.6552M4.34476 8.99997C2.40676 11.6775 1.67926 14.2102 2.73451 15.2655C3.78976 16.3207 6.32251 15.5932 9.00001 13.6552M4.34476 8.99997C2.40751 6.32248 1.68001 3.78972 2.73451 2.73447C3.51676 1.95222 5.11201 2.14947 6.97501 3.09447" stroke="#0A0A0A" stroke-width="1.5" stroke-linecap="round"/>
<path d="M9 10.5C9.82843 10.5 10.5 9.82843 10.5 9C10.5 8.17157 9.82843 7.5 9 7.5C8.17157 7.5 7.5 8.17157 7.5 9C7.5 9.82843 8.17157 10.5 9 10.5Z" stroke="#0A0A0A" stroke-width="1.5"/>
</svg>
