<svg width="18" height="18" viewBox="0 0 18 18" fill="none" xmlns="http://www.w3.org/2000/svg">
<path d="M15.15 10.3477H10.95C10.7908 10.3477 10.6382 10.4109 10.5257 10.5234C10.4132 10.6359 10.35 10.7885 10.35 10.9477V15.1477C10.35 15.3068 10.4132 15.4594 10.5257 15.5719C10.6382 15.6844 10.7908 15.7477 10.95 15.7477H15.15C15.3091 15.7477 15.4617 15.6844 15.5742 15.5719C15.6868 15.4594 15.75 15.3068 15.75 15.1477V10.9477C15.75 10.7885 15.6868 10.6359 15.5742 10.5234C15.4617 10.4109 15.3091 10.3477 15.15 10.3477Z" stroke="#0A0A0A" stroke-linecap="round" stroke-linejoin="round"/>
<path d="M12.2064 12.3162C12.1467 12.3162 12.0895 12.2925 12.0473 12.2503C12.0051 12.2081 11.9814 12.1509 11.9814 12.0912C11.9814 12.0315 12.0051 11.9743 12.0473 11.9321C12.0895 11.8899 12.1467 11.8662 12.2064 11.8662M12.2064 12.3162C12.2661 12.3162 12.3233 12.2925 12.3655 12.2503C12.4077 12.2081 12.4314 12.1509 12.4314 12.0912C12.4314 12.0315 12.4077 11.9743 12.3655 11.9321C12.3233 11.8899 12.2661 11.8662 12.2064 11.8662" stroke="#0A0A0A" stroke-width="1.5"/>
<path d="M15.681 15.1938L14.3538 13.2036C14.3112 13.1398 14.2531 13.088 14.1849 13.053C14.1166 13.018 14.0406 13.001 13.9639 13.0036C13.8873 13.0063 13.8126 13.0284 13.747 13.0681C13.6813 13.1077 13.6269 13.1634 13.5888 13.23L12.1488 15.75M8.55 15.75H3.15C2.91131 15.75 2.68239 15.6552 2.5136 15.4864C2.34482 15.3176 2.25 15.0887 2.25 14.85V3.15C2.25 2.91131 2.34482 2.68239 2.5136 2.5136C2.68239 2.34482 2.91131 2.25 3.15 2.25H12.15C12.3847 2.25002 12.6101 2.34174 12.7782 2.5056L14.5782 4.2354C14.6642 4.31924 14.7326 4.41945 14.7793 4.53012C14.8259 4.64079 14.85 4.75969 14.85 4.8798V8.55M4.95 6.75H12.15M4.95 9.45H8.55M4.95 12.15H8.55" stroke="#0A0A0A" stroke-linecap="round" stroke-linejoin="round"/>
</svg>
