<svg width="24" height="24" viewBox="0 0 24 24" fill="none" xmlns="http://www.w3.org/2000/svg">
<path d="M9.30021 5.68099C10.6382 3.85699 13.3622 3.85699 14.7002 5.68099L15.4682 6.72699C17.1271 8.98921 18.166 11.6456 18.4822 14.433C18.6264 15.7093 18.3135 16.9953 17.5991 18.0627C16.8847 19.1301 15.8151 19.9097 14.5802 20.263L13.8122 20.483C12.6279 20.8211 11.3725 20.8211 10.1882 20.483L9.42021 20.263C8.18537 19.9097 7.11574 19.1301 6.40135 18.0627C5.68695 16.9953 5.37405 15.7093 5.51821 14.433C5.83467 11.6455 6.874 8.98911 8.53321 6.72699L9.30021 5.68099Z" stroke="white" stroke-width="2"/>
</svg>
