<svg width="24" height="24" viewBox="0 0 24 24" fill="none" xmlns="http://www.w3.org/2000/svg">
<g clip-path="url(#clip0_323_5169)">
<path d="M9.75 12C9.55109 12 9.36032 12.079 9.21967 12.2197C9.07902 12.3603 9 12.5511 9 12.75C9 12.9489 9.07902 13.1397 9.21967 13.2803C9.36032 13.421 9.55109 13.5 9.75 13.5C9.94891 13.5 10.1397 13.421 10.2803 13.2803C10.421 13.1397 10.5 12.9489 10.5 12.75C10.5 12.5511 10.421 12.3603 10.2803 12.2197C10.1397 12.079 9.94891 12 9.75 12ZM12.75 12C12.5511 12 12.3603 12.079 12.2197 12.2197C12.079 12.3603 12 12.5511 12 12.75C12 12.9489 12.079 13.1397 12.2197 13.2803C12.3603 13.421 12.5511 13.5 12.75 13.5C12.9489 13.5 13.1397 13.421 13.2803 13.2803C13.421 13.1397 13.5 12.9489 13.5 12.75C13.5 12.5511 13.421 12.3603 13.2803 12.2197C13.1397 12.079 12.9489 12 12.75 12ZM15 12.75C15 12.5511 15.079 12.3603 15.2197 12.2197C15.3603 12.079 15.5511 12 15.75 12C15.9489 12 16.1397 12.079 16.2803 12.2197C16.421 12.3603 16.5 12.5511 16.5 12.75C16.5 12.9489 16.421 13.1397 16.2803 13.2803C16.1397 13.421 15.9489 13.5 15.75 13.5C15.5511 13.5 15.3603 13.421 15.2197 13.2803C15.079 13.1397 15 12.9489 15 12.75ZM18.75 12C18.5511 12 18.3603 12.079 18.2197 12.2197C18.079 12.3603 18 12.5511 18 12.75C18 12.9489 18.079 13.1397 18.2197 13.2803C18.3603 13.421 18.5511 13.5 18.75 13.5C18.9489 13.5 19.1397 13.421 19.2803 13.2803C19.421 13.1397 19.5 12.9489 19.5 12.75C19.5 12.5511 19.421 12.3603 19.2803 12.2197C19.1397 12.079 18.9489 12 18.75 12Z" fill="white"/>
<path fill-rule="evenodd" clip-rule="evenodd" d="M5.94007 0.471025C5.8588 0.297265 5.71415 0.161163 5.53578 0.090604C5.3574 0.0200447 5.15879 0.0203702 4.98064 0.0915138C4.80249 0.162657 4.6583 0.299233 4.57759 0.473257C4.49689 0.647282 4.48579 0.845581 4.54657 1.02752L7.14157 7.49252H6.00007C4.60507 7.49252 3.91507 7.49253 3.33007 7.64552C2.56767 7.8501 1.8725 8.25163 1.31434 8.80979C0.756171 9.36796 0.354647 10.0631 0.15007 10.8255C-0.00292969 11.397 -0.00292969 12.0945 -0.00292969 13.4955C-0.00292969 14.8965 -0.00292969 15.5805 0.15007 16.1655C0.354647 16.9279 0.756171 17.6231 1.31434 18.1813C1.8725 18.7394 2.56767 19.1409 3.33007 19.3455C3.90307 19.4985 4.59907 19.4985 6.00007 19.4985H18.0001C19.3951 19.4985 20.1001 19.4985 20.6701 19.3455C21.4325 19.1409 22.1276 18.7394 22.6858 18.1813C23.244 17.6231 23.6455 16.9279 23.8501 16.1655C24.0031 15.5925 24.0031 14.895 24.0031 13.4955C24.0031 12.096 24.0031 11.4105 23.8501 10.8255C23.6455 10.0631 23.244 9.36796 22.6858 8.80979C22.1276 8.25163 21.4325 7.8501 20.6701 7.64552C20.0971 7.49253 19.4011 7.49252 18.0001 7.49252H16.8571L19.4521 1.02752C19.4926 0.935397 19.5142 0.836051 19.5155 0.735404C19.5169 0.634757 19.498 0.534871 19.4599 0.441695C19.4218 0.348519 19.3654 0.26396 19.2939 0.193058C19.2225 0.122155 19.1375 0.0663587 19.044 0.0289936C18.9506 -0.00837155 18.8505 -0.0265411 18.7499 -0.0244326C18.6493 -0.022324 18.5501 1.95131e-05 18.4583 0.0412668C18.3665 0.082514 18.2839 0.141821 18.2155 0.215654C18.1471 0.289487 18.0942 0.376336 18.0601 0.471025L15.2551 7.50603H8.77507L5.97007 0.471025H5.94007ZM15.7651 9.00603H5.98807C4.49707 9.00603 4.03807 9.01952 3.70807 9.10802C2.67307 9.38552 1.86307 10.194 1.59307 11.223C1.50307 11.556 1.49107 12.0075 1.49107 13.503C1.49107 14.9985 1.50457 15.453 1.59307 15.783C1.87057 16.818 2.67907 17.628 3.70807 17.898C4.04107 17.988 4.49257 18 5.98807 18H17.9881C19.4791 18 19.9381 17.988 20.2681 17.898C20.7755 17.7627 21.2382 17.4959 21.6096 17.1245C21.9809 16.7532 22.2477 16.2905 22.3831 15.783C22.4731 15.45 22.4851 14.9985 22.4851 13.503C22.4851 12.0075 22.4731 11.553 22.3831 11.223C22.2477 10.7156 21.9809 10.2529 21.6096 9.8815C21.2382 9.51016 20.7755 9.24335 20.2681 9.10802C19.9351 9.01802 19.4836 9.00603 17.9881 9.00603H15.7531H15.7651Z" fill="white"/>
</g>
<defs>
<clipPath id="clip0_323_5169">
<rect width="24" height="24" fill="white"/>
</clipPath>
</defs>
</svg>
