<svg width="24" height="24" viewBox="0 0 24 24" fill="none" xmlns="http://www.w3.org/2000/svg">
<path d="M5 22C4.45 22 3.97933 21.8043 3.588 21.413C3.19667 21.0217 3.00067 20.5507 3 20V6C3 5.45 3.196 4.97933 3.588 4.588C3.98 4.19667 4.45067 4.00067 5 4H6V2H8V4H16V2H18V4H19C19.55 4 20.021 4.196 20.413 4.588C20.805 4.98 21.0007 5.45067 21 6V20C21 20.55 20.8043 21.021 20.413 21.413C20.0217 21.805 19.5507 22.0007 19 22H5ZM5 20H19V6H5V20ZM9 20V18.2L7.2 16.1C7.01667 15.9167 6.854 15.6667 6.712 15.35C6.57 15.0333 6.49933 14.6667 6.5 14.25C6.5 14.0333 6.521 13.8207 6.563 13.612C6.605 13.4033 6.67567 13.1993 6.775 13C6.69167 12.8167 6.625 12.621 6.575 12.413C6.525 12.205 6.5 11.984 6.5 11.75C6.5 11.3333 6.571 10.9667 6.713 10.65C6.855 10.3333 7.01733 10.0833 7.2 9.9L9 7.8V6H10.5V8.075C10.5 8.15833 10.4417 8.31667 10.325 8.55L8.325 10.9C8.20833 11.0333 8.125 11.171 8.075 11.313C8.025 11.455 8 11.6007 8 11.75C8 12.0833 8.10833 12.371 8.325 12.613C8.54167 12.855 8.81667 12.9757 9.15 12.975C9.3 12.975 9.44167 12.95 9.575 12.9C9.70833 12.85 9.825 12.7667 9.925 12.65C10.2083 12.3667 10.529 12.15 10.887 12C11.245 11.85 11.616 11.775 12 11.775C12.384 11.775 12.755 11.85 13.113 12C13.471 12.15 13.7917 12.3667 14.075 12.65C14.1917 12.7667 14.3167 12.85 14.45 12.9C14.5833 12.95 14.7167 12.975 14.85 12.975C15.1833 12.975 15.4583 12.8543 15.675 12.613C15.8917 12.3717 16 12.0923 16 11.775C16 11.625 15.9707 11.4793 15.912 11.338C15.8533 11.1967 15.7743 11.059 15.675 10.925L13.675 8.55C13.6083 8.48333 13.5627 8.40833 13.538 8.325C13.5133 8.24167 13.5007 8.15833 13.5 8.075V6H15V7.8L16.825 9.95C17.0583 10.2167 17.2293 10.5043 17.338 10.813C17.4467 11.1217 17.5007 11.4423 17.5 11.775C17.5 11.9917 17.4707 12.2043 17.412 12.413C17.3533 12.6217 17.2827 12.8173 17.2 13C17.3 13.2 17.375 13.4043 17.425 13.613C17.475 13.8217 17.5 14.034 17.5 14.25C17.5 14.6667 17.429 15.0333 17.287 15.35C17.145 15.6667 16.9827 15.9167 16.8 16.1L15 18.2V20H13.5V17.925C13.5 17.825 13.5583 17.6667 13.675 17.45L15.675 15.1C15.7917 14.9667 15.875 14.825 15.925 14.675C15.975 14.525 16 14.375 16 14.225C15.8167 14.3083 15.6333 14.371 15.45 14.413C15.2667 14.455 15.075 14.4757 14.875 14.475C14.5417 14.475 14.2083 14.4083 13.875 14.275C13.5417 14.1417 13.25 13.9417 13 13.675C12.8833 13.5417 12.7377 13.4417 12.563 13.375C12.3883 13.3083 12.2007 13.275 12 13.275C11.8167 13.275 11.6377 13.3083 11.463 13.375C11.2883 13.4417 11.134 13.5417 11 13.675C10.75 13.9417 10.4627 14.1417 10.138 14.275C9.81333 14.4083 9.484 14.475 9.15 14.475C8.95 14.475 8.754 14.4543 8.562 14.413C8.37 14.3717 8.18267 14.3087 8 14.224C8 14.374 8.025 14.524 8.075 14.674C8.125 14.824 8.20833 14.9657 8.325 15.099L10.325 17.449C10.375 17.5323 10.4167 17.6117 10.45 17.687C10.4833 17.7623 10.5 17.8413 10.5 17.924V20H9Z" fill="#0A0A0A"/>
</svg>
