<svg width="24" height="24" viewBox="0 0 24 24" fill="none" xmlns="http://www.w3.org/2000/svg">
<path d="M18.3999 1.60001H15.9999C14.8159 1.60001 13.7919 2.24001 13.2479 3.20001H5.5999L3.9999 4.80001L5.5999 6.40001L7.1999 4.80001L8.7999 6.40001L10.3999 4.80001L11.9999 6.40001H13.2479C13.7919 7.36001 14.8159 8.00001 15.9999 8.00001H18.3999C18.8479 8.00001 19.1999 7.64801 19.1999 7.20001V2.40001C19.1999 1.95201 18.8479 1.60001 18.3999 1.60001ZM17.5999 5.60001C17.5999 6.04801 17.2479 6.40001 16.7999 6.40001C16.3519 6.40001 15.9999 6.04801 15.9999 5.60001V4.00001C15.9999 3.55201 16.3519 3.20001 16.7999 3.20001C17.2479 3.20001 17.5999 3.55201 17.5999 4.00001V5.60001ZM19.1999 22.4V12.8H4.7999V22.4H2.3999V10.4H21.5999V22.4H19.1999ZM7.1999 14.4H16.7999C17.2479 14.4 17.5999 14.752 17.5999 15.2C17.5999 15.648 17.2479 16 16.7999 16H7.1999C6.7519 16 6.3999 15.648 6.3999 15.2C6.3999 14.752 6.7519 14.4 7.1999 14.4ZM7.1999 20.8H16.7999C17.2479 20.8 17.5999 21.152 17.5999 21.6C17.5999 22.048 17.2479 22.4 16.7999 22.4H7.1999C6.7519 22.4 6.3999 22.048 6.3999 21.6C6.3999 21.152 6.7519 20.8 7.1999 20.8ZM7.1999 17.6H16.7999C17.2479 17.6 17.5999 17.952 17.5999 18.4C17.5999 18.848 17.2479 19.2 16.7999 19.2H7.1999C6.7519 19.2 6.3999 18.848 6.3999 18.4C6.3999 17.952 6.7519 17.6 7.1999 17.6Z" fill="#0A0A0A"/>
</svg>
