<svg width="18" height="18" viewBox="0 0 18 18" fill="none" xmlns="http://www.w3.org/2000/svg">
<g clip-path="url(#clip0_664_1561)">
<path d="M14.25 9.174L14.9662 8.45775C15.9885 7.43475 16.5 6.9225 16.5 6.288C16.5 5.6535 15.9885 5.14125 14.9662 4.119L13.881 3.03375C12.8587 2.0115 12.3473 1.5 11.712 1.5C11.076 1.5 10.5645 2.0115 9.54225 3.03375L3.03375 9.54225C2.0115 10.5652 1.5 11.076 1.5 11.712C1.5 12.348 2.0115 12.8587 3.03375 13.881L4.119 14.9662C5.14125 15.9885 5.65275 16.5 6.288 16.5C6.92325 16.5 7.4355 15.9885 8.45775 14.9662L12.174 11.25M6.348 6.348L7.41 7.41M9.53025 3.1665L10.5908 4.227M3.1665 9.53025L4.227 10.5908M4.75725 7.9395L6.34875 9.53025M7.9395 4.75725L9.53025 6.348" stroke="#0A0A0A" stroke-width="1.5" stroke-linecap="round"/>
</g>
<defs>
<clipPath id="clip0_664_1561">
<rect width="18" height="18" fill="white"/>
</clipPath>
</defs>
</svg>
