<svg width="24" height="24" viewBox="0 0 24 24" fill="none" xmlns="http://www.w3.org/2000/svg">
<path d="M19 12.232L19.955 11.277C21.318 9.913 22 9.23 22 8.384C22 7.538 21.318 6.855 19.955 5.492L18.508 4.045C17.145 2.682 16.463 2 15.616 2C14.768 2 14.086 2.682 12.723 4.045L4.045 12.723C2.682 14.087 2 14.768 2 15.616C2 16.464 2.682 17.145 4.045 18.508L5.492 19.955C6.855 21.318 7.537 22 8.384 22C9.231 22 9.914 21.318 11.277 19.955L16.232 15M8.464 8.464L9.88 9.88M12.707 4.222L14.121 5.636M4.222 12.707L5.636 14.121M6.343 10.586L8.465 12.707M10.586 6.343L12.707 8.464" stroke="#0A0A0A" stroke-width="1.5" stroke-linecap="round"/>
</svg>
