<svg width="24" height="24" viewBox="0 0 24 24" fill="none" xmlns="http://www.w3.org/2000/svg">
<path d="M13 5C17.97 5 22 8.358 22 12.5C22 14.559 21.005 16.424 19.393 17.779C19.2722 17.8777 19.1744 18.0016 19.1065 18.142C19.0386 18.2824 19.0023 18.436 19 18.592V21H17L16.206 19.867C16.1446 19.7823 16.0591 19.7181 15.9606 19.6828C15.8621 19.6474 15.7552 19.6426 15.654 19.669C13.9128 20.1148 12.0872 20.1148 10.346 19.669C10.2448 19.6426 10.1379 19.6474 10.0394 19.6828C9.94095 19.7181 9.85541 19.7823 9.794 19.867L9 21H7V18.615C7 18.4531 6.96068 18.2936 6.88543 18.1503C6.81018 18.0069 6.70125 17.884 6.568 17.792C5.493 17.052 2 15.602 2 14.058V12.5C2 11.908 2.448 11.429 3 11.429C3.607 11.429 4.102 11.193 4.302 10.566C5.326 7.361 8.832 5 13 5Z" stroke="#0A0A0A" stroke-width="1.5" stroke-linejoin="round"/>
<path d="M14.5 8C13.8832 7.67512 13.1971 7.50361 12.5 7.5C11.804 7.5 11.132 7.675 10.5 8" stroke="#0A0A0A" stroke-width="1.5" stroke-linecap="round" stroke-linejoin="round"/>
<path d="M7.5 11H7.509" stroke="#0A0A0A" stroke-width="1.5" stroke-linecap="round" stroke-linejoin="round"/>
<path d="M21 8.5C21.5 8 22 7.063 22 5.83C22 4.268 20.657 3 19 3C18.65 3 18.313 3.057 18 3.161" stroke="#0A0A0A" stroke-width="1.5" stroke-linecap="round"/>
</svg>
