<svg width="24" height="24" viewBox="0 0 24 24" fill="none" xmlns="http://www.w3.org/2000/svg">
<path d="M22 13V22H2V19L22 13ZM21.68 7.06002L16.86 4.46002L17.7 7.24002L7.58 10.24C7.35496 9.93315 7.07163 9.67366 6.74622 9.47639C6.42081 9.27912 6.0597 9.14794 5.68354 9.09036C5.30738 9.03278 4.92357 9.04992 4.55404 9.1408C4.18452 9.23169 3.83653 9.39453 3.53 9.62002C3.22313 9.84506 2.96364 10.1284 2.76637 10.4538C2.5691 10.7792 2.43792 11.1403 2.38034 11.5165C2.32275 11.8926 2.33989 12.2765 2.43078 12.646C2.52166 13.0155 2.68451 13.3635 2.91 13.67C3.85 14.97 5.67 15.24 6.96 14.29C7.67 13.78 8.1 12.97 8.14 12.09L18.26 9.09002L19.1 11.87L21.68 7.06002Z" fill="white"/>
</svg>
