<svg width="18" height="18" viewBox="0 0 18 18" fill="none" xmlns="http://www.w3.org/2000/svg">
<path d="M14.0625 10.6875L15.75 12.375L14.0625 14.0625M14.0625 3.9375L15.75 5.625L14.0625 7.3125M2.25 12.375H5.24496C5.70794 12.375 6.16376 12.2607 6.57196 12.0422C6.98016 11.8238 7.32812 11.5079 7.58496 11.1227L9 9" stroke="#0A0A0A" stroke-width="1.5" stroke-linecap="round" stroke-linejoin="round"/>
<path d="M2.25 5.625H5.24496C5.70794 5.62501 6.16376 5.73931 6.57196 5.95776C6.98016 6.17621 7.32812 6.49206 7.58496 6.87727L10.415 11.1227C10.6719 11.5079 11.0198 11.8238 11.428 12.0422C11.8362 12.2607 12.2921 12.375 12.755 12.375H14.625M14.625 5.625H12.755C12.2921 5.62501 11.8362 5.73931 11.428 5.95776C11.0198 6.17621 10.6719 6.49206 10.415 6.87727L10.125 7.3125" stroke="#0A0A0A" stroke-width="1.5" stroke-linecap="round" stroke-linejoin="round"/>
</svg>
