<svg width="24" height="24" viewBox="0 0 24 24" fill="none" xmlns="http://www.w3.org/2000/svg">
<path d="M8.4 3H4.6C4.17565 3 3.76869 3.16857 3.46863 3.46863C3.16857 3.76869 3 4.17565 3 4.6V8.4C3 8.61011 3.04139 8.81817 3.12179 9.01229C3.2022 9.20641 3.32006 9.3828 3.46863 9.53137C3.6172 9.67994 3.79359 9.7978 3.98771 9.87821C4.18183 9.95861 4.38988 10 4.6 10H8.4C8.61011 10 8.81817 9.95861 9.01229 9.87821C9.20641 9.7978 9.3828 9.67994 9.53137 9.53137C9.67994 9.3828 9.7978 9.20641 9.87821 9.01229C9.95861 8.81817 10 8.61011 10 8.4V4.6C10 4.17565 9.83143 3.76869 9.53137 3.46863C9.23131 3.16857 8.82435 3 8.4 3ZM19.4 3H15.6C15.1757 3 14.7687 3.16857 14.4686 3.46863C14.1686 3.76869 14 4.17565 14 4.6V8.4C14 8.82435 14.1686 9.23131 14.4686 9.53137C14.7687 9.83143 15.1757 10 15.6 10H19.4C19.8243 10 20.2313 9.83143 20.5314 9.53137C20.8314 9.23131 21 8.82435 21 8.4V4.6C21 4.17565 20.8314 3.76869 20.5314 3.46863C20.2313 3.16857 19.8243 3 19.4 3ZM8.4 14H4.6C4.17565 14 3.76869 14.1686 3.46863 14.4686C3.16857 14.7687 3 15.1757 3 15.6V19.4C3 19.8243 3.16857 20.2313 3.46863 20.5314C3.76869 20.8314 4.17565 21 4.6 21H8.4C8.82435 21 9.23131 20.8314 9.53137 20.5314C9.83143 20.2313 10 19.8243 10 19.4V15.6C10 15.1757 9.83143 14.7687 9.53137 14.4686C9.23131 14.1686 8.82435 14 8.4 14ZM19.4 14H15.6C15.1757 14 14.7687 14.1686 14.4686 14.4686C14.1686 14.7687 14 15.1757 14 15.6V19.4C14 19.8243 14.1686 20.2313 14.4686 20.5314C14.7687 20.8314 15.1757 21 15.6 21H19.4C19.8243 21 20.2313 20.8314 20.5314 20.5314C20.8314 20.2313 21 19.8243 21 19.4V15.6C21 15.1757 20.8314 14.7687 20.5314 14.4686C20.2313 14.1686 19.8243 14 19.4 14Z" stroke="white" stroke-width="1.5" stroke-miterlimit="10" stroke-linejoin="round"/>
</svg>
