<svg width="24" height="24" viewBox="0 0 24 24" fill="none" xmlns="http://www.w3.org/2000/svg">
<path d="M9.37518 11.5706C9.78815 14.3184 9.03159 15.8208 6.89503 16.1367C4.52081 16.4878 3.54253 14.8973 3.12956 12.1495C2.57409 8.45202 3.87956 6.15234 5.74096 6.00421C7.43503 5.86968 8.96175 8.82327 9.37518 11.5706ZM10.4838 19.1967C10.6305 20.7567 9.78721 22.2126 8.51503 22.462C7.23065 22.7133 5.763 21.6947 5.46393 20.1562C5.16487 18.6178 6.29596 18.5362 7.68206 18.2714C9.06815 18.0066 10.3066 17.3151 10.4838 19.1967ZM14.6252 7.07015C14.2122 9.81796 14.9688 11.3203 17.1049 11.6362C19.4796 11.9873 20.4574 10.3969 20.8703 7.64905C21.4263 3.95109 20.1203 1.63874 18.2594 1.50374C16.5532 1.37999 15.0386 4.32234 14.6252 7.07015ZM13.5166 14.6967C13.3699 16.2562 14.2132 17.7126 15.4853 17.962C16.7697 18.2133 18.2374 17.1947 18.5364 15.6562C18.8355 14.1178 17.7044 14.0362 16.3183 13.7709C14.9322 13.5056 13.6938 12.8147 13.5166 14.6967Z" stroke="#0A0A0A" stroke-width="1.5" stroke-miterlimit="10"/>
</svg>
