<svg width="18" height="18" viewBox="0 0 18 18" fill="none" xmlns="http://www.w3.org/2000/svg">
<path d="M7.03125 8.67799C7.34098 10.7388 6.77355 11.8656 5.17113 12.1026C3.39047 12.3659 2.65676 11.173 2.34703 9.11217C1.93043 6.33904 2.90953 4.61428 4.30559 4.50318C5.57613 4.40228 6.72117 6.61748 7.03125 8.67799ZM7.86269 14.3976C7.97273 15.5676 7.34027 16.6595 6.38613 16.8465C5.42285 17.035 4.32211 16.271 4.09781 15.1172C3.87352 13.9634 4.72184 13.9022 5.76141 13.7036C6.80098 13.5049 7.7298 12.9864 7.86269 14.3976ZM10.9687 5.30263C10.659 7.36349 11.2264 8.49025 12.8285 8.7272C14.6095 8.99053 15.3429 7.79767 15.6526 5.73681C16.0696 2.96334 15.0901 1.22908 13.6944 1.12783C12.4147 1.03502 11.2788 3.24178 10.9687 5.30263ZM10.1373 11.0226C10.0273 12.1922 10.6597 13.2845 11.6139 13.4715C12.5771 13.66 13.6779 12.896 13.9022 11.7422C14.1265 10.5884 13.2782 10.5272 12.2386 10.3282C11.199 10.1292 10.2702 9.61103 10.1373 11.0226Z" stroke="#0A0A0A" stroke-width="1.5" stroke-miterlimit="10"/>
</svg>
