<svg width="24" height="24" viewBox="0 0 24 24" fill="none" xmlns="http://www.w3.org/2000/svg">
<path d="M6.23682 0.75C12.0998 1.3 19.4998 5.775 19.4998 14.446C19.4998 20.509 15.2818 22.846 11.2498 23.246" stroke="#0A0A0A" stroke-width="1.5" stroke-linecap="round" stroke-linejoin="round"/>
<path d="M9.364 14.446C9.78 14.604 10.159 14.846 10.479 15.154C10.7226 15.3862 10.9165 15.6655 11.049 15.9749C11.1815 16.2843 11.2499 16.6174 11.2499 16.954C11.2499 17.2906 11.1815 17.6236 11.049 17.933C10.9165 18.2424 10.7226 18.5217 10.479 18.754C10.0774 19.1364 9.54406 19.3497 8.9895 19.3497C8.43494 19.3497 7.90162 19.1364 7.5 18.754" stroke="#0A0A0A" stroke-width="1.5" stroke-linecap="round" stroke-linejoin="round"/>
<path d="M19.5 14.446H4.5M11.25 14.446V23.25M6 0.75H18.5C18.7652 0.75 19.0196 0.855357 19.2071 1.04289C19.3946 1.23043 19.5 1.48478 19.5 1.75V22.25C19.5 22.5152 19.3946 22.7696 19.2071 22.9571C19.0196 23.1446 18.7652 23.25 18.5 23.25H7.36C6.60148 23.25 5.87403 22.9487 5.33767 22.4123C4.80132 21.876 4.5 21.1485 4.5 20.39V2.25C4.5 1.85218 4.65804 1.47064 4.93934 1.18934C5.22064 0.908035 5.60218 0.75 6 0.75Z" stroke="#0A0A0A" stroke-width="1.5" stroke-linecap="round" stroke-linejoin="round"/>
</svg>
