<svg width="24" height="24" viewBox="0 0 24 24" fill="none" xmlns="http://www.w3.org/2000/svg">
<path d="M20 10V7L15 2H4V22H20M14 2V8H20" stroke="white" stroke-width="1.5" stroke-linecap="square"/>
<path d="M7 16V13H9.714C9.872 13 10 13.128 10 13.286V15.714C10 15.7899 9.96987 15.8626 9.91623 15.9162C9.8626 15.9699 9.78985 16 9.714 16H7ZM7 16V19M20.667 13H18.286C18.2101 13 18.1374 13.0301 18.0838 13.0838C18.0301 13.1374 18 13.2101 18 13.286V16M18 16H20.667M18 16V19M12.5 13V19H15.214C15.2899 19 15.3626 18.9699 15.4162 18.9162C15.4699 18.8626 15.5 18.7899 15.5 18.714V13.286C15.5 13.2101 15.4699 13.1374 15.4162 13.0838C15.3626 13.0301 15.2899 13 15.214 13H12.5Z" stroke="white" stroke-width="1.5" stroke-linecap="square"/>
</svg>
