<svg width="18" height="18" viewBox="0 0 18 18" fill="none" xmlns="http://www.w3.org/2000/svg">
<path d="M3.39998 12.2L7.39998 9.79995M10.6 8.19995L14.6 5.79995M8.99998 3.39995V7.39995M8.99998 10.6V14.6M3.39998 5.79995L7.39998 8.19995M10.6 9.79995L14.6 12.2M15.8 6.59995V11M10.2 15.8L14.6 13.4M2.99998 13.4L7.79998 15.8M2.19998 11.4V6.59995M2.99998 4.59995L7.79998 2.19995M15 4.59995L10.2 2.19995" stroke="#1E293B" stroke-width="2" stroke-linejoin="round"/>
<path d="M9.00002 3.4C9.66276 3.4 10.2 2.86274 10.2 2.2C10.2 1.53726 9.66276 1 9.00002 1C8.33728 1 7.80002 1.53726 7.80002 2.2C7.80002 2.86274 8.33728 3.4 9.00002 3.4Z" stroke="#1E293B" stroke-width="2" stroke-linejoin="round"/>
<path d="M9.00002 17.0001C9.66276 17.0001 10.2 16.4628 10.2 15.8001C10.2 15.1374 9.66276 14.6001 9.00002 14.6001C8.33728 14.6001 7.80002 15.1374 7.80002 15.8001C7.80002 16.4628 8.33728 17.0001 9.00002 17.0001Z" stroke="#1E293B" stroke-width="2" stroke-linejoin="round"/>
<path d="M2.2 6.59995C2.86274 6.59995 3.4 6.06269 3.4 5.39995C3.4 4.73721 2.86274 4.19995 2.2 4.19995C1.53726 4.19995 1 4.73721 1 5.39995C1 6.06269 1.53726 6.59995 2.2 6.59995Z" stroke="#1E293B" stroke-width="2" stroke-linejoin="round"/>
<path d="M15.8 6.59995C16.4627 6.59995 17 6.06269 17 5.39995C17 4.73721 16.4627 4.19995 15.8 4.19995C15.1372 4.19995 14.6 4.73721 14.6 5.39995C14.6 6.06269 15.1372 6.59995 15.8 6.59995Z" stroke="#1E293B" stroke-width="2" stroke-linejoin="round"/>
<path d="M15.8 13.7999C16.4627 13.7999 17 13.2626 17 12.5999C17 11.9372 16.4627 11.3999 15.8 11.3999C15.1372 11.3999 14.6 11.9372 14.6 12.5999C14.6 13.2626 15.1372 13.7999 15.8 13.7999Z" stroke="#1E293B" stroke-width="2" stroke-linejoin="round"/>
<path d="M2.2 13.7999C2.86274 13.7999 3.4 13.2626 3.4 12.5999C3.4 11.9372 2.86274 11.3999 2.2 11.3999C1.53726 11.3999 1 11.9372 1 12.5999C1 13.2626 1.53726 13.7999 2.2 13.7999Z" stroke="#1E293B" stroke-width="2" stroke-linejoin="round"/>
<path d="M9.00002 7.19995L10.6 8.09995V9.89995L9.00002 10.8L7.40002 9.89995V8.09995L9.00002 7.19995Z" stroke="#1E293B" stroke-width="2" stroke-linejoin="round"/>
</svg>
