<svg width="28" height="28" viewBox="0 0 28 28" fill="none" xmlns="http://www.w3.org/2000/svg">
<rect width="28" height="28" rx="4" fill="#FDE047"/>
<path d="M8.39986 17.7L12.3999 15.3M15.5999 13.7L19.5999 11.3M13.9999 8.89995V12.9M13.9999 16.1V20.1M8.39986 11.3L12.3999 13.7M15.5999 15.3L19.5999 17.7M20.7999 12.1V16.5M15.1999 21.3L19.5999 18.9M7.99986 18.9L12.7999 21.3M7.19986 16.9V12.1M7.99986 10.1L12.7999 7.69995M19.9999 10.1L15.1999 7.69995" stroke="#1E293B" stroke-width="2" stroke-linejoin="round"/>
<path d="M13.9999 8.9C14.6626 8.9 15.1999 8.36274 15.1999 7.7C15.1999 7.03726 14.6626 6.5 13.9999 6.5C13.3372 6.5 12.7999 7.03726 12.7999 7.7C12.7999 8.36274 13.3372 8.9 13.9999 8.9Z" stroke="#1E293B" stroke-width="2" stroke-linejoin="round"/>
<path d="M13.9999 22.5001C14.6626 22.5001 15.1999 21.9628 15.1999 21.3001C15.1999 20.6374 14.6626 20.1001 13.9999 20.1001C13.3372 20.1001 12.7999 20.6374 12.7999 21.3001C12.7999 21.9628 13.3372 22.5001 13.9999 22.5001Z" stroke="#1E293B" stroke-width="2" stroke-linejoin="round"/>
<path d="M7.19988 12.1C7.86262 12.1 8.39988 11.5627 8.39988 10.9C8.39988 10.2372 7.86262 9.69995 7.19988 9.69995C6.53714 9.69995 5.99988 10.2372 5.99988 10.9C5.99988 11.5627 6.53714 12.1 7.19988 12.1Z" stroke="#1E293B" stroke-width="2" stroke-linejoin="round"/>
<path d="M20.7999 12.1C21.4626 12.1 21.9999 11.5627 21.9999 10.9C21.9999 10.2372 21.4626 9.69995 20.7999 9.69995C20.1371 9.69995 19.5999 10.2372 19.5999 10.9C19.5999 11.5627 20.1371 12.1 20.7999 12.1Z" stroke="#1E293B" stroke-width="2" stroke-linejoin="round"/>
<path d="M20.7999 19.2999C21.4626 19.2999 21.9999 18.7626 21.9999 18.0999C21.9999 17.4372 21.4626 16.8999 20.7999 16.8999C20.1371 16.8999 19.5999 17.4372 19.5999 18.0999C19.5999 18.7626 20.1371 19.2999 20.7999 19.2999Z" stroke="#1E293B" stroke-width="2" stroke-linejoin="round"/>
<path d="M7.19988 19.2999C7.86262 19.2999 8.39988 18.7626 8.39988 18.0999C8.39988 17.4372 7.86262 16.8999 7.19988 16.8999C6.53714 16.8999 5.99988 17.4372 5.99988 18.0999C5.99988 18.7626 6.53714 19.2999 7.19988 19.2999Z" stroke="#1E293B" stroke-width="2" stroke-linejoin="round"/>
<path d="M13.9999 12.7L15.5999 13.6V15.4L13.9999 16.3L12.3999 15.4V13.6L13.9999 12.7Z" stroke="#1E293B" stroke-width="2" stroke-linejoin="round"/>
</svg>
