<svg width="24" height="24" viewBox="0 0 24 24" fill="none" xmlns="http://www.w3.org/2000/svg">
<path d="M20.1998 13.7969H14.5998C14.3876 13.7969 14.1841 13.8812 14.0341 14.0312C13.8841 14.1813 13.7998 14.3848 13.7998 14.5969V20.1969C13.7998 20.4091 13.8841 20.6126 14.0341 20.7626C14.1841 20.9126 14.3876 20.9969 14.5998 20.9969H20.1998C20.412 20.9969 20.6155 20.9126 20.7655 20.7626C20.9155 20.6126 20.9998 20.4091 20.9998 20.1969V14.5969C20.9998 14.3848 20.9155 14.1813 20.7655 14.0312C20.6155 13.8812 20.412 13.7969 20.1998 13.7969Z" stroke="white" stroke-width="1.5" stroke-linecap="round" stroke-linejoin="round"/>
<path d="M16.2751 16.4217C16.1955 16.4217 16.1192 16.3901 16.063 16.3338C16.0067 16.2776 15.9751 16.2013 15.9751 16.1217C15.9751 16.0422 16.0067 15.9658 16.063 15.9096C16.1192 15.8533 16.1955 15.8217 16.2751 15.8217M16.2751 16.4217C16.3547 16.4217 16.431 16.3901 16.4872 16.3338C16.5435 16.2776 16.5751 16.2013 16.5751 16.1217C16.5751 16.0422 16.5435 15.9658 16.4872 15.9096C16.431 15.8533 16.3547 15.8217 16.2751 15.8217" stroke="white" stroke-width="1.5"/>
<path d="M20.908 20.2584L19.1384 17.6048C19.0817 17.5197 19.0041 17.4506 18.9131 17.4039C18.8222 17.3573 18.7208 17.3346 18.6186 17.3381C18.5164 17.3417 18.4168 17.3713 18.3293 17.4241C18.2417 17.4769 18.1691 17.5512 18.1184 17.64L16.1984 21M11.4 21H4.2C3.88174 21 3.57652 20.8736 3.35147 20.6485C3.12643 20.4235 3 20.1183 3 19.8V4.2C3 3.88174 3.12643 3.57652 3.35147 3.35147C3.57652 3.12643 3.88174 3 4.2 3H16.2C16.513 3.00003 16.8135 3.12232 17.0376 3.3408L19.4376 5.6472C19.5523 5.75899 19.6434 5.8926 19.7057 6.04016C19.7679 6.18772 19.8 6.34625 19.8 6.5064V11.4M6.6 9H16.2M6.6 12.6H11.4M6.6 16.2H11.4" stroke="white" stroke-width="1.5" stroke-linecap="round" stroke-linejoin="round"/>
</svg>
