<svg width="24" height="24" viewBox="0 0 24 24" fill="none" xmlns="http://www.w3.org/2000/svg">
<g clip-path="url(#clip0_689_7787)">
<path fill-rule="evenodd" clip-rule="evenodd" d="M21.75 19.125C21.7501 18.2271 21.4572 17.3536 20.9157 16.6373C20.3743 15.921 19.6139 15.4009 18.75 15.156V13.125H22.125C22.4234 13.125 22.7095 13.0065 22.9205 12.7955C23.1315 12.5845 23.25 12.2984 23.25 12C23.25 11.7016 23.1315 11.4155 22.9205 11.2045C22.7095 10.9935 22.4234 10.875 22.125 10.875H13.125V8.844C13.9889 8.5991 14.7493 8.07901 15.2907 7.36269C15.8322 6.64636 16.1251 5.77293 16.125 4.875C16.1249 4.10762 15.9108 3.35548 15.5067 2.70313C15.1026 2.05078 14.5246 1.52408 13.8375 1.18225C13.1505 0.840415 12.3817 0.696999 11.6177 0.768125C10.8536 0.839251 10.1245 1.1221 9.51238 1.58487C8.90025 2.04764 8.42934 2.67198 8.1526 3.38772C7.87585 4.10345 7.80424 4.88218 7.94581 5.63638C8.08738 6.39058 8.43652 7.09034 8.95399 7.65699C9.47145 8.22364 10.1367 8.63471 10.875 8.844V10.875H1.875C1.57663 10.875 1.29048 10.9935 1.0795 11.2045C0.868526 11.4155 0.75 11.7016 0.75 12C0.75 12.2984 0.868526 12.5845 1.0795 12.7955C1.29048 13.0065 1.57663 13.125 1.875 13.125H5.25V15.156C4.38611 15.4009 3.62572 15.921 3.08428 16.6373C2.54284 17.3536 2.24992 18.2271 2.25 19.125C2.25007 19.8924 2.46419 20.6445 2.86829 21.2969C3.27239 21.9492 3.85045 22.4759 4.53748 22.8177C5.22451 23.1596 5.99327 23.303 6.75734 23.2319C7.52141 23.1607 8.25049 22.8779 8.86262 22.4151C9.47475 21.9524 9.94566 21.328 10.2224 20.6123C10.4992 19.8965 10.5708 19.1178 10.4292 18.3636C10.2876 17.6094 9.93848 16.9096 9.42101 16.343C8.90355 15.7764 8.23828 15.3653 7.5 15.156V13.125H16.5V15.156C15.7612 15.365 15.0954 15.7761 14.5774 16.3429C14.0594 16.9097 13.7099 17.6097 13.568 18.3643C13.4262 19.1189 13.4977 19.8982 13.7745 20.6143C14.0513 21.3305 14.5225 21.9553 15.135 22.4183C15.7475 22.8813 16.477 23.1643 17.2415 23.2354C18.006 23.3065 18.7752 23.1628 19.4626 22.8206C20.1499 22.4784 20.7282 21.9512 21.1323 21.2984C21.5364 20.6455 21.7503 19.8928 21.75 19.125ZM17.625 21C18.1223 21 18.5992 20.8025 18.9508 20.4508C19.3025 20.0992 19.5 19.6223 19.5 19.125C19.5 18.6277 19.3025 18.1508 18.9508 17.7992C18.5992 17.4475 18.1223 17.25 17.625 17.25C17.1277 17.25 16.6508 17.4475 16.2992 17.7992C15.9475 18.1508 15.75 18.6277 15.75 19.125C15.75 19.6223 15.9475 20.0992 16.2992 20.4508C16.6508 20.8025 17.1277 21 17.625 21ZM12 6.75C12.4973 6.75 12.9742 6.55245 13.3258 6.20082C13.6775 5.84919 13.875 5.37228 13.875 4.875C13.875 4.37771 13.6775 3.9008 13.3258 3.54917C12.9742 3.19754 12.4973 3 12 3C11.5027 3 11.0258 3.19754 10.6742 3.54917C10.3225 3.9008 10.125 4.37771 10.125 4.875C10.125 5.37228 10.3225 5.84919 10.6742 6.20082C11.0258 6.55245 11.5027 6.75 12 6.75ZM6.375 21C6.87228 21 7.34919 20.8025 7.70083 20.4508C8.05246 20.0992 8.25 19.6223 8.25 19.125C8.25 18.6277 8.05246 18.1508 7.70083 17.7992C7.34919 17.4475 6.87228 17.25 6.375 17.25C5.87772 17.25 5.40081 17.4475 5.04917 17.7992C4.69754 18.1508 4.5 18.6277 4.5 19.125C4.5 19.6223 4.69754 20.0992 5.04917 20.4508C5.40081 20.8025 5.87772 21 6.375 21Z" fill="#0A0A0A"/>
</g>
<defs>
<clipPath id="clip0_689_7787">
<rect width="24" height="24" fill="white"/>
</clipPath>
</defs>
</svg>
