<svg width="24" height="24" viewBox="0 0 24 24" fill="none" xmlns="http://www.w3.org/2000/svg">
<path d="M23.1426 7.71429V18.8571C23.1426 19.4255 22.9169 19.9705 22.515 20.3724C22.1132 20.7742 21.5681 21 20.9998 21M20.9998 21C20.4315 21 19.8864 20.7742 19.4846 20.3724C19.0827 19.9705 18.8569 19.4255 18.8569 18.8571V3.85714C18.8569 3.62981 18.7666 3.4118 18.6059 3.25105C18.4451 3.09031 18.2271 3 17.9998 3H1.71408C1.48675 3 1.26873 3.09031 1.10798 3.25105C0.947239 3.4118 0.856934 3.62981 0.856934 3.85714V19.2857C0.856934 19.7404 1.03755 20.1764 1.35904 20.4979C1.68053 20.8194 2.11656 21 2.57122 21H20.9998Z" stroke="white" stroke-width="1.5" stroke-linecap="round" stroke-linejoin="round"/>
<path d="M6 16.7143H13.7143M13.7143 7.28571H6V11.5714H13.7143V7.28571Z" stroke="white" stroke-width="1.5" stroke-linecap="round" stroke-linejoin="round"/>
</svg>
