<svg width="24" height="24" viewBox="0 0 24 24" fill="none" xmlns="http://www.w3.org/2000/svg">
<path d="M11.25 16.5L10.1925 17.5575L12.1275 19.5H3V6H1.5V19.5C1.5 20.3273 2.17275 21 3 21H12.1275L10.1925 22.9425L11.25 24L15 20.25L11.25 16.5Z" fill="#0A0A0A"/>
<path d="M8.25 12.75C8.66421 12.75 9 12.4142 9 12C9 11.5858 8.66421 11.25 8.25 11.25C7.83579 11.25 7.5 11.5858 7.5 12C7.5 12.4142 7.83579 12.75 8.25 12.75Z" fill="#0A0A0A"/>
<path d="M18 15H6C5.17275 15 4.5 14.3273 4.5 13.5V10.5C4.5 9.67275 5.17275 9 6 9H18C18.8273 9 19.5 9.67275 19.5 10.5V13.5C19.5 14.3273 18.8273 15 18 15ZM6 10.5V13.5H18V10.5H6Z" fill="#0A0A0A"/>
<path d="M21 3H11.8725L13.8075 1.0575L12.75 0L9 3.75L12.75 7.5L13.8075 6.4425L11.8725 4.5H21V18H22.5V4.5C22.5 3.6735 21.8273 3 21 3Z" fill="#0A0A0A"/>
</svg>
