<svg width="24" height="24" viewBox="0 0 24 24" fill="none" xmlns="http://www.w3.org/2000/svg">
<path d="M17 10C16.45 10 15.9793 9.80833 15.588 9.425C15.1967 9.04167 15.0007 8.56667 15 8V4C15 3.43333 15.196 2.95833 15.588 2.575C15.98 2.19167 16.4507 2 17 2C17.5667 2 18.0417 2.19167 18.425 2.575C18.8083 2.95833 19 3.43333 19 4V8C19 8.56667 18.8083 9.04167 18.425 9.425C18.0417 9.80833 17.5667 10 17 10ZM5 22C4.45 22 3.97933 21.8043 3.588 21.413C3.19667 21.0217 3.00067 20.5507 3 20V4C3 3.45 3.196 2.97933 3.588 2.588C3.98 2.19667 4.45067 2.00067 5 2H13V4H5V20H16V18H18V20C18 20.55 17.8043 21.021 17.413 21.413C17.0217 21.805 16.5507 22.0007 16 22H5ZM7 18V16H14V18H7ZM7 15V13H12V15H7ZM18 16H16V13.4C14.7167 13.1667 13.6457 12.546 12.787 11.538C11.9283 10.53 11.4993 9.35067 11.5 8H13.5C13.5 8.96667 13.8417 9.79167 14.525 10.475C15.2083 11.1583 16.0333 11.5 17 11.5C17.9833 11.5 18.8127 11.1583 19.488 10.475C20.1633 9.79167 20.5007 8.96667 20.5 8H22.5C22.5 9.35 22.075 10.5293 21.225 11.538C20.375 12.5467 19.3 13.1673 18 13.4V16Z" fill="#0A0A0A"/>
</svg>
