<svg width="18" height="18" viewBox="0 0 18 18" fill="none" xmlns="http://www.w3.org/2000/svg">
<path d="M9.25 2V2.5H3.25V15.5H12.5V14H13V15C13 15.2788 12.9065 15.5051 12.7061 15.7061C12.506 15.9065 12.28 16.0003 12.001 16H3.75C3.47109 16 3.24528 15.9064 3.04492 15.7061C2.86949 15.5306 2.77575 15.3353 2.75488 15.1016L2.75 14.999V3C2.75 2.7214 2.84328 2.49533 3.04395 2.29492C3.22003 2.11914 3.4158 2.02579 3.64844 2.00488L3.75098 2H9.25ZM10 12.5V13H5.75V12.5H10ZM8.5 10.25V10.75H5.75V10.25H8.5ZM12.75 2C13.0491 2 13.2757 2.09605 13.4648 2.28516C13.6539 2.47426 13.75 2.70092 13.75 3V6C13.75 6.29908 13.6539 6.52574 13.4648 6.71484C13.2757 6.90395 13.0491 7 12.75 7C12.4678 7 12.2406 6.9073 12.041 6.71191C11.8713 6.54569 11.7763 6.35148 11.7549 6.10742L11.75 5.99902V3C11.75 2.70449 11.8468 2.47901 12.041 2.28906C12.2414 2.09316 12.4684 2 12.75 2ZM12.5 9.63281L12.0898 9.55762C11.2427 9.40359 10.5411 8.99874 9.9707 8.3291C9.51359 7.79243 9.24593 7.1864 9.15918 6.5H9.66211C9.76046 7.1498 10.0548 7.7247 10.54 8.20996C11.1463 8.81626 11.8924 9.125 12.75 9.125C13.6175 9.125 14.3688 8.81795 14.9717 8.20801C15.4512 7.72277 15.7381 7.14805 15.835 6.5H16.3408C16.2546 7.18729 15.9888 7.79384 15.5361 8.33105C14.974 8.9981 14.2722 9.40363 13.4121 9.55762L13 9.63184V11.5H12.5V9.63281Z" fill="#0A0A0A" stroke="#0A0A0A"/>
</svg>
