<svg width="24" height="24" viewBox="0 0 24 24" fill="none" xmlns="http://www.w3.org/2000/svg">
<path d="M4.5 14.5C4.8283 14.5 5.15339 14.4353 5.45671 14.3097C5.76002 14.1841 6.03562 13.9999 6.26777 13.7678C6.49991 13.5356 6.68406 13.26 6.8097 12.9567C6.93534 12.6534 7 12.3283 7 12C7 12.663 7.26339 13.2989 7.73223 13.7678C8.20107 14.2366 8.83696 14.5 9.5 14.5C10.163 14.5 10.7989 14.2366 11.2678 13.7678C11.7366 13.2989 12 12.663 12 12C12 12.663 12.2634 13.2989 12.7322 13.7678C13.2011 14.2366 13.837 14.5 14.5 14.5C15.163 14.5 15.7989 14.2366 16.2678 13.7678C16.7366 13.2989 17 12.663 17 12C17 12.663 17.2634 13.2989 17.7322 13.7678C18.2011 14.2366 18.837 14.5 19.5 14.5C20.163 14.5 20.7989 14.2366 21.2678 13.7678C21.7366 13.2989 22 12.663 22 12C22 17.523 17.523 22 12 22C6.477 22 2 17.523 2 12C2 12.663 2.26339 13.2989 2.73223 13.7678C3.20107 14.2366 3.83696 14.5 4.5 14.5ZM14 6.5C14 7.03043 13.7893 7.53914 13.4142 7.91421C13.0391 8.28929 12.5304 8.5 12 8.5C11.4696 8.5 10.9609 8.28929 10.5858 7.91421C10.2107 7.53914 10 7.03043 10 6.5C10 5.395 12 2 12 2C12 2 14 5.395 14 6.5Z" stroke="#0A0A0A" stroke-width="1.5" stroke-linecap="round" stroke-linejoin="round"/>
</svg>
