<svg width="18" height="18" viewBox="0 0 18 18" fill="none" xmlns="http://www.w3.org/2000/svg">
<path d="M5.01225 3.75002C3.9885 3.79652 3.35625 3.94052 2.90925 4.38827C2.25 5.04827 2.25 6.11102 2.25 8.23577V11.9925C2.25 14.1173 2.25 15.18 2.90925 15.84C3.56775 16.5 4.629 16.5 6.75 16.5H11.25C13.371 16.5 14.4323 16.5 15.0908 15.84C15.7493 15.18 15.75 14.1173 15.75 11.9925V8.23502C15.75 6.11027 15.75 5.04752 15.0908 4.38752C14.6438 3.93977 14.0107 3.79502 12.9877 3.74927" stroke="#0A0A0A" stroke-width="1.5" stroke-linejoin="round"/>
<path d="M5.26875 4.905C4.90875 3.495 4.72875 2.79 5.02125 2.2725C5.09962 2.13465 5.19936 2.01011 5.31675 1.9035C5.7585 1.5 6.50175 1.5 7.9875 1.5H10.0125C11.4982 1.5 12.2415 1.5 12.6832 1.9035C12.801 2.01075 12.9007 2.136 12.9787 2.27325C13.2712 2.79075 13.0912 3.49575 12.7312 4.90575C12.4432 6.02925 12.3 6.591 11.916 6.96075C11.811 7.06225 11.6957 7.1505 11.5702 7.2255C11.1097 7.5 10.5172 7.5 9.333 7.5H8.667C7.482 7.5 6.8895 7.5 6.42975 7.2255C6.30527 7.15062 6.18956 7.06207 6.08475 6.9615C5.7 6.591 5.556 6.02925 5.26875 4.905Z" stroke="#0A0A0A" stroke-width="1.5" stroke-linejoin="round"/>
<path d="M7.5 13.5H10.5M8.625 7.5L9.375 5.25" stroke="#0A0A0A" stroke-width="1.5" stroke-linecap="round" stroke-linejoin="round"/>
</svg>
