<svg width="24" height="24" viewBox="0 0 24 24" fill="none" xmlns="http://www.w3.org/2000/svg">
<path d="M6.683 4.99999C5.318 5.06199 4.475 5.25399 3.879 5.85099C3 6.73099 3 8.14799 3 10.981V15.99C3 18.823 3 20.24 3.879 21.12C4.757 22 6.172 22 9 22H15C17.828 22 19.243 22 20.121 21.12C20.999 20.24 21 18.823 21 15.99V10.98C21 8.14699 21 6.72999 20.121 5.84999C19.525 5.25299 18.681 5.05999 17.317 4.99899" stroke="white" stroke-width="1.5" stroke-linejoin="round"/>
<path d="M7.0252 6.54C6.5452 4.66 6.3052 3.72 6.6952 3.03C6.7997 2.84621 6.93269 2.68014 7.0892 2.538C7.6782 2 8.6692 2 10.6502 2H13.3502C15.3312 2 16.3222 2 16.9112 2.538C17.0682 2.681 17.2012 2.848 17.3052 3.031C17.6952 3.721 17.4552 4.661 16.9752 6.541C16.5912 8.039 16.4002 8.788 15.8882 9.281C15.7482 9.41633 15.5945 9.534 15.4272 9.634C14.8132 10 14.0232 10 12.4442 10H11.5562C9.9762 10 9.1862 10 8.5732 9.634C8.40723 9.53417 8.25294 9.4161 8.1132 9.282C7.6002 8.788 7.4082 8.039 7.0252 6.54Z" stroke="white" stroke-width="1.5" stroke-linejoin="round"/>
<path d="M10 18H14M11.5 10L12.5 7" stroke="white" stroke-width="1.5" stroke-linecap="round" stroke-linejoin="round"/>
</svg>
