<svg width="18" height="18" viewBox="0 0 18 18" fill="none" xmlns="http://www.w3.org/2000/svg">
<path d="M2.25 15.75L3.4875 12.9C2.54075 11.5561 2.117 9.91281 2.29578 8.27862C2.47457 6.64442 3.24359 5.13164 4.45853 4.02418C5.67347 2.91671 7.25081 2.2907 8.89454 2.26361C10.5383 2.23653 12.1354 2.81023 13.3861 3.87707C14.6369 4.9439 15.4554 6.43052 15.6879 8.05794C15.9204 9.68536 15.551 11.3417 14.6491 12.7161C13.7471 14.0905 12.3746 15.0886 10.789 15.5229C9.20351 15.9572 7.51397 15.7979 6.0375 15.075L2.25 15.75Z" stroke="#0A0A0A" stroke-width="1.5" stroke-linecap="round" stroke-linejoin="round"/>
<path d="M6.75 7.5C6.75 7.59946 6.78951 7.69484 6.85983 7.76517C6.93016 7.83549 7.02554 7.875 7.125 7.875C7.22446 7.875 7.31984 7.83549 7.39017 7.76517C7.46049 7.69484 7.5 7.59946 7.5 7.5V6.75C7.5 6.65054 7.46049 6.55516 7.39017 6.48483C7.31984 6.41451 7.22446 6.375 7.125 6.375C7.02554 6.375 6.93016 6.41451 6.85983 6.48483C6.78951 6.55516 6.75 6.65054 6.75 6.75V7.5ZM6.75 7.5C6.75 8.49456 7.14509 9.44839 7.84835 10.1517C8.55161 10.8549 9.50544 11.25 10.5 11.25M10.5 11.25H11.25C11.3495 11.25 11.4448 11.2105 11.5152 11.1402C11.5855 11.0698 11.625 10.9745 11.625 10.875C11.625 10.7755 11.5855 10.6802 11.5152 10.6098C11.4448 10.5395 11.3495 10.5 11.25 10.5H10.5C10.4005 10.5 10.3052 10.5395 10.2348 10.6098C10.1645 10.6802 10.125 10.7755 10.125 10.875C10.125 10.9745 10.1645 11.0698 10.2348 11.1402C10.3052 11.2105 10.4005 11.25 10.5 11.25Z" stroke="#0A0A0A" stroke-width="1.5" stroke-linecap="round" stroke-linejoin="round"/>
</svg>
