<svg width="24" height="15" viewBox="0 0 24 15" fill="none" xmlns="http://www.w3.org/2000/svg">
<path d="M5.184 -5.43594e-05C7.44 -5.43594e-05 8.736 1.19995 8.736 3.39195C8.736 5.59995 7.44 6.78395 5.184 6.78395H3.344V10.3199H1.232V-5.43594e-05H5.184ZM3.344 5.03995H5.008C6.16 5.03995 6.624 4.57595 6.624 3.39195C6.624 2.22395 6.16 1.75995 5.008 1.75995H3.344V5.03995ZM9.80263 6.17595C9.80263 3.93595 11.1146 2.71995 13.3706 2.71995C15.7066 2.71995 16.9066 3.91995 16.9066 6.17595V7.35995H11.9146C11.9466 8.30395 12.4426 8.73595 13.5306 8.73595C14.5226 8.73595 15.5626 8.67195 16.5866 8.52795L16.7466 10.1599C15.4186 10.3839 14.3786 10.4799 13.5146 10.4799C11.0986 10.4799 9.80263 9.27995 9.80263 7.16795V6.17595ZM11.9146 6.06395H14.8266V5.90395C14.8266 4.89595 14.4426 4.36795 13.3706 4.36795C12.2986 4.36795 11.9146 4.89595 11.9146 6.06395ZM18.6851 10.3199V2.87995H20.3171L20.4931 3.85595C20.9411 3.03995 21.5811 2.71995 22.3491 2.71995H23.2451L23.0851 4.54395H22.2051C21.3411 4.54395 20.7971 5.16795 20.7971 6.11195V10.3199H18.6851Z" fill="white"/>
<path d="M0 13.2799H23.5971V14.4159H0V13.2799Z" fill="white"/>
</svg>
