<svg width="175" height="34" viewBox="0 0 175 34" fill="none" xmlns="http://www.w3.org/2000/svg">
<path d="M9.72 16.996H13.05C13.032 17.5 12.978 17.878 12.906 18.166C12.834 18.454 12.672 18.814 12.456 19.264C11.448 21.298 9.684 22.306 7.164 22.306C5.202 22.306 3.636 21.676 2.484 20.416C1.332 19.156 0.756 17.536 0.756 15.556C0.756 13.594 1.35 11.992 2.556 10.75C3.744 9.508 5.31 8.878 7.218 8.878C8.712 8.878 10.026 9.328 11.142 10.192C12.258 11.074 12.87 12.244 12.978 13.702H9.684C9.396 12.37 8.55 11.686 7.146 11.686C6.228 11.686 5.49 12.046 4.95 12.766C4.41 13.486 4.14 14.44 4.14 15.628C4.14 16.798 4.41 17.734 4.95 18.418C5.49 19.12 6.228 19.462 7.146 19.462C8.622 19.462 9.468 18.652 9.72 16.996ZM26.9962 15.61C26.9962 17.554 26.4202 19.156 25.2862 20.416C24.1522 21.676 22.6402 22.306 20.7502 22.306C18.7882 22.306 17.2222 21.694 16.0702 20.434C14.9002 19.192 14.3242 17.572 14.3242 15.592C14.3242 13.666 14.9002 12.064 16.0882 10.786C17.2762 9.526 18.8062 8.878 20.7142 8.878C22.6222 8.878 24.1342 9.49 25.2862 10.714C26.4202 11.938 26.9962 13.558 26.9962 15.61ZM23.5762 15.52C23.5762 14.296 23.3062 13.342 22.8022 12.658C22.2802 11.956 21.5782 11.614 20.6782 11.614C19.7782 11.614 19.0582 11.956 18.5362 12.676C17.9962 13.396 17.7442 14.35 17.7442 15.574C17.7442 16.816 17.9962 17.788 18.5182 18.49C19.0402 19.21 19.7602 19.552 20.6962 19.552C21.5962 19.552 22.3162 19.21 22.8202 18.49C23.3242 17.788 23.5762 16.798 23.5762 15.52ZM28.802 22V9.184H32.15L36.776 17.284L36.632 9.184H39.872V22H36.614L31.934 13.774L32.024 22H28.802ZM48.7138 22H44.8618L40.7938 9.184H44.3038L46.8058 18.706L49.3618 9.184H52.8898L48.7138 22ZM64.0936 9.184V11.884H57.1636V14.098H63.4996V16.69H57.1636V19.192H64.2556V22H53.8336V9.184H64.0936ZM66.1199 22V9.184H72.7979C74.0579 9.184 75.1019 9.508 75.9119 10.138C76.7219 10.768 77.1359 11.686 77.1359 12.892C77.1359 14.386 76.4699 15.43 75.1559 16.024C76.0019 16.312 76.5419 16.87 76.7759 17.68C76.9199 18.22 77.0639 19.12 77.1719 20.398C77.1719 20.434 77.1719 20.524 77.1899 20.65C77.1899 20.776 77.2079 20.866 77.2079 20.902C77.2079 20.956 77.2259 21.028 77.2439 21.136C77.2439 21.244 77.2619 21.316 77.2799 21.37C77.2979 21.424 77.3159 21.496 77.3519 21.568C77.3699 21.658 77.4059 21.73 77.4419 21.802C77.4779 21.874 77.5319 21.928 77.5859 22H74.1839C74.0759 21.784 74.0039 21.514 73.9679 21.226C73.9139 20.938 73.8779 20.578 73.8599 20.146C73.8239 19.732 73.8059 19.462 73.8059 19.318C73.7159 18.562 73.4999 18.022 73.1759 17.698C72.8339 17.392 72.2759 17.23 71.5199 17.23H69.4679V22H66.1199ZM69.4679 14.854H71.8259C72.4559 14.854 72.9419 14.746 73.3019 14.53C73.6619 14.314 73.8419 13.9 73.8419 13.27C73.8419 12.28 73.1579 11.776 71.7899 11.776H69.4679V14.854ZM88.9997 9.184V12.028H85.2017V22H81.8177V12.028H78.0197V9.184H88.9997ZM102.688 15.61C102.688 17.554 102.112 19.156 100.978 20.416C99.8436 21.676 98.3316 22.306 96.4416 22.306C94.4796 22.306 92.9136 21.694 91.7616 20.434C90.5916 19.192 90.0156 17.572 90.0156 15.592C90.0156 13.666 90.5916 12.064 91.7796 10.786C92.9676 9.526 94.4976 8.878 96.4056 8.878C98.3136 8.878 99.8256 9.49 100.978 10.714C102.112 11.938 102.688 13.558 102.688 15.61ZM99.2676 15.52C99.2676 14.296 98.9976 13.342 98.4936 12.658C97.9716 11.956 97.2696 11.614 96.3696 11.614C95.4696 11.614 94.7496 11.956 94.2276 12.676C93.6876 13.396 93.4356 14.35 93.4356 15.574C93.4356 16.816 93.6876 17.788 94.2096 18.49C94.7316 19.21 95.4516 19.552 96.3876 19.552C97.2876 19.552 98.0076 19.21 98.5116 18.49C99.0156 17.788 99.2676 16.798 99.2676 15.52ZM104.475 22V9.184H111.153C112.413 9.184 113.457 9.508 114.267 10.138C115.077 10.768 115.491 11.686 115.491 12.892C115.491 14.386 114.825 15.43 113.511 16.024C114.357 16.312 114.897 16.87 115.131 17.68C115.275 18.22 115.419 19.12 115.527 20.398C115.527 20.434 115.527 20.524 115.545 20.65C115.545 20.776 115.563 20.866 115.563 20.902C115.563 20.956 115.581 21.028 115.599 21.136C115.599 21.244 115.617 21.316 115.635 21.37C115.653 21.424 115.671 21.496 115.707 21.568C115.725 21.658 115.761 21.73 115.797 21.802C115.833 21.874 115.887 21.928 115.941 22H112.539C112.431 21.784 112.359 21.514 112.323 21.226C112.269 20.938 112.233 20.578 112.215 20.146C112.179 19.732 112.161 19.462 112.161 19.318C112.071 18.562 111.855 18.022 111.531 17.698C111.189 17.392 110.631 17.23 109.875 17.23H107.823V22H104.475ZM107.823 14.854H110.181C110.811 14.854 111.297 14.746 111.657 14.53C112.017 14.314 112.197 13.9 112.197 13.27C112.197 12.28 111.513 11.776 110.145 11.776H107.823V14.854Z" fill="white"/>
<path d="M142.107 0.32605C142.77 0.371169 143.434 0.416292 144.204 0.470859C145.154 0.642039 145.998 0.803775 146.841 0.965512C147.682 1.27579 148.522 1.58607 149.44 1.93619C155.435 4.90977 158.621 9.64484 159.32 16.1257C156.415 16.1257 153.627 16.1257 150.766 16.1257C150.766 15.3455 150.766 14.6143 150.766 13.7546C149.247 14.973 147.838 16.103 146.38 17.2719C147.883 18.438 149.291 19.531 150.833 20.7275C150.833 19.7925 150.833 19.052 150.833 18.3016C153.648 18.3016 156.401 18.3016 159.158 18.3016C159.178 18.3898 159.203 18.4497 159.202 18.5093C159.201 18.6594 159.197 18.8106 159.178 18.9594C158.709 22.6085 157.192 25.7789 154.646 28.4779C153.031 30.1909 151.058 31.404 148.883 32.4108C148.213 32.6416 147.593 32.8666 146.921 33.0898C140.035 34.9185 132.934 32.6478 128.637 27.272C126.363 24.4271 125.229 21.1772 125 17.597C125.006 17.5721 125.012 17.5472 125.017 17.4362C125.014 16.8783 125.011 16.4065 125.009 15.9346C125.022 15.8784 125.034 15.8221 125.06 15.6777C125.214 14.7159 125.355 13.8421 125.496 12.9684C125.811 12.0973 126.125 11.2262 126.471 10.2736C126.974 9.35688 127.443 8.52163 127.913 7.68638C128.514 6.98253 129.115 6.2787 129.772 5.51839C130.681 4.74286 131.535 4.02378 132.432 3.29591C133.179 2.87589 133.881 2.46467 134.627 2.0437C135.398 1.73294 136.127 1.43194 136.905 1.13128C137.072 1.08649 137.19 1.04135 137.358 0.99902C138.096 0.847805 138.786 0.693784 139.529 0.543868C140.424 0.474003 141.265 0.400026 142.107 0.32605Z" fill="#D1D5DB"/>
<path d="M170.235 33.1639C169.136 33.4339 168.037 33.7039 166.823 33.9774C165.66 33.9807 164.612 33.9785 163.564 33.9805C159.962 33.9875 156.361 33.996 152.7 33.9938C152.197 33.9924 151.754 34.001 151.253 33.9999C150.803 33.9903 150.41 33.9903 150.017 33.9903C150.016 33.9279 150.014 33.8656 150.013 33.8032C150.101 33.7573 150.189 33.7113 150.324 33.652C157.179 30.3403 160.707 24.8906 161.126 17.5372C161.372 13.2176 159.916 9.32781 157.286 5.88557C155.559 3.62572 153.459 1.76065 150.786 0.596361C150.669 0.502534 150.553 0.408706 150.278 0.18708C150.837 0.18708 151.235 0.18708 151.732 0.16004C152.579 0.115338 153.327 0.0976789 154.075 0.080016C155.124 0.0514539 156.174 0.0143928 157.223 0.00014524C157.495 -0.00354946 157.768 0.0641592 158.157 0.0991309C160.073 0.092493 161.873 0.0857922 163.674 0.0790953C164.117 0.0861188 164.559 0.0931424 165.113 0.100272C165.365 0.093044 165.506 0.0857096 165.647 0.0783753C165.916 0.086288 166.185 0.0942007 166.554 0.103931C166.801 0.106194 166.947 0.106642 167.094 0.107087C168.395 0.281835 169.642 0.626485 170.873 1.28164C171.059 1.3874 171.177 1.44967 171.295 1.51193C171.842 2.00803 172.389 2.50412 172.989 3.06157C173.289 3.45133 173.535 3.77974 173.782 4.10815C174.083 4.84197 174.384 5.5758 174.705 6.40439C174.809 7.26425 174.956 8.02876 174.963 8.79457C174.997 12.2919 174.991 15.7895 175 19.2871C174.994 19.3446 174.987 19.4021 174.98 19.5618C174.982 21.4294 174.986 23.1947 174.99 24.96C175.005 26.8624 174.611 28.6594 173.521 30.3538C173.445 30.4869 173.412 30.5553 173.343 30.6459C172.847 31.148 172.388 31.6278 171.895 32.1217C171.792 32.1988 171.722 32.2617 171.652 32.3246C171.42 32.4638 171.188 32.603 170.886 32.7835C170.623 32.9379 170.429 33.0509 170.235 33.1639Z" fill="#FDE047"/>
</svg>
